Monoid-Bold.sfdir
StartChar: exclam
Encoding: 33 33 56
GlifName: exclam
Width: 1024
VWidth: 0
Flags: W
HStem: -16 346<460.16 691.84> 1388 20G<434 718>
VStem: 403 346<41.1602 272.84> 434 284<738.987 1408> 452 248<512 1181.01>
LayerCount: 4
Back
Fore
SplineSet
576 330 m 4xe0
 678 330 749 259 749 157 c 4
 749 55 678 -16 576 -16 c 4
 474 -16 403 55 403 157 c 4
 403 259 474 330 576 330 c 4xe0
700 512 m 5xc8
 452 512 l 5xc8
 434 1408 l 5
 718 1408 l 5xd0
 700 512 l 5xc8
EndSplineSet
Layer: 2
Layer: 3
EndChar
StartChar: quotedbl
Encoding: 34 34 57
GlifName: quotedbl
Width: 1024
VWidth: 0
Flags: W
HStem: 768 640<256 512 640 896>
VStem: 256 256<768 1408> 640 256<768 1408>
LayerCount: 4
Back
Fore
SplineSet
640 1408 m 5
 896 1408 l 1
 896 768 l 1
 640 768 l 5
 640 1408 l 5
256 1408 m 5
 512 1408 l 1
 512 768 l 1
 256 768 l 5
 256 1408 l 5
EndSplineSet
Layer: 2
Layer: 3
EndChar
StartChar: numbersign
Encoding: 35 35 58
GlifName: numbersign
Width: 1024
VWidth: 0
Flags: W
HStem: 0 21G<256 512 640 896> 272 240<128 256 512 640 896 1024> 896 240<128 256 512 640 896 1024> 1388 20G<256 512 640 896>
VStem: 256 256<0 272 512 896 1136 1408> 640 256<0 272 512 896 1136 1408>
LayerCount: 4
Back
SplineSet
640 -380 m 25
 896 1916 l 1049
256 -380 m 25
 512 1916 l 1049
1024 1148 m 5
 1024 1028 l 5
 128 1028 l 5
 128 1148 l 5
 1024 1148 l 5
1024 508 m 5
 1024 388 l 5
 128 388 l 5
 128 508 l 5
 1024 508 l 5
EndSplineSet
Fore
SplineSet
512 896 m 1
 512 512 l 1
 640 512 l 1
 640 896 l 1
 512 896 l 1
1024 512 m 1
 1024 272 l 1
 896 272 l 1
 896 0 l 1
 640 0 l 1
 640 272 l 1
 512 272 l 1
 512 0 l 1
 256 0 l 1
 256 272 l 1
 128 272 l 1
 128 512 l 1
 256 512 l 1
 256 896 l 1
 128 896 l 1
 128 1136 l 1
 256 1136 l 1
 256 1408 l 1
 512 1408 l 1
 512 1136 l 1
 640 1136 l 1
 640 1408 l 1
 896 1408 l 1
 896 1136 l 1
 1024 1136 l 1
 1024 896 l 1
 896 896 l 1
 896 512 l 1
 1024 512 l 1
EndSplineSet
Validated: 1
Layer: 2
Layer: 3
EndChar
StartChar: dollar
Encoding: 36 36 59
GlifName: dollar
Width: 1024
VWidth: 0
Flags: W
HStem: 1184 240<529.743 640>
VStem: 226 256<889.567 1140.17> 512 128<-128 -16 228 596> 640 128<839 1179 1424 1536> 798 256<278.275 535.857>
LayerCount: 4
Back
SplineSet
512 -128 m 5
 512 675 l 5
 640 675 l 5
 640 -128 l 5
 512 -128 l 5
640 1552 m 5
 768 1552 l 5
 768 675 l 5
 640 675 l 5
 640 1552 l 5
620 -16 m 4
 486 -16 366 -2 250 16 c 5
 250 260 l 5
 364 243 492 224 620 224 c 4
 768 224 798 325.98757764 798 414 c 4
 798 479.989617808 766.012170542 554.911457736 701.342773438 580 c 4
 623.014945034 610.387341174 525.017400276 594.784941611 414.325195312 661 c 4
 295.391436266 732.145080201 226 851.182122374 226 1015 c 4
 226 1241.49340369 385 1424 620 1424 c 4
 756 1424 877 1411 990 1399 c 5
 990 1158 l 5
 878 1170 745 1184 620 1184 c 4
 512 1184 482 1078.91570517 482 1013 c 4
 482 942.229787597 505.558888922 883.541143344 562 858.618164062 c 4
 629.178906035 828.9536438 728.027229749 840.555094948 830.260742188 788 c 4
 998.169753733 701.683156981 1054 546.286868273 1054 414 c 4
 1054 154.498753118 878 -16 620 -16 c 4
EndSplineSet
Fore
SplineSet
640 1536 m 5xd8
 768 1536 l 5
 768 1419 l 5
 853.027027027 1414 933.693693694 1406 1010 1399 c 5
 1010 1158 l 5
 935.873873874 1165 851.936936937 1174 768 1179 c 5
 768 813 l 5xd8
 965 752 1054 575 1054 414 c 4
 1054 161 887 -7 640 -16 c 5
 640 -128 l 5
 512 -128 l 5
 512 -13 l 5
 420 -8 334 3 250 16 c 5
 250 260 l 5
 332 248 421 234 512 228 c 5
 512 620 l 5xe8
 339 668 226 813 226 1015 c 4
 226 1253 391 1424 640 1424 c 5
 640 1536 l 5xd8
640 1184 m 5
 543.114613233 1184 482 1128.76778323 482 1013 c 4
 482 921 516 852 640 839 c 5
 640 1184 l 5
640 225 m 5
 771 234 798 330 798 414 c 4
 798 493 757 583 640 596 c 5xe8
 640 225 l 5
EndSplineSet
Layer: 2
Layer: 3
EndChar
StartChar: percent
Encoding: 37 37 60
GlifName: percent
Width: 1024
VWidth: 0
Flags: W
HStem: -16 120<667.33 868.67> 408 120<667.33 868.67> 880 120<283.33 484.67> 1304 120<283.33 484.67>
VStem: 112 128<1043.54 1260.46> 496 128<147.537 364.463> 528 128<1043.54 1260.46> 912 128<147.537 364.463>
LayerCount: 3
Back
SplineSet
128 256 m 5
 1024 1152 l 1029
EndSplineSet
Fore
SplineSet
172 212 m 1xf9
 84 300 l 1
 980 1196 l 1
 1068 1108 l 1
 172 212 l 1xf9
384 1304 m 0
 300 1304 240 1250 240 1152 c 0
 240 1054 300 1000 384 1000 c 0
 468 1000 528 1054 528 1152 c 0xfb
 528 1250 468 1304 384 1304 c 0
384 1424 m 0
 545 1424 656 1304 656 1152 c 0
 656 1000 545 880 384 880 c 0
 223 880 112 1000 112 1152 c 0
 112 1304 223 1424 384 1424 c 0
768 408 m 0
 684 408 624 354 624 256 c 0xfd
 624 158 684 104 768 104 c 0
 852 104 912 158 912 256 c 0
 912 354 852 408 768 408 c 0
768 528 m 0
 929 528 1040 408 1040 256 c 0
 1040 104 929 -16 768 -16 c 0
 607 -16 496 104 496 256 c 0
 496 408 607 528 768 528 c 0
EndSplineSet
Validated: 1
Layer: 2
EndChar
StartChar: ampersand
Encoding: 38 38 61
GlifName: ampersand
Width: 1024
VWidth: 0
Flags: W
HStem: -16 120<391.085 755.508> 0 21G<932.61 1102> 1308 120<448.217 703.462>
VStem: 96 128<257.348 540.48> 239 128<959.893 1224.27> 785 128<963.528 1226.18> 896 128<300.833 640>
LayerCount: 4
Back
SplineSet
453 678 m 5xb8
 327 638 224 544 224 396 c 4
 224 235 351 104 576 104 c 4
 676 104 760 132 815 182 c 5
 453 678 l 5xb8
  Spiro
    453 678 v
    337.731 620.076 o
    255.311 525.888 o
    224 396 o
    265.178 248.871 o
    384.897 143.85 o
    576 104 o
    670.097 113.093 o
    750.888 139.59 o
    815 182 v
    0 0 z
  EndSpiro
505 819 m 5
 569 836 629 858 676 890 c 4
 737 931 785 999 785 1095 c 4x3c
 785 1219 704 1308 576 1308 c 4
 451 1308 367 1223 367 1094 c 4
 367 1013 399 965 437 913 c 6
 505 819 l 5
  Spiro
    505 819 v
    567.273 837.831 o
    625.055 861.174 o
    676 890 o
    731.322 939.978 o
    770.324 1008.37 o
    785 1095 o
    759.309 1205.24 o
    686.981 1280.39 o
    576 1308 o
    466.352 1281.24 o
    393.356 1206.72 o
    367 1094 o
    376.685 1022.69 o
    401.994 964.984 o
    437 913 [
    0 0 z
  EndSpiro
884 299 m 5
 895 338 896 383 896 431 c 6
 896 640 l 5
 1024 640 l 5
 1024 431 l 6
 1024 342 1017 254 971 179 c 5
 1102 0 l 5
 947 0 l 5x7a
 888 82 l 5
 812 20 702 -16 576 -16 c 4xba
 271 -16 96 177 96 396 c 4
 96 578 217 722 379 779 c 5
 331 845 l 6
 286 906 239 990 239 1094 c 4
 239 1293 383 1428 576 1428 c 4
 774 1428 913 1285 913 1095 c 4
 913 957 839 853 752 793 c 4
 694 754 639 735 580 716 c 5
 884 299 l 5
  Spiro
    884 299 v
    891.995 339.846 o
    895.335 384.157 o
    896 431 [
    896 640 v
    1024 640 v
    1024 431 ]
    1020.49 342.865 o
    1005.16 257.807 o
    971 179 v
    1102 0 v
    947 0 v
    888 82 v
    801.43 29.0806 o
    695.887 -4.39325 o
    576 -16 o
    316.213 42.0381 o
    152.555 192.035 o
    96 396 o
    133.299 563.367 o
    233.755 694.924 o
    379 779 v
    331 845 ]
    287.189 913.48 o
    252.826 996.868 o
    239 1094 o
    283.396 1268.89 o
    403.002 1385.71 o
    576 1428 o
    751.221 1383.97 o
    869.713 1265.63 o
    913 1095 o
    890.635 968.818 o
    832.336 867.208 o
    752 793 o
    694.798 759.954 o
    637.869 735.72 o
    580 716 v
    0 0 z
  EndSpiro
EndSplineSet
Fore
SplineSet
450 681 m 5xb8
 325.650655022 638.581461092 224 545.574468085 224 396 c 0
 224 235 351 104 576 104 c 0
 676 104 760 132 815 182 c 1
 450 681 l 5xb8
505 819 m 1
 647.020324432 856.458523677 785 923.961767027 785 1095 c 0x3c
 785 1219 704 1308 576 1308 c 0
 451 1308 367 1223 367 1094 c 0
 367 999.25606359 407.938422227 953.114533981 505 819 c 1
  Spiro
    505 819 v
    567.273 837.831 o
    625.055 861.174 o
    676 890 o
    731.322 939.978 o
    770.324 1008.37 o
    785 1095 o
    759.309 1205.24 o
    686.981 1280.39 o
    576 1308 o
    466.352 1281.24 o
    393.356 1206.72 o
    367 1094 o
    376.685 1022.69 o
    401.994 964.984 o
    437 913 [
    0 0 z
  EndSpiro
884 299 m 1
 895 338 896 383 896 431 c 2
 896 640 l 1
 1024 640 l 1
 1024 431 l 2
 1024 342 1017 254 971 179 c 1
 1102 0 l 1
 947 0 l 1x7a
 888 82 l 1
 812 20 702 -16 576 -16 c 0xba
 271 -16 96 177 96 396 c 0
 96 579.425587467 215.717314488 722.558692763 376 782 c 5
 296.68672107 892.283344371 239 969.212522867 239 1093 c 4
 239 1292.59580838 383 1428 576 1428 c 0
 774 1428 913 1285 913 1095 c 0
 913 923.546668944 798 774 580 716 c 1
 884 299 l 1
EndSplineSet
Validated: 1
Layer: 2
Layer: 3
EndChar
StartChar: quotesingle
Encoding: 39 39 62
GlifName: quotesingle
Width: 1024
VWidth: 0
Flags: W
HStem: 1388 20G<512 640>
VStem: 512 128<768 1408>
LayerCount: 3
Back
Fore
SplineSet
512 1408 m 5
 640 1408 l 5
 640 768 l 5
 512 768 l 5
 512 1408 l 5
EndSplineSet
Validated: 1
Layer: 2
EndChar
StartChar: parenleft
Encoding: 40 40 63
GlifName: parenleft
Width: 1024
VWidth: 0
Flags: W
VStem: 258 256<435.229 970.771>
LayerCount: 4
Back
Fore
SplineSet
258 703 m 4
 258 1114.62011719 457.575195312 1396.38574219 777.451171875 1539.22167969 c 13
 882.211914062 1328.10546875 l 21
 656.672851562 1224.79980469 514 1026.7578125 514 703 c 4
 514 379.2421875 656.672851562 181.200195312 882.211914062 77.89453125 c 13
 777.451171875 -133.221679688 l 21
 457.575195312 9.6142578125 258 291.379882812 258 703 c 4
EndSplineSet
Validated: 524289
Layer: 2
Layer: 3
EndChar
StartChar: parenright
Encoding: 41 41 64
GlifName: parenright
Width: 1024
VWidth: 0
Flags: W
VStem: 640 256<435.104 970.896>
LayerCount: 4
Back
Fore
SplineSet
377 1539 m 17
 697 1396 896 1115 896 703 c 0
 896 291 697 10 377 -133 c 9
 272 78 l 17
 498 181 640 379 640 703 c 0
 640 1027 498 1225 272 1328 c 9
 377 1539 l 17
EndSplineSet
Validated: 1
Layer: 2
Layer: 3
Substitution2: "Single Substitution lookup 17 subtable" parenright.shrug
EndChar
StartChar: asterisk
Encoding: 42 42 65
GlifName: asterisk
Width: 1024
VWidth: 0
Flags: W
HStem: 1004 20G<318.358 364.534 788.402 834.642>
VStem: 512 128<128 522>
LayerCount: 4
Back
Fore
SplineSet
512 522 m 5
 144 402 l 5
 102 515 l 5
 476 637 l 5
 244 957 l 5
 350 1024 l 5
 576 713 l 5
 803 1024 l 5
 909 957 l 5
 676 637 l 5
 1050 515 l 5
 1008 402 l 5
 640 522 l 5
 640 128 l 5
 512 128 l 5
 512 522 l 5
EndSplineSet
Validated: 1
Layer: 2
Layer: 3
EndChar
StartChar: plus
Encoding: 43 43 66
GlifName: plus
Width: 1024
VWidth: 0
Flags: W
HStem: 520 240<128 448 704 1024>
VStem: 448 256<200 520 760 1080>
LayerCount: 4
Back
Fore
SplineSet
704 760 m 1
 1024 760 l 1
 1024 520 l 1
 704 520 l 1
 704 200 l 1
 448 200 l 1
 448 520 l 1
 128 520 l 1
 128 760 l 1
 448 760 l 1
 448 1080 l 1
 704 1080 l 1
 704 760 l 1
EndSplineSet
Validated: 1
Layer: 2
Layer: 3
EndChar
StartChar: comma
Encoding: 44 44 67
GlifName: comma
Width: 1024
VWidth: 0
Flags: W
VStem: 384 384<128 488> 512 256<-4.47964 128>
LayerCount: 4
Back
Fore
SplineSet
384 488 m 5x80
 768 488 l 5x80
 768 111.5 l 6x40
 768 33.5 767.634034772 -57.1875876728 690 -148.5 c 4
 627 -222.6 519 -272 384 -272 c 5
 384 -32 l 5x80
 495.923828125 -32 512 52.0415608372 512 111.5 c 6
 512 128 l 5x40
 384 128 l 5
 384 488 l 5x80
EndSplineSet
Validated: 524289
Layer: 2
Layer: 3
EndChar
StartChar: hyphen
Encoding: 45 45 55
GlifName: hyphen
Width: 1024
VWidth: 0
Flags: W
HStem: 520 240<128 1024>
LayerCount: 4
Back
Fore
SplineSet
128 760 m 1
 1024 760 l 1
 1024 520 l 1
 128 520 l 1
 128 760 l 1
EndSplineSet
Validated: 1
Layer: 2
Layer: 3
Substitution2: "Single Substitution lookup 72 subtable" hyphen.more
Substitution2: "Single Substitution lookup 71 subtable" hyphen.more
Substitution2: "Single Substitution lookup 70 subtable" hyphen.operator
Substitution2: "Single Substitution lookup 38 subtable" larsenwork
Substitution2: "Single Substitution lookup 37 subtable" arrowleft.liga
Substitution2: "Single Substitution lookup 33 subtable" larsenwork1
Substitution2: "Single Substitution lookup 32 subtable" ligaarrowlefttwoheads
Substitution2: "Single Substitution lookup 28 subtable" larsenwork
Substitution2: "Single Substitution lookup 27 subtable" larsenwork
Substitution2: "Single Substitution lookup 26 subtable" ligaarrowleftlong
Substitution2: "Single Substitution lookup 25 subtable" larsenwork3
Substitution2: "Single Substitution lookup 23 subtable" commentstart
Substitution2: "Single Substitution lookup 22 subtable" larsenwork5
EndChar
StartChar: period
Encoding: 46 46 68
GlifName: period
Width: 1024
VWidth: 0
Flags: W
HStem: 0 360<384 768>
VStem: 384 384<0 360>
LayerCount: 4
Back
Fore
SplineSet
384 360 m 1
 768 360 l 1
 768 0 l 1
 384 0 l 1
 384 360 l 1
EndSplineSet
Validated: 1
Layer: 2
Layer: 3
Substitution2: "Single Substitution lookup 47 subtable" period2r
Substitution2: "Single Substitution lookup 46 subtable" period2l
Substitution2: "Single Substitution lookup 45 subtable" dotdotdot
Substitution2: "Single Substitution lookup 44 subtable" larsenwork
Substitution2: "Single Substitution lookup 43 subtable" larsenwork
EndChar
StartChar: slash
Encoding: 47 47 69
GlifName: slash
Width: 1024
VWidth: 0
Flags: W
LayerCount: 4
Back
Fore
SplineSet
358.7890625 -196.705078125 m 29
 122.27734375 -111.275390625 l 29
 793.2109375 1604.70605469 l 29
 1029.72265625 1519.27636719 l 29
 358.7890625 -196.705078125 l 29
EndSplineSet
Validated: 1
Layer: 2
Layer: 3
EndChar
StartChar: zero
Encoding: 48 48 70
GlifName: zero
Width: 1024
VWidth: 0
Flags: W
VStem: 253 252<599.015 1160.79> 647 252<247.21 808.985>
LayerCount: 4
Back
SplineSet
398 246 m 5
 676 1162 l 5
 754 1162 l 5
 476 246 l 5
 398 246 l 5
576 1182 m 4
 544 1182 525 1126 515 1056 c 4
 505.41981211 988.938684773 505 855 505 704 c 4
 505 553 505 419 515 352 c 4
 525.43820864 282.064002113 544 226 576 226 c 4
 608 226 627 282 637 352 c 4
 646.58018789 419.061315227 647 553 647 704 c 4
 647 855 647 989 637 1056 c 4
 626.56179136 1125.93599789 608 1182 576 1182 c 4
576 1426 m 4
 741 1426 820.219093173 1315.0824182 860 1209 c 4
 899 1105 899 926 899 704 c 4
 899 482 899.214792332 302.919199681 860 199 c 4
 820 93 741 -18 576 -18 c 4
 411 -18 331.780906827 92.9175817958 292 199 c 4
 253 303 253 482 253 704 c 4
 253 926 252.785207668 1105.08080032 292 1209 c 4
 332 1315 411 1426 576 1426 c 4
EndSplineSet
Fore
SplineSet
576 1426 m 4
 741 1426 820.219093173 1315.0824182 860 1209 c 4
 899 1105 899 926 899 704 c 4
 899 482 899.214792332 302.919199681 860 199 c 4
 820 93 741 -18 576 -18 c 4
 411 -18 331.780906827 92.9175817958 292 199 c 4
 253 303 253 482 253 704 c 4
 253 926 252.785207668 1105.08080032 292 1209 c 4
 332 1315 411 1426 576 1426 c 4
639.040321431 1040.2191886 m 5
 631.088048817 1111.0930965 610.452433065 1182 576 1182 c 4
 544 1182 525 1126 515 1056 c 4
 505.41981211 988.938684773 505 855 505 704 c 4
 505 667.798264276 505.137802577 632.573661852 505.137802577 599.015205613 c 5
 639.040321431 1040.2191886 l 5
512.959678569 367.780811399 m 5
 520.911951183 296.906903496 541.547566935 226 576 226 c 4
 608 226 627 282 637 352 c 4
 646.58018789 419.061315227 647 553 647 704 c 4
 647 740.201735724 646.862197423 775.426338148 646.862197423 808.984794387 c 5
 512.959678569 367.780811399 l 5
EndSplineSet
Layer: 2
Layer: 3
EndChar
StartChar: one
Encoding: 49 49 71
GlifName: one
Width: 1024
VWidth: 0
Flags: W
HStem: 0 21G<512 768> 1388 20G<508.843 768>
VStem: 512 256<0 1106>
LayerCount: 4
Back
SplineSet
660 1408 m 5xa0
 768 1408 l 5
 768 0 l 5
 640 0 l 5
 640 1246 l 5
 630 1246 l 5
 319 1022 l 5
 256 1114 l 5
 660 1408 l 5xa0
EndSplineSet
Fore
SplineSet
536.326171875 1408 m 5
 768 1408 l 5
 768 0 l 5
 512 0 l 5
 512 1106 l 5
 502 1106 l 5
 383 1019 l 5
 256 1204 l 5
 536.326171875 1408 l 5
EndSplineSet
Validated: 1
Layer: 2
Layer: 3
Substitution2: "'ss05' Style Set 5 lookup 56 subtable" one.base
EndChar
StartChar: two
Encoding: 50 50 72
GlifName: two
Width: 1024
VWidth: 0
Flags: W
HStem: 0 120<418 950> 1304 120<259.958 697.85>
VStem: 780 128<960.764 1224.16>
LayerCount: 3
Back
SplineSet
256 1393 m 5
 346 1410 456 1424 554 1424 c 4
 813 1424 908 1259 908 1093 c 4
 908 1006 880 949 852 899 c 6
 418 120 l 5
 896 120 l 5
 896 0 l 5
 256 0 l 5
 256 89 l 5
 738 955 l 6
 762 998 780 1033 780 1093 c 4
 780 1188 742 1304 554 1304 c 4
 452 1304 340 1288 256 1273 c 5
 256 1393 l 5
EndSplineSet
Fore
SplineSet
256 1393 m 1
 342.979865772 1410 449.288590604 1424 544 1424 c 0
 810.316384181 1424 908 1259 908 1093 c 0
 908 989.855670103 870.459326107 932.022413762 832 863 c 2
 418 120 l 1
 950 120 l 5
 950 0 l 5
 256 0 l 1
 256 89 l 1
 718 919 l 2
 749.845589786 976.211773857 780 1017.34782609 780 1093 c 0
 780 1188 740.318584071 1304 544 1304 c 0
 445.422818792 1304 337.181208054 1288 256 1273 c 1
 256 1393 l 1
EndSplineSet
Validated: 1
Layer: 2
EndChar
StartChar: three
Encoding: 51 51 73
GlifName: three
Width: 1024
VWidth: 0
Flags: W
HStem: -16 240<259.975 637.106> 584 240<384 614.571> 1184 240<259.876 619.449>
VStem: 652 256<861.875 1155.81> 672 256<257.428 537.184>
CounterMasks: 1 e0
LayerCount: 4
Back
SplineSet
536 1424 m 4xf0
 797 1424 908 1258 908 1034 c 4xf0
 908 899 859 779 765 713 c 5
 765 703 l 5
 866 640 928 519 928 377 c 4
 928 376 928 375 928 374 c 4
 927 157 806 -16 546 -16 c 4
 443 -16 341 -4 256 10 c 5
 256 131 l 5
 340 117 445 104 536 104 c 4
 740 104 800 223 800 374 c 4xe8
 800 491 754 593 666 628 c 4
 633 641 591 644 542 644 c 6
 384 644 l 5
 384 764 l 5
 543 764 l 6
 590 764 629 767 659 780 c 4
 743 816 780 919 780 1034 c 4
 780 1191 726 1304 536 1304 c 4
 436 1304 339 1288 256 1276 c 5
 256 1396 l 5
 338 1410 429 1424 536 1424 c 4xf0
EndSplineSet
Fore
SplineSet
536 1424 m 0xf0
 797 1424 908 1258 908 1034 c 0xf0
 908 899 859 779 765 713 c 1
 765 703 l 1
 866 640 928 519 928 377 c 0
 928 376 928 375 928 374 c 0
 927 157 806 -16 546 -16 c 0
 443 -16 341 -4 256 10 c 1
 256 251 l 1
 340 237 445 224 536 224 c 0
 641.090909091 224 672 298.925925926 672 394 c 0xe8
 672 515.383099009 623.868151958 584 512 584 c 6
 384 584 l 1
 384 824 l 1
 513 824 l 6
 615.853852607 824 652 895.696441592 652 1014 c 0
 652 1112.85185185 626.327868852 1184 536 1184 c 0
 436 1184 339 1168 256 1156 c 1
 256 1396 l 1
 338 1410 429 1424 536 1424 c 0xf0
EndSplineSet
Layer: 2
Layer: 3
EndChar
StartChar: four
Encoding: 52 52 74
GlifName: four
Width: 1024
VWidth: 0
Flags: W
HStem: 0 21G<768 896> 388 120<387 768 896 1024> 1388 20G<389.131 518 768 896>
VStem: 768 128<0 388 508 1408>
LayerCount: 4
Back
Fore
SplineSet
896 0 m 1
 768 0 l 1
 768 388 l 1
 256 388 l 1
 256 460 l 1
 392 1408 l 1
 518 1408 l 5
 387 508 l 1
 768 508 l 1
 768 1408 l 1
 896 1408 l 1
 896 508 l 1
 1024 508 l 1
 1024 388 l 1
 896 388 l 1
 896 0 l 1
EndSplineSet
Validated: 1
Layer: 2
Layer: 3
EndChar
StartChar: five
Encoding: 53 53 75
GlifName: five
Width: 1024
VWidth: 0
Flags: W
HStem: -16 120<259.814 697.112> 792 120<478.551 707.646> 1288 120<384 896>
VStem: 256 128<796 1288> 800 128<218.669 680.582>
LayerCount: 3
Back
SplineSet
256 160 m 5
 338 135 463 104 570 104 c 4
 785 104 800 260 800 449 c 4
 800 526 800 608 780 663 c 4
 742 766 665 792 592 792 c 4
 494 792 418 744 373 683 c 5
 256 717 l 5
 256 1408 l 5
 896 1408 l 5
 896 1288 l 5
 384 1288 l 5
 384 1124 384 960 384 796 c 5
 394 796 l 5
 453 864 514 912 612 912 c 4
 733 912 811 859 865 781 c 4
 927 691 928 579 928 447 c 4
 928 318 919 200 864 122 c 4
 805 38 721 -16 570 -16 c 4
 454 -16 341 12 256 35 c 5
 256 160 l 5
EndSplineSet
Fore
SplineSet
256 137 m 1
 335.388535032 122.267857143 456.407643312 104 560 104 c 0
 763.47826087 104 800 260 800 449 c 0
 800 623.710628878 764.175711522 792 592 792 c 4
 498.01826484 792 425.945205479 744 383 683 c 5
 256 717 l 1
 256 1408 l 1
 896 1408 l 1
 896 1288 l 1
 384 1288 l 1
 384 796 l 1
 394 796 l 1
 453 864 514 912 612 912 c 0
 837.963602134 912 928 732.149845716 928 447 c 0
 928 130.329746525 803.823691389 -16 560 -16 c 0
 447.694267516 -16 338.292993631 1.01960784314 256 15 c 1
 256 137 l 1
EndSplineSet
Validated: 1
Layer: 2
EndChar
StartChar: six
Encoding: 54 54 76
GlifName: six
Width: 1024
VWidth: 0
Flags: W
HStem: -16 120<465.845 718.248> 792 120<474.63 718.768> 1304 120<495.252 832>
VStem: 256 128<200.073 695.927 787 1184.05> 800 128<198.179 698.523>
LayerCount: 4
Back
SplineSet
592 104 m 4
 779 104 800 261 800 448 c 4
 800 635 779 792 592 792 c 4
 405 792 384 635 384 448 c 4
 384 261 405 104 592 104 c 4
618 1424 m 4
 679 1424 749 1419 832 1408 c 5
 832 1288 l 5
 746 1300 674 1304 618 1304 c 4
 517 1304 452 1256 416 1173 c 4
 384 1100 384 998 384 896 c 6
 384 787 l 5
 394 787 l 5
 449 872 514 912 612 912 c 4
 760 912 857 829 900 712 c 4
 928 635 928 550 928 448 c 4
 928 366 928 271 896 184 c 4
 853 67 750 -16 592 -16 c 4
 434 -16 332 67 288 184 c 4
 263 251 256 321 256 415 c 6
 256 896 l 6
 256 1017 258 1122 296 1215 c 4
 343 1330 449 1424 618 1424 c 4
EndSplineSet
Fore
SplineSet
592 104 m 0
 779 104 800 261 800 448 c 0
 800 635 779 792 592 792 c 0
 405 792 384 635 384 448 c 0
 384 261 405 104 592 104 c 0
638 1424 m 0
 693.299065421 1424 756.757009346 1422.125 832 1418 c 1
 832 1298 l 1
 754.037383178 1302.5 688.76635514 1304 638 1304 c 0
 527 1304 452.914786562 1257.21185684 416 1173 c 0
 384 1100 384 998 384 896 c 2
 384 787 l 1
 394 787 l 1
 449 872 514 912 612 912 c 0
 760 912 857 829 900 712 c 0
 928 635 928 550 928 448 c 0
 928 366 928 271 896 184 c 0
 853 67 750 -16 592 -16 c 0
 434 -16 332 67 288 184 c 0
 263 251 256 321 256 415 c 2
 256 896 l 2
 256 1017 258 1122 296 1215 c 0
 343.419541109 1331.05308745 458.50310559 1424 638 1424 c 0
EndSplineSet
Validated: 1
Layer: 2
Layer: 3
EndChar
StartChar: seven
Encoding: 55 55 77
GlifName: seven
Width: 1024
VWidth: 0
Flags: W
HStem: 0 21G<353 617.242> 1168 240<206 661>
LayerCount: 4
Back
Fore
SplineSet
206 1408 m 1
 926 1408 l 1
 926 1198 l 1
 612 0 l 1
 353 0 l 1
 661 1158 l 1
 661 1168 l 1
 206 1168 l 1
 206 1408 l 1
EndSplineSet
Validated: 1
Layer: 2
Layer: 3
EndChar
StartChar: eight
Encoding: 56 56 78
GlifName: eight
Width: 1024
VWidth: 0
Flags: W
HStem: -16 120<441.047 710.953> 648 120<453.638 698.362> 1304 120<453.715 698.285>
VStem: 224 128<203.395 551.395> 244 128<856.879 1213.73> 780 128<856.879 1213.73> 800 128<203.395 551.395>
LayerCount: 4
Back
Fore
SplineSet
780 1036 m 0xec
 780 1182 726 1304 576 1304 c 0
 426 1304 372 1182 372 1036 c 0
 372 890 426 768 576 768 c 4
 726 768 780 890 780 1036 c 0xec
407 716 m 5
 287 785 244 903 244 1036 c 0
 244 1249 352 1424 576 1424 c 0
 800 1424 908 1249 908 1036 c 0xec
 908 903 865 785 745 716 c 5
 745 706 l 5
 876 639 928 517 928 376 c 0
 928 157 805 -16 576 -16 c 0
 347 -16 224 157 224 376 c 0xf2
 224 517 276 639 407 706 c 5
 407 716 l 5
576 648 m 4
 420 648 352 529 352 376 c 0
 352 223 420 104 576 104 c 0
 732 104 800 223 800 376 c 0xf2
 800 529 732 648 576 648 c 4
EndSplineSet
Validated: 1
Layer: 2
Layer: 3
EndChar
StartChar: nine
Encoding: 57 57 79
GlifName: nine
Width: 1024
VWidth: 0
Flags: W
HStem: -16 240<292.767 604.943> 507 229<437.5 617.866> 1184 240<502.461 617.519>
VStem: 224 256<750.68 1170.19> 640 256<257.488 561 749.784 1169.58>
LayerCount: 4
Back
SplineSet
560 1304 m 4
 373 1304 352 1147 352 960 c 4
 352 773 373 616 560 616 c 4
 747 616 768 773 768 960 c 4
 768 1147 747 1304 560 1304 c 4
288 124 m 5
 387.025423729 110 474.584745763 104 534 104 c 4
 650 104 716.033738142 155.566494744 746 255 c 4
 768 328 768 430 768 532 c 6
 768 621 l 5
 758 621 l 5
 703 536 638 496 540 496 c 4
 392 496 295 579 252 696 c 4
 224 773 224 858 224 960 c 4
 224 1042 224 1137 256 1224 c 4
 299 1341 402 1424 560 1424 c 4
 718 1424 820 1341 864 1224 c 4
 889 1157 896 1087 896 993 c 6
 896 532 l 6
 896 411 894.5 306 866 213 c 4
 826.883081201 85.3553176033 712 -16 554 -16 c 4
 469.8359375 -16 392.9453125 -11 288 1 c 5
 288 124 l 5
EndSplineSet
Fore
SplineSet
560 1184 m 0
 488 1184 480 1082 480 960 c 0
 480 838 488 736 560 736 c 0
 632 736 640 838 640 960 c 0
 640 1082 632 1184 560 1184 c 0
288 244 m 1
 387 230 475 224 534 224 c 0
 635 224 640 364 640 532 c 2
 640 561 l 1
 630 561 l 1
 597 524 558 507 499 507 c 0
 376 507 292 586 252 696 c 0
 224 773 224 858 224 960 c 0
 224 1042 224 1137 256 1224 c 0
 299 1341 402 1424 560 1424 c 0
 718 1424 820 1341 864 1224 c 0
 889 1157 896 1087 896 993 c 2
 896 532 l 2
 896 411 894 306 866 213 c 0
 827 85 712 -16 554 -16 c 0
 470 -16 393 -11 288 1 c 1
 288 244 l 1
EndSplineSet
Validated: 1
Layer: 2
Layer: 3
EndChar
StartChar: colon
Encoding: 58 58 80
GlifName: colon
Width: 1024
VWidth: 0
Flags: W
HStem: 0 360<384 768> 664 360<384 768>
VStem: 384 384<0 360 664 1024>
LayerCount: 4
Back
Fore
SplineSet
384 360 m 1
 768 360 l 1
 768 0 l 1
 384 0 l 1
 384 360 l 1
384 1024 m 1
 768 1024 l 1
 768 664 l 1
 384 664 l 1
 384 1024 l 1
EndSplineSet
Validated: 1
Layer: 2
Layer: 3
Substitution2: "Single Substitution lookup 92 subtable" colon.2r
Substitution2: "Single Substitution lookup 91 subtable" colon.2l
Substitution2: "Single Substitution lookup 58 subtable" larsenwork7
EndChar
StartChar: semicolon
Encoding: 59 59 81
GlifName: semicolon
Width: 1024
VWidth: 0
Flags: W
HStem: -272 120<384 477.023> 128 256<384 512> 768 256<384 640>
VStem: 384 256<128 384 768 1024> 512 128<-105.261 128>
LayerCount: 3
Back
SplineSet
512 1040 m 0
 596.825 1040 656 980.965625 656 896 c 0
 656 811.034375 596.825 752 512 752 c 0
 427.175 752 368 811.034375 368 896 c 0
 368 980.965625 427.175 1040 512 1040 c 0
  Spiro
    512 1040 o
    586.969 1021.58 o
    637.552 971.032 o
    656 896 o
    637.552 820.968 o
    586.969 770.416 o
    512 752 o
    437.031 770.416 o
    386.448 820.968 o
    368 896 o
    386.448 971.032 o
    437.031 1021.58 o
    0 0 z
  EndSpiro
512 400 m 4
 605.825 400 656 340.965625 656 256 c 4
 656 171.034375 596.825 112 512 112 c 4
 427.175 112 368 171.034375 368 256 c 4
 368 340.965625 427.175 400 512 400 c 4
  Spiro
    512 400 o
    586.969 381.584 o
    637.552 331.032 o
    656 256 o
    637.552 180.968 o
    586.969 130.416 o
    512 112 o
    437.031 130.416 o
    386.448 180.968 o
    368 256 o
    386.448 331.032 o
    437.031 381.584 o
    0 0 z
  EndSpiro
EndSplineSet
Fore
SplineSet
384 1024 m 5xf0
 640 1024 l 5
 640 768 l 5
 384 768 l 5
 384 1024 l 5xf0
384 384 m 1
 640 384 l 1xf0
 640 23 l 2xe8
 640 -37 640 -107 588 -177 c 0
 546 -234 474 -272 384 -272 c 1
 384 -152 l 1xf0
 431 -152 463 -135 484 -107 c 0
 512 -70 512 -27 512 23 c 2
 512 128 l 1xe8
 384 128 l 1
 384 384 l 1
EndSplineSet
Validated: 1
Layer: 2
EndChar
StartChar: less
Encoding: 60 60 82
GlifName: less
Width: 1024
VWidth: 0
Flags: W
HStem: -17 21G<702.79 744>
LayerCount: 4
Back
SplineSet
565.234375 576 m 1
 990.21875 180.124023438 l 0
 1039.90234375 133.84375 1036.53515625 58.0419921875 995.338867188 14.9296875 c 0
 909.338867188 -75.0703125 l 0
 865.065429688 -121.403320312 781.953125 -134.963867188 723.2421875 -79.6201171875 c 0
 165.2421875 446.380859375 l 0
 140.93359375 469.294921875 128 504.780273438 128 531 c 0
 128 621 l 0
 128 653.318359375 145.520507812 687.029296875 165.2421875 705.620117188 c 0
 723.2421875 1231.62011719 l 0
 770.032226562 1275.7265625 853.786132812 1285.20703125 909.338867188 1227.0703125 c 0
 995.338867188 1137.0703125 l 0
 1042.07226562 1088.16308594 1034.015625 1012.67285156 990.21875 971.875976562 c 0
 565.234375 576 l 1
EndSplineSet
Fore
SplineSet
389 635 m 5
 900 159 l 5
 724 -17 l 5
 128 545 l 5
 128 735 l 5
 724 1297 l 5
 900 1121 l 5
 389 645 l 5
 389 635 l 5
EndSplineSet
Layer: 2
Layer: 3
EndChar
StartChar: equal
Encoding: 61 61 83
GlifName: equal
Width: 1024
VWidth: 0
Flags: W
HStem: 260 240<192 960> 772 240<192 960>
LayerCount: 4
Back
Fore
SplineSet
192 500 m 1
 960 500 l 5
 960 260 l 5
 192 260 l 1
 192 500 l 1
192 1012 m 1
 960 1012 l 5
 960 772 l 5
 192 772 l 1
 192 1012 l 1
EndSplineSet
Validated: 1
Layer: 2
Layer: 3
Substitution2: "Single Substitution lookup 68 subtable" larsenwork2
Substitution2: "Single Substitution lookup 67 subtable" greaterequalliga
Substitution2: "Single Substitution lookup 63 subtable" larsenwork8
Substitution2: "Single Substitution lookup 62 subtable" greatergreaterequal
Substitution2: "Single Substitution lookup 59 subtable" lessequalliga
Substitution2: "Single Substitution lookup 57 subtable" equal.after
Substitution2: "Single Substitution lookup 56 subtable" equalcolonequal
Substitution2: "Single Substitution lookup 54 subtable" larsenwork7
Substitution2: "Single Substitution lookup 53 subtable" leftarrowequallong
Substitution2: "Single Substitution lookup 52 subtable" larsenwork6
Substitution2: "Single Substitution lookup 49 subtable" larsenwork5
Substitution2: "Single Substitution lookup 48 subtable" larsenwork5
Substitution2: "Single Substitution lookup 46 subtable" equal.wide
Substitution2: "Single Substitution lookup 44 subtable" notequalliga
Substitution2: "Single Substitution lookup 42 subtable" notequaltypeliga
Substitution2: "Single Substitution lookup 41 subtable" larsenwork1
EndChar
StartChar: greater
Encoding: 62 62 84
GlifName: greater
Width: 1024
VWidth: 0
Flags: W
HStem: -17 21G<344 385.21>
LayerCount: 4
Back
Fore
SplineSet
188 1121 m 5
 364 1297 l 5
 960 735 l 5
 960 545 l 5
 364 -17 l 5
 188 159 l 5
 699 635 l 5
 699 645 l 5
 188 1121 l 5
EndSplineSet
Validated: 1
Layer: 2
Layer: 3
Substitution2: "Single Substitution lookup 67 subtable" greater2
Substitution2: "Single Substitution lookup 66 subtable" greater1
Substitution2: "Single Substitution lookup 46 subtable" ligaequalarrow
Substitution2: "Single Substitution lookup 43 subtable" larsenwork4
Substitution2: "Single Substitution lookup 35 subtable" ligaarrowright
Substitution2: "Single Substitution lookup 31 subtable" ligaarrowrighttwoheads
Substitution2: "Single Substitution lookup 30 subtable" larsenwork1
Substitution2: "Single Substitution lookup 25 subtable" ligaarrowrightlong
EndChar
StartChar: question
Encoding: 63 63 85
GlifName: question
Width: 1024
VWidth: 0
Flags: W
HStem: -16 346<460.16 691.84> 1184 240<281.365 629.627>
VStem: 403 346<41.1602 272.84> 448 256<512 683.154> 652 256<901.635 1158.38>
LayerCount: 4
Back
Fore
SplineSet
576 330 m 4xe0
 678 330 749 259 749 157 c 4
 749 55 678 -16 576 -16 c 4
 474 -16 403 55 403 157 c 4
 403 259 474 330 576 330 c 4xe0
448 512 m 5xd0
 448 608 448 699 547 811 c 4
 618 891 652 969 652 1072 c 4
 652 1144 609 1184 504 1184 c 4
 430 1184 344 1164 278 1147 c 5
 278 1387 l 5
 355 1405 450 1424 534 1424 c 4
 777 1424 908 1298 908 1092 c 4xc8
 908 932 864 839 771 721 c 4
 708 641 704 565 704 512 c 5
 448 512 l 5xd0
EndSplineSet
Validated: 1
Layer: 2
Layer: 3
EndChar
StartChar: at
Encoding: 64 64 86
GlifName: at
Width: 1024
VWidth: 0
Flags: W
HStem: 0 120<399.674 941.779> 368 120<583.655 794.331> 896 110<587.031 896> 1288 120<399.737 812.302>
VStem: 128 128<265.321 1142.68> 384 128<561.716 820.002> 896 128<384 507 586.711 896 1006 1201.41>
LayerCount: 4
Back
Fore
SplineSet
627 0 m 4
 567 0 501 0 433 17 c 4
 291 52 181 152 144 307 c 4
 128 374 128 436 128 495 c 6
 128 913 l 6
 128 972 128 1034 144 1101 c 4
 181 1256 291 1356 433 1391 c 4
 501 1408 567 1408 627 1408 c 4
 674 1408 726 1408 781 1394 c 4
 899 1364 982 1282 1011 1164 c 4
 1024 1112 1024 1061 1024 1016 c 6
 1024 384 l 5
 896 384 l 5
 896 507 l 5
 886 507 l 5
 830 419 763 368 668 368 c 4
 615 368 507 394 443 490 c 4
 409 541 384 608 384 685 c 4
 384 767 409 854 472 917 c 4
 562 1006 672 1006 734 1006 c 6
 896 1006 l 5
 896 1054 896 1100 886 1139 c 4
 868 1211 821 1259 748 1278 c 4
 714 1287 673 1288 627 1288 c 4
 568 1288 513 1287 466 1275 c 4
 362 1248 296 1180 269 1075 c 4
 256 1024 256 972 256 913 c 6
 256 495 l 6
 256 436 256 384 269 333 c 4
 295 228 362 160 466 133 c 4
 513 121 568 120 627 120 c 4
 726.2 120 835 128 947 141 c 5
 947 21 l 5
 836.066666667 8 733.666666667 0 627 0 c 4
896 805 m 6
 896 896 l 5
 732 896 l 6
 677 896 619 896 568 842 c 4
 532 804 512 746 512 687 c 4
 512 578 585 488 692 488 c 4
 782 488 844 548 874 619 c 4
 896 671 896 733 896 805 c 6
EndSplineSet
Validated: 1
Layer: 2
Layer: 3
EndChar
StartChar: A
Encoding: 65 65 29
GlifName: A_
Width: 1024
VWidth: 0
Flags: W
HStem: 0 21G<105 369.06 782.936 1047> 272 240<430.732 721.178> 1388 20G<306.941 845.059>
LayerCount: 4
Back
Fore
SplineSet
581 1191 m 5
 571 1191 l 5
 511.644039165 973.843823857 466.815196694 745.46299629 430.731875059 512 c 5
 721.177753381 512 l 5
 685.109958373 744.916515489 640.306418041 972.920880091 581 1191 c 5
396.687388312 272 m 5
 384.908065623 181.656269476 374.120093731 90.8750482498 364 0 c 5
 105 0 l 5
 160.525423729 481 235.881355932 963 378 1408 c 5
 774 1408 l 5
 916.118644068 963 991.474576271 481 1047 0 c 5
 788 0 l 5
 777.871717721 90.9485786678 767.074476033 181.709199489 755.284016462 272 c 5
 396.687388312 272 l 5
EndSplineSet
Validated: 1
Layer: 2
Layer: 3
EndChar
StartChar: B
Encoding: 66 66 30
GlifName: B_
Width: 1024
VWidth: 0
Flags: W
HStem: 0 240<384 702.893> 588 240<384 613.033> 1168 240<384 613.033>
VStem: 128 256<240 588 828 1168> 666 246<880.169 1115.15> 754 246<290.162 538.564>
LayerCount: 3
Back
SplineSet
384 588 m 1
 384 240 l 1
 523 240 l 2
 604 240 653.042759911 240.230792517 704 262 c 0
 733.464285714 274.587301587 754 321.063492063 754 384 c 0
 754 467.571428571 732.593779282 528.444749464 704 546 c 4
 659 584.5 604 588 523 588 c 2
 384 588 l 1
EndSplineSet
Fore
SplineSet
449 828 m 2xf8
 498 828 524 828 547 834 c 0
 617 851 666 911 666 998 c 0
 666 1084 617 1145 547 1161 c 0
 524 1166 498 1168 449 1168 c 2
 384 1168 l 1
 384 828 l 1
 449 828 l 2xf8
766 731 m 5
 915 690 1000 555 1000 384 c 0xf4
 1000 193 888 54 736 16 c 0
 672 0 608 0 523 0 c 2
 128 0 l 1
 128 1408 l 1
 449 1408 l 2
 526 1408 578 1408 633 1395 c 0
 792 1357 912 1222 912 1028 c 0
 912 890 865 794 766 741 c 5
 766 731 l 5
384 588 m 1
 384 240 l 1
 524 240 l 2
 577 240 614 240 644 248 c 0
 710 265 754 328 754 414 c 0
 754 500 710 564 644 580 c 0
 614 587 577 588 524 588 c 2
 384 588 l 1
EndSplineSet
Validated: 1
Layer: 2
Substitution2: "'ss01' Style Set 1 lookup 1 subtable" B.retina
Substitution2: "'ss01' Style Set 1 lookup 0 subtable" B.retina
EndChar
StartChar: C
Encoding: 67 67 31
GlifName: C_
Width: 1024
VWidth: 0
Flags: W
HStem: -16 240<506.846 1018.69> 1184 240<501.137 988.953>
VStem: 112 248<391.904 1018.94>
LayerCount: 4
Back
SplineSet
960 251 m 1
 960 11 l 1
 858.354330708 -3.59459459459 745.414698163 -16 629 -16 c 0
 364.282105263 -16 207.448046501 143.759232927 146 364 c 0
 114.193548387 478 112 594 112 704 c 0
 112 814 114.193548387 930 146 1044 c 0
 207.493799777 1264.40475498 357.157381166 1424 619 1424 c 0
 727.982905983 1424 833.421652421 1416.13793103 930 1405 c 1
 930 1165 l 1
 829.877492877 1176.13793103 718.236467236 1184 619 1184 c 0
 417.487450963 1184 368 949.951952267 368 704 c 0
 368 453.738255717 418.742589465 224 629 224 c 0
 734.989501312 224 854.879265092 236.405405405 960 251 c 1
EndSplineSet
Fore
SplineSet
1024 261 m 5
 1024 21 l 5
 913 1 790 -16 663 -16 c 4
 367 -16 201 142 143 364 c 4
 114 478 112 594 112 704 c 4
 112 814 114 930 143 1044 c 4
 202 1266 359 1424 653 1424 c 4
 772 1424 888 1412 994 1395 c 5
 994 1155 l 5
 885 1169.5 764 1184 656 1184 c 4
 492 1184 413 1091.4025974 381 954 c 4
 363 876 360 791 360 704 c 4
 360 617 363 532 381 454 c 4
 414 316.597402597 495 224 663 224 c 4
 779 224 909 243.085714286 1024 261 c 5
EndSplineSet
Validated: 1
Layer: 2
SplineSet
960 141 m 5
 960 21 l 5
 849.141732283 1 725.965879265 -16 599 -16 c 4
 339.08 -16 199.160206152 143.232293057 143 364 c 4
 114 478 112 594 112 704 c 4
 112 814 114 930 143 1044 c 4
 199.197133456 1264.91286945 332.104 1424 589 1424 c 4
 708.495726496 1424 824.105413105 1412 930 1395 c 5
 930 1275 l 5
 820.219373219 1292 697.809116809 1304 589 1304 c 4
 398.112 1304 311.94422979 1186.50361159 268 1016 c 4
 243 919 240 813 240 704 c 4
 240 595 243 489 268 392 c 4
 312.007799535 221.249737803 402.165333334 104 599 104 c 4
 714.595800525 104 845.351706037 121 960 141 c 5
EndSplineSet
Layer: 3
EndChar
StartChar: D
Encoding: 68 68 32
GlifName: D_
Width: 1024
VWidth: 0
Flags: W
HStem: 0 240<384 647.068> 1168 240<384 647.068>
VStem: 128 256<240 1168> 784 256<401.061 1006.94>
LayerCount: 4
Back
SplineSet
504 240 m 2
 665 240 764 256.594936709 829 278 c 1
 790.506024096 384 784 525 784 704 c 4
 784 800 673.132353896 898.397782094 886 982 c 0
 844 1087.15686275 725 1168 504 1168 c 0
 384 1168 l 1
 384 240 l 1
 504 240 l 2
504 1408 m 2
 608 1408 716.390832975 1378.57904555 807 1317 c 0
 910 1247 977.172575138 1137.04536151 1011 1008 c 0
 1038 905 1040 803 1040 704 c 0
 1040 605 1037.3275444 502.916764456 1011 400 c 0
 978 271 907.702609919 163.415359942 807 91 c 0
 718 27 609 0 504 0 c 0
 128 0 l 1
 128 1408 l 1
 504 1408 l 2
EndSplineSet
Fore
SplineSet
474 1408 m 6
 717 1408 859 1306 943 1171 c 4
 1025 1040 1040 877 1040 704 c 4
 1040 531 1025 368 943 237 c 4
 859 102 717 0 474 0 c 6
 128 0 l 5
 128 1408 l 5
 474 1408 l 6
784 704 m 4
 784 850 772 964 727 1040 c 4
 688 1107 624 1168 495 1168 c 6
 384 1168 l 5
 384 240 l 5
 495 240 l 6
 624 240 688 301 727 368 c 4
 772 444 784 558 784 704 c 4
EndSplineSet
Validated: 1
Layer: 2
Layer: 3
Substitution2: "'ss01' Style Set 1 lookup 1 subtable" D.retina
Substitution2: "'ss01' Style Set 1 lookup 0 subtable" D.retina
EndChar
StartChar: E
Encoding: 69 69 33
GlifName: E_
Width: 1024
VWidth: 0
Flags: W
HStem: 0 240<512 1024> 588 240<512 896> 1168 240<512 1024>
VStem: 256 256<240 588 828 1168>
LayerCount: 4
Back
Fore
SplineSet
256 1408 m 5
 1024 1408 l 5
 1024 1168 l 5
 512 1168 l 5
 512 828 l 5
 896 828 l 5
 896 588 l 5
 512 588 l 5
 512 240 l 5
 1024 240 l 5
 1024 0 l 5
 256 0 l 5
 256 1408 l 5
EndSplineSet
Validated: 1
Layer: 2
Layer: 3
EndChar
StartChar: F
Encoding: 70 70 34
GlifName: F_
Width: 1024
VWidth: 0
Flags: W
HStem: 0 21G<192 448> 580 240<448 832> 1168 240<448 960>
VStem: 192 256<0 580 820 1168>
AnchorPoint: "top" 576 1408 basechar 0
LayerCount: 4
Back
Fore
SplineSet
192 1408 m 5
 960 1408 l 5
 960 1168 l 5
 448 1168 l 5
 448 820 l 5
 832 820 l 5
 832 580 l 5
 448 580 l 5
 448 0 l 5
 192 0 l 5
 192 1408 l 5
EndSplineSet
Validated: 1
Layer: 2
Layer: 3
EndChar
StartChar: G
Encoding: 71 71 35
GlifName: G_
Width: 1024
VWidth: 0
Flags: W
HStem: -16 240<506.846 764.766> 528 240<640 768> 1184 240<501.137 988.953>
VStem: 112 248<391.904 1018.94> 640 384<528 768> 768 256<225.715 528>
AnchorPoint: "bottom" 704 0 basechar 0
AnchorPoint: "top" 640 1408 basechar 0
LayerCount: 4
Back
SplineSet
609 1424 m 4
 714 1424 817 1415 910 1402 c 5
 910 1282 l 5
 813 1295 705 1304 609 1304 c 4
 415 1304 312 1187 268 1016 c 4
 243 919 240 813 240 704 c 4
 240 595 243 489 268 392 c 4
 312 222 402 104 579 104 c 4
 660 104 747 113 832 128 c 5
 832 648 l 5
 576 648 l 5
 576 768 l 5
 960 768 l 5
 960 34 l 5
 843 6 713 -16 579 -16 c 4
 337 -16 199 144 143 364 c 4
 114 478 112 594 112 704 c 4
 112 814 114 930 143 1044 c 4
 199 1266 351 1424 609 1424 c 4
EndSplineSet
Fore
SplineSet
1024 21 m 1xf4
 913 1 790 -16 663 -16 c 0
 367 -16 201 142 143 364 c 0
 114 478 112 594 112 704 c 0
 112 814 114 930 143 1044 c 0
 202 1266 359 1424 653 1424 c 0
 772 1424 888 1412 994 1395 c 1
 994 1155 l 1
 885 1169.5 764 1184 656 1184 c 0
 492 1184 413 1091.4025974 381 954 c 0
 363 876 360 791 360 704 c 0
 360 617 363 532 381 454 c 0
 414 316.597402597 495 224 663 224 c 0
 697.038765144 224 732.283009291 225.643387701 768 228.418333251 c 1
 768 528 l 1xf4
 640 528 l 1
 640 768 l 1
 1024 768 l 1xf8
 1024 21 l 1xf4
EndSplineSet
Layer: 2
Layer: 3
EndChar
StartChar: H
Encoding: 72 72 36
GlifName: H_
Width: 1024
VWidth: 0
Flags: W
HStem: 0 21G<128 384 768 1024> 580 240<384 768> 1388 20G<128 384 768 1024>
VStem: 128 256<0 580 820 1408> 768 256<0 580 820 1408>
LayerCount: 3
Back
Fore
SplineSet
128 1408 m 1
 384 1408 l 1
 384 820 l 5
 768 820 l 5
 768 1408 l 1
 1024 1408 l 1
 1024 0 l 1
 768 0 l 1
 768 580 l 1
 384 580 l 1
 384 0 l 1
 128 0 l 1
 128 1408 l 1
EndSplineSet
Layer: 2
Substitution2: "'ss01' Style Set 1 lookup 1 subtable" H.retina
Substitution2: "'ss01' Style Set 1 lookup 0 subtable" H.retina
EndChar
StartChar: I
Encoding: 73 73 37
GlifName: I_
Width: 1024
VWidth: 0
Flags: W
HStem: 0 240<128 384 640 896> 1168 240<128 384 640 896>
VStem: 384 256<240 1168>
LayerCount: 3
Back
Fore
SplineSet
896 1408 m 1
 896 1168 l 1
 640 1168 l 1
 640 240 l 1
 896 240 l 1
 896 0 l 1
 128 0 l 5
 128 240 l 5
 384 240 l 5
 384 1168 l 5
 128 1168 l 5
 128 1408 l 5
 896 1408 l 1
EndSplineSet
Layer: 2
EndChar
StartChar: J
Encoding: 74 74 38
GlifName: J_
Width: 1024
VWidth: 0
Flags: W
HStem: -16 246.4<259.586 597.851> 1388 20G<640 896>
VStem: 640 256<270.322 1408>
LayerCount: 4
Back
SplineSet
896 512 m 2
 896 395 895 286 856 193 c 0
 808 79 706 -16 544 -16 c 0
 428 -16 335 -2 256 8 c 1
 256 249 l 5
 333 238 433 224 537 224 c 4
 636 224 700 228.114503817 736 235 c 0
 768 308 768 410 768 512 c 2
 768 1168 l 1
 256 1168 l 1
 256 1408 l 1
 896 1408 l 1
 896 512 l 2
EndSplineSet
Fore
SplineSet
640 1408 m 1
 896 1408 l 1
 896 512 l 2
 896 395 895.134158391 285.943626178 856 193 c 0
 808 79 706 -16 544 -16 c 0
 428 -16 335 -2 256 8 c 1
 256 247.900390625 l 1
 329.590405904 240.200390625 415.828996283 230.400390625 515 230.400390625 c 0
 570.050505051 230.400390625 606.560632612 262.402517574 624 318.099609375 c 0
 640 369.199712319 640 440.59985616 640 512 c 2
 640 1408 l 1
EndSplineSet
Validated: 1
Layer: 2
Layer: 3
EndChar
StartChar: K
Encoding: 75 75 39
GlifName: K_
Width: 1024
VWidth: 0
Flags: HW
HStem: 0 21G<128 384 774.251 1062> 1388 20G<128 384 697.744 969>
VStem: 128 256<0 478 876 1408>
LayerCount: 3
Back
SplineSet
384 0 m 5
 128 0 l 5
 128 1408 l 5
 384 1408 l 5
 384 876 l 5
 690 1408 l 5
 969 1408 l 5
 620 813 l 5
 1062 0 l 5
 765 0 l 5
 462 601 l 5
 384 478 l 5
 384 0 l 5
EndSplineSet
Fore
SplineSet
384 0 m 1
 128 0 l 1
 128 1408 l 1
 384 1408 l 1
 384 876 l 1
 690 1408 l 1
 969 1408 l 1
 620 813 l 1
 1062 0 l 1
 765 0 l 1
 442 611 l 1
 384 519 l 5
 384 0 l 1
EndSplineSet
Layer: 2
SplineSet
764 0 m 5
 26 1353 l 1029
1064 0 m 1
 326 1353 l 1025
698 1408 m 1
 85 364 l 1025
968 1408 m 1
 355 364 l 1025
EndSplineSet
EndChar
StartChar: L
Encoding: 76 76 40
GlifName: L_
Width: 1024
VWidth: 0
Flags: W
HStem: 0 240<512 1024> 1388 20G<256 512>
VStem: 256 256<240 1408>
LayerCount: 4
Back
Fore
SplineSet
256 0 m 1
 256 1408 l 1
 512 1408 l 1
 512 240 l 5
 1024 240 l 5
 1024 0 l 1
 256 0 l 1
EndSplineSet
Validated: 1
Layer: 2
Layer: 3
EndChar
StartChar: M
Encoding: 77 77 28
GlifName: M_
Width: 1024
VWidth: 0
Flags: W
HStem: 0 21G<128 384 768 1024> 1388 20G<128 392.539 759.507 1024>
VStem: 128 256<0 900> 768 256<0 896>
AnchorPoint: "top" 576 1408 basechar 0
LayerCount: 4
Back
SplineSet
256 0 m 5
 128 0 l 5
 128 1408 l 5
 256 1408 l 5
 571 780 l 5
 582 780 l 5
 896 1408 l 5
 1024 1408 l 5
 1024 0 l 5
 896 0 l 5
 896 1150 l 5
 886 1150 l 5
 631 640 l 5
 521 640 l 5
 266 1150 l 5
 256 1150 l 5
 256 0 l 5
EndSplineSet
Fore
SplineSet
384 0 m 1
 128 0 l 1
 128 1408 l 1
 384 1408 l 1
 571 970 l 1
 582 970 l 1
 768 1408 l 1
 1024 1408 l 1
 1024 0 l 1
 768 0 l 1
 768 896 l 1
 758 896 l 1
 631 640 l 1
 521 640 l 1
 394 900 l 1
 384 900 l 1
 384 0 l 1
EndSplineSet
Validated: 1
Layer: 2
Layer: 3
EndChar
StartChar: N
Encoding: 78 78 41
GlifName: N_
Width: 1024
VWidth: 0
Flags: W
HStem: 0 21G<128 384 759.67 1024> 1388 20G<128 391.352 768 1024>
VStem: 128 256<0 898> 768 256<510 1408>
LayerCount: 4
Back
SplineSet
256 0 m 5
 128 0 l 5
 128 1408 l 5
 255 1408 l 5
 886 250 l 5
 896 250 l 5
 896 1408 l 5
 1024 1408 l 5
 1024 0 l 5
 896 0 l 5
 266 1158 l 5
 256 1158 l 5
 256 0 l 5
EndSplineSet
Fore
SplineSet
384 0 m 1
 128 0 l 1
 128 1408 l 1
 383 1408 l 1
 758 510 l 1
 768 510 l 1
 768 1408 l 1
 1024 1408 l 1
 1024 0 l 1
 768 0 l 1
 394 898 l 1
 384 898 l 1
 384 0 l 1
EndSplineSet
Validated: 1
Layer: 2
Layer: 3
EndChar
StartChar: O
Encoding: 79 79 42
GlifName: O_
Width: 1024
VWidth: 0
Flags: W
HStem: -16 240<470.193 681.807> 1184 240<470.193 681.807>
VStem: 112 256.045<355.825 1052.18> 783.955 256.045<355.825 1052.18>
LayerCount: 4
Back
SplineSet
368 704 m 0
 368 588 243 478 265 382 c 0
 301 235 396 224 576 224 c 4
 756 224 851 235 887 382 c 0
 909 478 784 588 784 704 c 0
 784 820 909 930 887 1026 c 0
 851 1173 756 1184 576 1184 c 0
 396 1184 301 1173 265 1026 c 0
 243 930 368 820 368 704 c 0
112 704 m 0
 112 831 114 950 140 1053 c 0
 189 1253 331 1424 576 1424 c 0
 821 1424 963 1253 1012 1053 c 0
 1038 950 1040 831 1040 704 c 0
 1040 577 1038 458 1012 355 c 0
 963 155 821 -16 576 -16 c 0
 331 -16 189 155 140 355 c 0
 114 458 112 577 112 704 c 0
EndSplineSet
Fore
SplineSet
368.044921875 704 m 4
 368.044921875 611 369.039908854 523 382.969726562 446 c 4
 404.859757571 328 464.559842139 224 576 224 c 4
 687.440157861 224 747.140242429 328 769.030273438 446 c 4
 782.960091146 523 783.955078125 611 783.955078125 704 c 4
 783.955078125 797 782.960091146 885 769.030273438 962 c 4
 747.140242429 1080 687.440157861 1184 576 1184 c 4
 464.559842139 1184 404.859757571 1080 382.969726562 962 c 4
 369.039908854 885 368.044921875 797 368.044921875 704 c 4
112 704 m 4
 112 831 114 950 140 1053 c 4
 189 1253 331 1424 576 1424 c 4
 821 1424 963 1253 1012 1053 c 4
 1038 950 1040 831 1040 704 c 4
 1040 577 1038 458 1012 355 c 4
 963 155 821 -16 576 -16 c 4
 331 -16 189 155 140 355 c 4
 114 458 112 577 112 704 c 4
EndSplineSet
Validated: 1
Layer: 2
Layer: 3
EndChar
StartChar: P
Encoding: 80 80 43
GlifName: P_
Width: 1024
VWidth: 0
Flags: W
HStem: 0 21G<128 384> 520 240<384 707.324> 1168 240<384 707.324>
VStem: 128 256<0 520 760 1168> 784 256<834.545 1093.46>
AnchorPoint: "top" 576 1408 basechar 0
LayerCount: 4
Back
SplineSet
577 760 m 2
 653 760 693 762 729 770 c 0
 761.459016393 794 784 890 784 1024 c 0
 784 1158 761.459016393 1254 729 1278 c 0
 693 1168 653 1168 577 1168 c 2
 384 1168 l 1
 384 760 l 1
 577 760 l 2
384 0 m 1
 128 0 l 1
 128 1408 l 1
 577 1408 l 2
 654 1408 706 1408 761 1395 c 0
 920 1357 1040 1220 1040 1024 c 0
 1040 828 920 691 761 653 c 0
 706 520 654 520 577 520 c 6
 384 520 l 5
 384 0 l 1
EndSplineSet
Fore
SplineSet
384 1168 m 1
 384 760 l 1
 510.243164062 760 l 2
 572.400390625 760 605.46274518 762 634.557617188 768 c 0
 723.165047705 787 784 861 784 964 c 0
 784 1067 723.165047705 1141 634.557617188 1160 c 0
 605.46274518 1166 572.400390625 1168 510.243164062 1168 c 2
 384 1168 l 1
128 1408 m 1
 507.549804688 1408 l 2
 596.10004989 1408 655.900215481 1408 719.150390625 1393 c 0
 902.000168011 1349 1040 1191 1040 964 c 0
 1040 737 902.000168011 579 719.150390625 535 c 0
 655.900215481 520 596.10004989 520 507.549804688 520 c 2
 384 520 l 1
 384 0 l 1
 128 0 l 1
 128 1408 l 1
EndSplineSet
Layer: 2
Layer: 3
EndChar
StartChar: Q
Encoding: 81 81 44
GlifName: Q_
Width: 1024
VWidth: 0
Flags: W
HStem: -272 241<800.571 1024> 1184 240<470.309 681.691>
VStem: 112 256<355.031 1052.18> 784 256<386.286 1052.18>
AnchorPoint: "top" 576 1408 basechar 0
LayerCount: 4
Back
SplineSet
383.840820312 244.822265625 m 0
 383.94921875 247.603515625 384 251.418945312 384 256 c 0
 384 504 l 1
 768 504 l 1
 768 256 l 0
 768 244.16015625 768.901367188 207.953125 753.182617188 170.846679688 c 1
 766.573242188 101.763671875 l 1
 776.458984375 67.013671875 783.330078125 40.7001953125 790.366210938 24.6728515625 c 0
 811.474609375 -23.4072265625 826.311523438 -32 871 -32 c 0
 919.678710938 -32 969.6640625 -27.525390625 1011.16699219 -23.6044921875 c 0
 1152 -10.2998046875 l 1
 1152 -372.560546875 l 1
 1035.61816406 -382.504882812 l 0
 993.376953125 -386.114257812 935.780273438 -392 864 -392 c 0
 640.359375 -392 493.604492188 -253.931640625 432.63671875 -106.33203125 c 0
 414.409179688 -62.203125 400.704101562 -21.3623046875 387.545898438 26.90234375 c 1
 363.958007812 124.69140625 333.874023438 133.321289062 370.115234375 221.375 c 1
 370.897460938 225.74609375 l 1
 375.0546875 231.248046875 l 2
 375.8203125 232.515625 383.030273438 243.637695312 383.840820312 244.822265625 c 0
EndSplineSet
Fore
SplineSet
112 704 m 0
 112 831 114 950 140 1053 c 0
 189 1253 331 1424 576 1424 c 0
 821 1424 963 1253 1012 1053 c 0
 1038 950 1040 831 1040 704 c 0
 1040 577 1038 458 1015 355 c 0
 983 218 904 98 786 34 c 1
 814 -31 838 -31 898 -31 c 0
 929 -31 976 -28 1024 -26 c 1
 1024 -266 l 1
 970 -270 917 -272 866 -272 c 0
 774 -272 675 -243 601 -148 c 0
 562 -97 548 -53 533 -14 c 1
 306 6 187 172 140 355 c 0
 114 458 112 577 112 704 c 0
368 704 m 0
 368 611 369 523 383 446 c 0
 400 353 441 269 512 237 c 1
 512 384 l 1
 753 384 l 1
 782 473 784 585 784 704 c 0
 784 797 783 885 769 962 c 0
 747 1080 687 1184 576 1184 c 0
 465 1184 405 1080 383 962 c 0
 369 885 368 797 368 704 c 0
EndSplineSet
Validated: 1
Layer: 2
SplineSet
112 704 m 4
 112 831 114 950 140 1053 c 4
 189 1253 331 1424 576 1424 c 4
 821 1424 963 1253 1012 1053 c 4
 1038 950 1040 831 1040 704 c 4
 1040 577 1038 458 1015 355 c 4
 980.509549061 214.222649229 899.44618127 87.813538763 768.322443508 25.2945028195 c 5
 774.152584886 -26.8938663037 830.71921317 -34 928 -34 c 4
 957 -34 990 -32 1024 -30 c 5
 1024 -270 l 5
 980 -273 937 -274 896 -274 c 4
 768 -274 634 -255 552 -147 c 4
 521.238344455 -106.013861094 514.109058155 -51.1400582862 512.047026523 -11.9090662274 c 5
 306.075877514 15.1674823824 184.568468227 173.087884789 140 355 c 4
 114 458 112 577 112 704 c 4
368 704 m 4
 368 611 369 523 383 446 c 4
 400.323233136 353.084476815 441.207597345 268.849370341 512 237.234808552 c 5
 512 384 l 5
 753.296192788 384 l 5
 782.44541995 472.728900042 784 584.690380344 784 704 c 4
 784 797 783 885 769 962 c 4
 747 1080 687 1184 576 1184 c 4
 465 1184 405 1080 383 962 c 4
 369 885 368 797 368 704 c 4
EndSplineSet
Layer: 3
EndChar
StartChar: R
Encoding: 82 82 45
GlifName: R_
Width: 1024
VWidth: 0
Flags: W
HStem: 0 21G<128 384 785.845 1065> 520 240<384 606.565> 1168 240<384 708.547>
VStem: 128 256<0 520 760 1168> 784 256<835.409 1093.59>
LayerCount: 3
Back
Fore
SplineSet
384 0 m 5
 128 0 l 5
 128 1408 l 5
 507.549804688 1408 l 6
 596.10004989 1408 655.949957125 1408.2082169 719.150390625 1393 c 4
 902.000168011 1349 1040 1191 1040 964 c 4
 1040 792.990962419 961.763063825 660.799394916 844.930172056 587.437389332 c 5
 1065 0 l 5
 793 0 l 5
 606.56476665 521.121569466 l 5
 577.057332992 520 544.854893155 520 507.549804688 520 c 6
 384 520 l 5
 384 0 l 5
510.243164062 760 m 6
 572.400390625 760 605.510799393 761.771520798 634.557617188 768 c 4
 723.165047705 787 784 861 784 964 c 4
 784 1067 723.311637269 1141.69697669 634.557617188 1160 c 4
 605.46274518 1166 572.400390625 1168 510.243164062 1168 c 6
 384 1168 l 5
 384 760 l 5
 510.243164062 760 l 6
EndSplineSet
Layer: 2
EndChar
StartChar: S
Encoding: 83 83 46
GlifName: S_
Width: 1024
VWidth: 0
Flags: HW
HStem: -16 120<255.397 791.108> 1304 120<465.842 984.716>
VStem: 226 128<901.718 1191.49> 926 128<234.474 532.211>
LayerCount: 3
Back
SplineSet
51.3251953125 104.5078125 m 1
 123.844726562 334.676757812 l 1
 246.6015625 300.68359375 l 0
 245.642578125 300.94921875 246.6015625 301.62109375 246.6015625 300.68359375 c 1
 298.711914062 286.25390625 351.186523438 273.377929688 403.903320312 262.0859375 c 0
 443.303710938 253.649414062 482.133789062 246.102539062 520.421875 240.005859375 c 0
 558.603515625 233.92578125 591.908203125 230.048828125 623.2578125 229.999023438 c 1
 654.717773438 229.999023438 681.30078125 234.411132812 702.841796875 242.799804688 c 0
 723.953125 251.020507812 744.147460938 264.981445312 759.622070312 283.616210938 c 0
 784.109375 313.104492188 801.482421875 360.8984375 801.482421875 413.073242188 c 0
 801.482421875 452.689453125 791.381835938 491.28515625 775.19140625 519.287109375 c 0
 759.541015625 546.354492188 735.37890625 566.66796875 711.225585938 577.20703125 c 0
 687.579101562 587.524414062 650.969726562 593.857421875 599.237304688 601.696289062 c 0
 546.0390625 609.756835938 477.129882812 621.682617188 408.883789062 661.563476562 c 0
 346.118164062 698.240234375 296.834960938 752.057617188 265.063476562 815.255859375 c 0
 234.063476562 876.921875 220.85546875 943.227539062 220.85546875 1007.8984375 c 0
 220.85546875 1111.54199219 254.79296875 1219.2421875 333.440429688 1300.9765625 c 0
 371.887695312 1340.93359375 418.756835938 1371.58105469 470.233398438 1391.1640625 c 0
 521.584960938 1410.69921875 573.545898438 1417.92285156 622.466796875 1418 c 1
 672.326171875 1418 714.81640625 1411.48242188 754.479492188 1403.84863281 c 0
 792.59765625 1396.51367188 829.087890625 1387.66210938 864.186523438 1378.52441406 c 0
 934.922851562 1360.10644531 1004.39746094 1339.16308594 1072.79003906 1316.81347656 c 0
 1193.65722656 1277.31445312 l 1
 1109.39453125 1050.68847656 l 1
 988.526367188 1090.18652344 l 0
 924.090820312 1111.24414062 859.834960938 1130.57324219 795.680664062 1147.27636719 c 0
 763.697265625 1155.60351562 732.814453125 1163.01367188 703.004882812 1168.75 c 0
 672.184570312 1174.68261719 646.379882812 1178 622.681640625 1178 c 1
 600.915039062 1177.96582031 581.844726562 1174.61621094 566.489257812 1168.77539062 c 0
 551.260742188 1162.98144531 536.131835938 1153.3203125 523.530273438 1140.22265625 c 0
 497.57421875 1113.24902344 476.85546875 1062.29980469 476.85546875 1007.8984375 c 0
 476.85546875 974.428710938 484.325195312 942.057617188 496.633789062 917.575195312 c 0
 508.524414062 893.922851562 526.791992188 875.46875 544.299804688 865.237304688 c 0
 563.723632812 853.88671875 594.671875 845.502929688 640.086914062 838.62109375 c 0
 686.971679688 831.516601562 750.512695312 824.786132812 819.249023438 794.79296875 c 0
 894.9453125 761.764648438 958.708984375 705.51171875 1000.25390625 633.658203125 c 0
 1040.15722656 564.641601562 1057.48242188 488.012695312 1057.48242188 413.073242188 c 0
 1057.48242188 315.51171875 1028.0546875 216.182617188 961.624023438 136.184570312 c 0
 918.368164062 84.0927734375 862.509765625 45.095703125 801.041015625 21.1591796875 c 0
 740.303710938 -2.4951171875 679.599609375 -10.0009765625 623.040039062 -10.0009765625 c 1
 568.967773438 -9.9150390625 521.987304688 -3.6806640625 477.5546875 3.39453125 c 0
 433.083007812 10.4755859375 389.559570312 18.9765625 346.897460938 28.1123046875 c 0
 288.916992188 40.53125 231.299804688 54.6708984375 174.08203125 70.5146484375 c 0
 51.3251953125 104.5078125 l 1
  Spiro
    51.3252 104.508 v
    123.845 334.677 v
    246.602 300.684 [
    246.175 301.01 o
    246.389 301.159 o
    246.602 300.684 v
    298.776 286.786 o
    351.324 273.892 o
    403.903 262.086 o
    443.076 253.975 o
    481.991 246.558 o
    520.422 240.006 o
    557.051 234.725 o
    591.181 231.262 o
    623.258 229.999 v
    653.058 231.451 o
    679.651 235.758 o
    702.842 242.8 o
    723.487 252.882 o
    742.733 266.594 o
    759.622 283.616 o
    781.339 318.651 o
    796.082 362.922 o
    801.482 413.073 o
    798.27 451.957 o
    789.192 488.142 o
    775.191 519.287 o
    757.04 543.969 o
    735.043 563.538 o
    711.226 577.207 o
    683.211 586.391 o
    645.967 594.163 o
    599.237 601.696 o
    541.47 611.924 o
    476.678 630.133 o
    408.884 661.563 o
    350.815 703.619 o
    302.48 755.528 o
    265.063 815.256 o
    239.844 878.172 o
    225.419 942.98 o
    220.855 1007.9 o
    232.543 1111.68 o
    269.347 1211.79 o
    333.44 1300.98 o
    374.51 1337.73 o
    420.482 1367.98 o
    470.233 1391.16 o
    521.602 1406.77 o
    572.718 1415.35 o
    622.467 1418 v
    669.993 1416.03 o
    713.748 1410.9 o
    754.479 1403.85 o
    792.027 1396.06 o
    828.651 1387.51 o
    864.187 1378.52 o
    934.439 1359.33 o
    1004.1 1338.63 o
    1072.79 1316.81 ]
    1193.66 1277.31 v
    1109.39 1050.69 v
    988.526 1090.19 [
    924.212 1110.61 o
    859.807 1129.75 o
    795.681 1147.28 o
    764.094 1155.26 o
    733.143 1162.49 o
    703.005 1168.75 o
    673.776 1173.78 o
    647.164 1176.92 o
    622.682 1178 v
    601.871 1176.89 o
    583.028 1173.75 o
    566.489 1168.78 o
    551.399 1161.72 o
    536.87 1152.15 o
    523.53 1140.22 o
    499.914 1106.06 o
    483.176 1060.34 o
    476.855 1007.9 o
    479.243 975.078 o
    486.044 944.407 o
    496.634 917.575 o
    510.37 895.787 o
    526.82 878.082 o
    544.3 865.237 o
    567.647 854.831 o
    599.421 846.05 o
    640.087 838.621 o
    692.043 830.775 o
    752.733 817.89 o
    819.249 794.793 o
    890.52 754.353 o
    951.739 699.969 o
    1000.25 633.658 o
    1032.8 562.522 o
    1051.52 488.156 o
    1057.48 413.073 o
    1047.41 315.8 o
    1015.96 221.754 o
    961.624 136.185 o
    914.477 88.5736 o
    860.324 50.0093 o
    801.041 21.1592 o
    740.527 2.58145 o
    680.77 -7.18489 o
    623.04 -10.001 v
    571.213 -8.06573 o
    522.958 -3.19789 o
    477.555 3.39453 o
    433.44 10.9119 o
    389.807 19.2259 o
    346.897 28.1123 o
    289.097 41.0906 o
    231.374 55.2543 o
    174.082 70.5146 ]
    0 0 z
  EndSpiro
EndSplineSet
Fore
SplineSet
620 -16 m 0
 486 -16 366 -2 250 16 c 1
 250 260 l 1
 364 243 492 224 620 224 c 0
 748 224 798 292.577639752 798 405 c 0
 798 528.756941835 727.081632515 577.459229736 603.301757812 601 c 4
 381.968147086 643.09378701 226 779.752674169 226 1025 c 4
 226 1257.66226913 385 1424 620 1424 c 0
 756 1424 877 1411 990 1399 c 1
 990 1158 l 1
 878 1170 745 1184 620 1184 c 0
 522 1184 482 1130.23741007 482 1025 c 0
 482 900.892868751 536.461445122 858.30304466 659 835.809570312 c 4
 907.906416677 790.119704751 1054 631.676561395 1054 405 c 4
 1054 150.930174564 869 -16 620 -16 c 0
EndSplineSet
Layer: 2
SplineSet
620 -136 m 0
 476.442382812 -136 348.534179688 -120.922851562 229.09765625 -102.389648438 c 0
 165.99609375 -92.59765625 122 -37.794921875 122 16 c 0
 122 139 l 0
 122 174.717773438 136.690429688 278.581054688 271.258789062 257.333007812 c 0
 382.749023438 239.729492188 503.985351562 224 620 224 c 0
 738.338867188 224 798 275.4609375 798 385 c 0
 798 464.802734375 757.016601562 506.189453125 717.940429688 521.556640625 c 1
 656.35546875 546.40625 523.02734375 523.104492188 347.712890625 616.693359375 c 1
 198.166992188 696.358398438 98 855.430664062 98 1045 c 0
 98 1325.60742188 314.079101562 1544 620 1544 c 0
 764.811523438 1544 891.625976562 1530.07128906 1004.23730469 1518.25488281 c 0
 1071.0703125 1511.2421875 1118 1453.79296875 1118 1399 c 0
 1118 1278 l 0
 1118 1228.50976562 1085.66308594 1146.60449219 975.0234375 1158.82421875 c 0
 864.037109375 1171.08300781 735.298828125 1184 620 1184 c 0
 526.874023438 1184 482 1142.00878906 482 1045 c 0
 482 979.323242188 512.392578125 944.029296875 539.920898438 929.500976562 c 1
 589.10546875 903.40234375 707.765625 915.213867188 865.80078125 852.544921875 c 1
 1039.9453125 783.697265625 1182 614.346679688 1182 385 c 0
 1182 76.4541015625 932.713867188 -136 620 -136 c 0
EndSplineSet
EndChar
StartChar: T
Encoding: 84 84 47
GlifName: T_
Width: 1024
VWidth: 0
Flags: W
HStem: 0 21G<384 640> 1168 240<0 384 640 1024>
VStem: 384 256<0 1168>
LayerCount: 3
Back
Fore
SplineSet
1024 1408 m 5
 1024 1168 l 5
 640 1168 l 5
 640 0 l 5
 384 0 l 5
 384 1168 l 5
 0 1168 l 5
 0 1408 l 5
 1024 1408 l 5
EndSplineSet
Layer: 2
EndChar
StartChar: U
Encoding: 85 85 48
GlifName: U_
Width: 1024
VWidth: 0
Flags: W
HStem: -16 240<457.921 694.079> 1388 20G<128 384 768 1024>
VStem: 128 256<303.02 1408> 768 256<303.02 1408>
AnchorPoint: "top" 576 1408 basechar 0
LayerCount: 4
Back
SplineSet
128 1408 m 1
 366 1408 l 1
 366 512 l 2
 366 437 366 378 378 330 c 0
 399.214285714 196 473.142578125 224 576 224 c 4
 736 224 851 196 884 330 c 0
 896 378 896 437 896 512 c 2
 896 1408 l 1
 1024 1408 l 1
 1024 512 l 2
 1024 426 1024 371 1008 303 c 0
 964 118 797 -16 576 -16 c 0
 355 -16 187 118 144 303 c 0
 128 371 128 426 128 512 c 2
 128 1408 l 1
EndSplineSet
Fore
SplineSet
128 1408 m 1
 384 1408 l 1
 384 512 l 2
 384 459 384 418 391 384 c 0
 411 289 480 224 576 224 c 0
 672 224 741 289 761 384 c 0
 768 418 768 459 768 512 c 2
 768 1408 l 1
 1024 1408 l 1
 1024 512 l 2
 1024 426 1024 371 1008 303 c 0
 964 118 797 -16 576 -16 c 0
 355 -16 188 118 144 303 c 0
 128 371 128 426 128 512 c 2
 128 1408 l 1
EndSplineSet
Validated: 1
Layer: 2
Layer: 3
EndChar
StartChar: V
Encoding: 86 86 49
GlifName: V_
Width: 1024
VWidth: 0
Flags: W
HStem: 0 21G<306.941 845.059> 1388 20G<105 386.795 765.205 1047>
VStem: 105 259<1092.6 1408> 788 259<1092.6 1408>
LayerCount: 3
Back
SplineSet
-76.5400390625 1709.27734375 m 1
 302.540039062 1766.72167969 l 1
 352.540039062 1476.72167969 l 0
 408.083984375 1154.56542969 476.435546875 834.5859375 576 534.510742188 c 1
 676.122070312 836.26953125 743.874023438 1154.32226562 799.459960938 1476.72167969 c 0
 849.459960938 1766.72167969 l 1
 1228.54003906 1709.27734375 l 1
 1178.54003906 1419.27734375 l 0
 1093.24023438 924.540039062 977.923828125 420.517578125 750.888671875 -49.2822265625 c 0
 594.20703125 -373.499023438 401.111328125 -49.2822265625 401.111328125 -49.2822265625 c 0
 174.076171875 420.517578125 58.759765625 924.540039062 -26.5400390625 1419.27734375 c 0
 -76.5400390625 1709.27734375 l 1
EndSplineSet
Fore
SplineSet
581 217 m 5
 683.267857143 593.055155875 742.410714286 998.623501199 788 1408 c 5
 1047 1408 l 5
 991.474576271 927 916.118644068 445 774 0 c 5
 378 0 l 5
 235.881355932 445 160.525423729 927 105 1408 c 5
 364 1408 l 5
 409.589285714 998.623501199 468.732142857 591.151079137 571 217 c 5
 581 217 l 5
EndSplineSet
Layer: 2
EndChar
StartChar: W
Encoding: 87 87 50
GlifName: W_
Width: 1024
VWidth: 0
Flags: W
HStem: 0 21G<171.856 486.588 665.412 980.144> 1388 20G<119 373 779 1033>
VStem: 119 254<855.475 1408> 779 254<855.475 1408>
LayerCount: 4
Back
Fore
SplineSet
484 640 m 5
 668 640 l 5
 735 311 l 5
 745 311 l 5
 771.216796875 648.890625 779 1026.15625 779 1408 c 5
 1033 1408 l 5
 1033 935 1006.28808594 466 954 0 c 5
 670 0 l 5
 581 388 l 5
 571 388 l 5
 482 0 l 5
 198 0 l 5
 145.712230216 466 119 935 119 1408 c 5
 373 1408 l 5
 373 1026.15609349 380.78313253 648.890651085 407 311 c 5
 417 311 l 5
 484 640 l 5
EndSplineSet
Validated: 524289
Layer: 2
Layer: 3
Substitution2: "'ss08' Style Set 8 lookup 8 subtable" W.straight
EndChar
StartChar: X
Encoding: 88 88 51
GlifName: X_
Width: 1024
VWidth: 0
Flags: W
HStem: 0 21G<89 365.594 786.406 1063> 1388 20G<121 395.888 756.112 1031>
AnchorPoint: "top" 576 1408 basechar 0
LayerCount: 4
Back
SplineSet
576 1088.70605469 m 5
 803.921875 1528 l 5
 1239.2734375 1528 l 5
 801.42578125 717.215820312 l 5
 1275.96582031 -120 l 5
 836.943359375 -120 l 5
 576 355.010742188 l 5
 315.056640625 -120 l 5
 -123.965820312 -120 l 5
 350.57421875 717.215820312 l 5
 -87.2734375 1528 l 5
 348.078125 1528 l 5
 576 1088.70605469 l 5
EndSplineSet
Fore
SplineSet
571 944 m 1
 581 944 l 1
 764 1408 l 1
 1031 1408 l 1
 730 721 l 1
 730 711 l 1
 1063 0 l 1
 795 0 l 1
 581 498 l 1
 571 498 l 1
 357 0 l 1
 89 0 l 1
 422 711 l 1
 422 721 l 1
 121 1408 l 1
 388 1408 l 1
 571 944 l 1
EndSplineSet
Validated: 1
Layer: 2
Layer: 3
EndChar
StartChar: Y
Encoding: 89 89 52
GlifName: Y_
Width: 1024
VWidth: 0
Flags: W
HStem: 0 21G<448 704> 1388 20G<100 391.5 759.5 1052>
VStem: 448 256<0 684.651>
AnchorPoint: "top" 576 1408 basechar 0
LayerCount: 4
Back
SplineSet
-202.232421875 1847.28710938 m 5
 159.573242188 1967.90429688 l 5
 223.90234375 1798.30859375 l 4
 223.567382812 1799.19140625 223.90234375 1797.37109375 223.90234375 1798.30859375 c 5
 333.90234375 1508.30859375 l 4
 404.5625 1322.02441406 482.708984375 1139.81640625 576 976.2109375 c 5
 670.154296875 1141.33007812 747.35546875 1321.80664062 818.09765625 1508.30859375 c 4
 928.09765625 1798.30859375 l 5
 928.09765625 1797.37109375 927.762695312 1797.42480469 928.09765625 1798.30859375 c 4
 992.426757812 1967.90429688 l 5
 1354.23242188 1847.28710938 l 5
 1179.90234375 1387.69042969 l 4
 1068.74511719 1094.64160156 935.96484375 795.236328125 731.732421875 529.717773438 c 4
 576 327.25390625 l 5
 420.267578125 529.717773438 l 4
 216.03515625 795.236328125 83.2548828125 1094.64160156 -27.90234375 1387.69042969 c 4
 -202.232421875 1847.28710938 l 5
EndSplineSet
Fore
SplineSet
581 851 m 1
 648 1005 738 1229 781 1408 c 1
 1052 1408 l 1
 962 1132 858 857 704 616 c 1
 704 0 l 1
 448 0 l 1
 448 616 l 1
 294 857 190 1132 100 1408 c 1
 371 1408 l 1
 412 1229 508 1005 571 851 c 1
 581 851 l 1
EndSplineSet
Validated: 1
Layer: 2
SplineSet
1024 1408 m 5
 1024 1168 l 5
 640 1168 l 5
 640 0 l 5
 384 0 l 5
 384 1168 l 5
 0 1168 l 5
 0 1408 l 5
 1024 1408 l 5
EndSplineSet
Layer: 3
EndChar
StartChar: Z
Encoding: 90 90 53
GlifName: Z_
Width: 1024
VWidth: 0
Flags: W
HStem: 0 240<423 1024> 1168 240<148 709>
AnchorPoint: "top" 576 1408 basechar 0
LayerCount: 4
Back
SplineSet
148 1288 m 5
 148 1408 l 5
 1004 1408 l 5
 1004 1318 l 5
 293 130 l 5
 293 120 l 5
 1024 120 l 5
 1024 0 l 5
 128 0 l 5
 128 92 l 5
 839 1278 l 5
 839 1288 l 5
 148 1288 l 5
EndSplineSet
Fore
SplineSet
148 1168 m 1
 148 1408 l 1
 1004 1408 l 1
 1004 1198 l 1
 423 250 l 1
 423 240 l 1
 1024 240 l 1
 1024 0 l 1
 128 0 l 1
 128 212 l 1
 709 1158 l 1
 709 1168 l 1
 148 1168 l 1
EndSplineSet
Validated: 1
Layer: 2
Layer: 3
EndChar
StartChar: bracketleft
Encoding: 91 91 87
GlifName: bracketleft
Width: 1024
VWidth: 0
Flags: W
HStem: -128 240<512 896> 1296 240<512 896>
VStem: 256 640<-128 112 1296 1536> 256 256<112 1296>
LayerCount: 4
Back
Fore
SplineSet
256 1536 m 1xe0
 896 1536 l 1
 896 1296 l 1xe0
 512 1296 l 1
 512 112 l 1xd0
 896 112 l 1
 896 -128 l 1
 256 -128 l 1
 256 1536 l 1xe0
EndSplineSet
Validated: 1
Layer: 2
Layer: 3
EndChar
StartChar: backslash
Encoding: 92 92 26
GlifName: backslash
Width: 1024
VWidth: 0
Flags: W
LayerCount: 4
Back
Fore
SplineSet
793.2109375 -196.705078125 m 29
 122.27734375 1519.27636719 l 29
 358.7890625 1604.70605469 l 29
 1029.72265625 -111.275390625 l 29
 793.2109375 -196.705078125 l 29
EndSplineSet
Validated: 524289
Layer: 2
Layer: 3
EndChar
StartChar: bracketright
Encoding: 93 93 88
GlifName: bracketright
Width: 1024
VWidth: 0
Flags: MW
HStem: -128 240<256 640> 1296 240<256 640>
VStem: 640 256<112 1296>
LayerCount: 4
Back
Fore
SplineSet
256 1536 m 5
 896 1536 l 1
 896 -128 l 1
 256 -128 l 1
 256 112 l 1
 640 112 l 1
 640 1296 l 1
 256 1296 l 1
 256 1536 l 5
EndSplineSet
Validated: 1
Layer: 2
Layer: 3
EndChar
StartChar: asciicircum
Encoding: 94 94 89
GlifName: asciicircum
Width: 1024
VWidth: 0
Flags: W
HStem: 896 512
LayerCount: 4
Back
SplineSet
76.9755859375 925.673828125 m 0
 129.586914062 1118.94335938 221.873046875 1314.85839844 403.984375 1491.41601562 c 0
 428.497070312 1515.18261719 466.403320312 1528 496 1528 c 0
 656 1528 l 0
 691.263671875 1528 727.442382812 1511.36230469 748.015625 1491.41601562 c 0
 930.125 1314.86035156 1022.41308594 1118.94140625 1075.02441406 925.673828125 c 0
 1079.34375 909.80859375 1119.48339844 776 951 776 c 0
 816 776 l 0
 759.059570312 776 707.78515625 812.749023438 692.6484375 863.953125 c 0
 663.036132812 964.1328125 623.797851562 1051.96386719 576 1126.06933594 c 1
 527.369140625 1050.67285156 488.995117188 964.23828125 459.3515625 863.953125 c 0
 444.14453125 812.509765625 392.67578125 776 336 776 c 0
 201 776 l 0
 183.534179688 776 35.3125 772.626953125 76.9755859375 925.673828125 c 0
EndSplineSet
Fore
SplineSet
201 896 m 1
 250 1076 332 1249 496 1408 c 1
 656 1408 l 1
 820 1249 902 1076 951 896 c 1
 686 896 l 1
 658 991 622 1078 576 1155 c 1
 530 1078 494 991 466 896 c 1
 201 896 l 1
EndSplineSet
Validated: 1
Layer: 2
Layer: 3
EndChar
StartChar: underscore
Encoding: 95 95 90
GlifName: underscore
Width: 1024
VWidth: 0
Flags: W
HStem: -120 120<128 1024>
LayerCount: 3
Back
Fore
SplineSet
128 0 m 5
 1024 0 l 5
 1024 -120 l 5
 128 -120 l 5
 128 0 l 5
EndSplineSet
Validated: 1
Layer: 2
EndChar
StartChar: grave
Encoding: 96 96 27
GlifName: grave
Width: 1024
VWidth: 0
Flags: W
HStem: 1024 384
VStem: 359 304
LayerCount: 3
Back
Fore
SplineSet
663 1024 m 1
 525 1024 l 1
 359 1408 l 1
 497 1408 l 1
 663 1024 l 1
EndSplineSet
Validated: 1
Layer: 2
EndChar
StartChar: a
Encoding: 97 97 2
GlifName: a
Width: 1024
VWidth: 0
Flags: W
HStem: -16 240.009<418.671 602.805> 0 21G<640 896> 421 219<495.809 640> 798.8 241.2<323.914 636.549>
VStem: 224 256<230.927 409.617> 640 256<0 53 244.748 421 640 794.879>
AnchorPoint: "top" 576 1024 basechar 0
LayerCount: 4
Back
Fore
SplineSet
640 421 m 1xbc
 572 421 l 2
 505.998510372 421 480 382.603917787 480 303 c 0
 480 259.733457326 501.461538462 224.008789062 542 224.008789062 c 0
 637.508474576 224.008789062 640 336.452088648 640 398 c 2
 640 421 l 1xbc
608 1040 m 0
 704 1040 805 1021 866 913 c 0
 896 860 896 785 896 749 c 2
 896 0 l 1
 640 0 l 1x7c
 640 53 l 1
 630 53 l 1
 593.648 9.31654676259 549.912 -16 488 -16 c 0
 351.126760563 -16 224 116 224 301 c 0
 224 387 250 476 312 543 c 0
 402 639 512 640 574 640 c 2
 640 640 l 1
 640 744 l 2
 640 767.986668375 617.00956686 798.799804688 579 798.799804688 c 0
 510.697931195 798.799804688 399.138888889 788.609421503 320 779.5 c 1
 320 1021 l 1
 407 1031 516 1040 608 1040 c 0
EndSplineSet
Layer: 2
Layer: 3
EndChar
StartChar: c
Encoding: 99 99 3
GlifName: c
Width: 1024
VWidth: 0
Flags: W
HStem: -16 240<522.909 891.341> 800 240<522.909 881.625>
VStem: 224 256<265.223 758.777>
AnchorPoint: "bottom" 704 0 basechar 0
AnchorPoint: "top" 576 1024 basechar 0
LayerCount: 4
Back
SplineSet
224 512 m 0
 224 633 226 738 267 831 c 0
 317 946 418 1040 606 1040 c 0
 709 1040 786 1031.81818182 876 1023 c 1
 876 783 l 1
 785 791.818181818 702 800 606 800 c 0
 486 800 427 795.969465649 387 789 c 0
 480 716 480 614 480 512 c 0
 480 410 480 308 387 235 c 0
 427 228.030534351 486 224 606 224 c 4
 701 224 796 235 896 250 c 5
 896 10 l 1
 797 -5 708 -16 606 -16 c 0
 418 -16 317 78 267 193 c 0
 226 286 224 391 224 512 c 0
EndSplineSet
Fore
SplineSet
224 512 m 4
 224 633 226 738 267 831 c 4
 317 946 418 1040 606 1040 c 4
 713 1040 793 1032 886 1022 c 5
 886 782 l 5
 792 792 706 800 606 800 c 4
 546 800 517 766 497 707 c 4
 480 655 480 584 480 512 c 4
 480 440 480 369 497 317 c 4
 517 258 546 224 606 224 c 4
 701 224 796 235 896 250 c 5
 896 10 l 5
 797 -5 708 -16 606 -16 c 4
 418 -16 317 78 267 193 c 4
 226 286 224 391 224 512 c 4
EndSplineSet
Validated: 1
Layer: 2
Layer: 3
EndChar
StartChar: d
Encoding: 100 100 4
GlifName: d
Width: 1024
VWidth: 0
Flags: W
HStem: -16 240<415 596.907> 0 21G<640 896> 800 240<415 596.907> 1388 20G<640 896>
VStem: 224 256<246.236 777.764> 640 256<0 65 246.167 777.833 959 1408>
LayerCount: 4
Back
Fore
SplineSet
465 1040 m 4xbc
 528 1040 595 1018 632 959 c 5
 640 959 l 5
 640 1408 l 5
 896 1408 l 5
 896 0 l 5
 640 0 l 5x7c
 640 65 l 5
 632 65 l 5
 595 6 528 -16 465 -16 c 4
 365 -16 281 71 245 221 c 4
 224 311 224 400 224 512 c 4
 224 624 224 713 245 803 c 4
 281 953 365 1040 465 1040 c 4xbc
560 800 m 4
 523 800 500 749 490 693 c 4
 480 639 480 577 480 512 c 4
 480 447 480 385 490 331 c 4
 500 275 523 224 560 224 c 4xbc
 597 224 620 275 630 331 c 4
 640 385 640 447 640 512 c 4
 640 577 640 639 630 693 c 4
 620 749 597 800 560 800 c 4
EndSplineSet
Validated: 1
Layer: 2
Layer: 3
Substitution2: "Single Substitution lookup 48 subtable" larsenwork
EndChar
StartChar: e
Encoding: 101 101 5
GlifName: e
Width: 1024
VWidth: 0
Flags: W
HStem: -16 240<503.465 891.106> 392 220<481 672> 800 240<502.704 649.449>
VStem: 224 257<246.604 392 612 783.984> 672 256<612 780.735>
AnchorPoint: "top" 576 1024 basechar 0
LayerCount: 4
Back
SplineSet
576 800 m 0
 542.670050761 800 518.862944162 799.619834711 509 799 c 0
 488.48 751 485.24 693 482 632 c 1
 798 632 l 1
 794.759765625 693 791.51953125 751 771 799 c 0
 742.293945312 799.619834711 673.004882812 800 576 800 c 0
576 1040 m 0
 737.971679688 1040 849.264648438 951 891 839 c 0
 926.942382812 713.23853211 928 562.871559633 928 392 c 1
 480 392 l 5
 480 334.1875 480 276.375 512 235 c 4
 549 227.946289062 490 224 596 224 c 0
 689 224 791 233 896 245 c 1
 896 5 l 1
 792 -7 696 -16 596 -16 c 0
 422 -16 311 77 264 193 c 0
 226 286 224 391 224 512 c 0
 224 637 225.057142857 747 261 839 c 0
 302.735015773 951 414.028391167 1040 576 1040 c 0
EndSplineSet
Fore
SplineSet
576 1040 m 0
 738 1040 847 950 891 839 c 0
 927 747 928 637 928 512 c 2
 928 392 l 1
 481 392 l 1
 481 350 482 308 496 277 c 0
 513 242 546 224 596 224 c 0
 689 224 791 233 896 244 c 1
 896 5 l 1
 792 -7 696 -16 596 -16 c 0
 422 -16 311 77 264 193 c 0
 226 286 224 391 224 512 c 0
 224 637 226 746 261 839 c 0
 303 951 414 1040 576 1040 c 0
576 800 m 0
 482 800 482 707 480 612 c 1
 672 612 l 1
 670 707 671 800 576 800 c 0
EndSplineSet
Validated: 1
Layer: 2
Layer: 3
EndChar
StartChar: f
Encoding: 102 102 6
GlifName: f
Width: 1024
VWidth: 0
Flags: W
HStem: 0 21G<384 640> 656 240<128 384 640 1024> 1184 240<642.372 1020.22>
VStem: 384 256<0 656 896 1181.3>
LayerCount: 4
Back
SplineSet
632 0 m 5
 384 0 l 1
 384 776 l 1
 128 776 l 1
 128 896 l 1
 384 896 l 1
 384 1129 l 2
 384 1181 384 1259 436 1329 c 0
 480 1388 561 1424 660 1424 c 0
 740 1424 834 1415 896 1408 c 1
 896 1168 l 1
 834 1175 737 1184 660 1184 c 0
 604 1184 563 1169 540 1139 c 0
 512 1136.15384615 512 1132.38461538 512 1129 c 2
 632 896 l 5
 896 896 l 1
 896 776 l 1
 632 776 l 5
 632 0 l 5
EndSplineSet
Fore
SplineSet
640 0 m 1
 384 0 l 1
 384 656 l 5
 128 656 l 5
 128 896 l 1
 384 896 l 1
 384 1129 l 2
 384 1181 384 1259 449 1329 c 0
 502 1388 599 1424 719 1424 c 0
 823 1424 944 1415 1024 1408 c 1
 1024 1168 l 1
 944 1174.95652174 818 1184 718 1184 c 0
 678 1184 640 1181 640 1129 c 2
 640 896 l 1
 1024 896 l 1
 1024 656 l 5
 640 656 l 5
 640 0 l 1
EndSplineSet
Validated: 1
Layer: 2
Layer: 3
EndChar
StartChar: g
Encoding: 103 103 7
GlifName: g
Width: 1024
VWidth: 0
Flags: MW
HStem: -272 240<272.991 598.964> 112 240.111<455.595 594.975> 799.889 240.111<455.595 594.975>
VStem: 224 255.915<370.492 781.508> 640.085 255.915<11.7498 193 370.399 781.601 959 1024>
AnchorPoint: "top" 576 1024 basechar 0
LayerCount: 4
Back
Fore
SplineSet
640 193 m 1
 630 192.923828125 l 1
 594.591796875 143.887695312 546.096679688 112 490 112 c 0
 421.189453125 112 361.974609375 136.095703125 319.4765625 193.016601562 c 0
 254.330078125 280.272460938 224 403.4140625 224 576 c 0
 224 748.586003068 254.330024558 871.727654728 319.4765625 958.983398438 c 0
 361.974777812 1015.90451045 421.189114871 1040 490 1040 c 0
 546.09691702 1040 594.592070026 1008.1123456 630 959.076171875 c 1
 640 959 l 1
 640 1024 l 1
 896 1024 l 1
 896 160 l 2
 896 100 895.983985433 -10.9904243671 835 -113 c 0
 778.494739403 -207.517890453 668.849498328 -272 506 -272 c 0
 416 -272 334 -265 270 -257 c 1
 270 -17 l 1
 333 -24 417 -32 506 -32 c 0
 610.502056994 -32 640 66 640 160 c 2
 640 193 l 1
479.915039062 576 m 0
 479.915039062 489.424032728 487.226363818 422.247778696 512.762695312 382.374023438 c 0
 524.831858545 363.528604666 540.793301085 352.111328125 560 352.111328125 c 0
 579.206698915 352.111328125 595.16746182 363.529407541 607.237304688 382.374023438 c 0
 632.775072407 422.246077183 640.084960938 489.424032728 640.084960938 576 c 0
 640.084960938 662.575967272 632.774388194 729.753492446 607.237304688 769.625976562 c 0
 595.167800684 788.470771684 579.206698915 799.888671875 560 799.888671875 c 0
 540.79328281 799.888671875 524.832192283 788.471249572 512.762695312 769.625976562 c 0
 487.225758966 729.752687855 479.915039062 662.575969829 479.915039062 576 c 0
EndSplineSet
Layer: 2
Layer: 3
EndChar
StartChar: h
Encoding: 104 104 8
GlifName: h
Width: 1024
VWidth: 0
Flags: W
HStem: 0 21G<256 512 640 896> 800 240<556.361 708.5> 1388 20G<256 512>
VStem: 256 256<0 764.683 962 1408> 640 256<0 764.691>
LayerCount: 3
Back
Fore
SplineSet
671 1040 m 4
 746 1040 806.373971512 995.2276625 844 933 c 4
 896 847 896 751 896 657 c 6
 896 0 l 5
 640 0 l 5
 640 657 l 6
 640 704 640.308033594 738.167211647 625 766 c 4
 614 786 597 800 576 800 c 4
 555 800 537.778654161 786.120154435 527 766 c 4
 512 738 512 704 512 657 c 6
 512 0 l 5
 256 0 l 5
 256 1408 l 5
 512 1408 l 5
 512 962 l 5
 519 962 l 5
 556 1008.921875 614 1040 671 1040 c 4
EndSplineSet
Layer: 2
EndChar
StartChar: i
Encoding: 105 105 9
GlifName: i
Width: 1024
VWidth: 0
Flags: MW
HStem: 0 21G<512 768> 656 240<266 512> 1067 314<465.635 686.365>
VStem: 512 256<0 656>
LayerCount: 4
Back
Fore
SplineSet
512 0 m 1
 512 656 l 1
 266 656 l 1
 266 896 l 1
 768 896 l 1
 768 0 l 1
 512 0 l 1
576 1381 m 4
 668 1381 733 1316 733 1224 c 4
 733 1132 668 1067 576 1067 c 4
 484 1067 419 1132 419 1224 c 4
 419 1316 484 1381 576 1381 c 4
EndSplineSet
Layer: 2
Layer: 3
Substitution2: "'ss07' Style Set 7 lookup 58 subtable" i.flyingdot
EndChar
StartChar: j
Encoding: 106 106 10
GlifName: j
Width: 1024
VWidth: 0
Flags: MW
HStem: -272 240<174.991 480.058> 656 240<266 512> 1047 354<457.741 694.259>
VStem: 512 256<-2.32899 656>
LayerCount: 4
Back
Fore
SplineSet
576 1401 m 4
 679.719745223 1401 753 1327.71974522 753 1224 c 4
 753 1120.28025478 679.719745223 1047 576 1047 c 4
 472.280254777 1047 399 1120.28025478 399 1224 c 4
 399 1327.71974522 472.280254777 1401 576 1401 c 4
512 160 m 2
 512 656 l 1
 266 656 l 1
 266 896 l 1
 768 896 l 1
 768 160 l 2
 768 100 768 -11 707 -113 c 0
 652 -205 556 -272 408 -272 c 0
 318 -272 236 -265 172 -257 c 1
 172 -17 l 1
 235 -24 319 -32 408 -32 c 0
 489.016944744 -32 512 66 512 160 c 2
EndSplineSet
Validated: 1
Layer: 2
Layer: 3
Substitution2: "'ss11' Style Set 11 lookup 62 subtable" j.long
Substitution2: "'ss07' Style Set 7 lookup 58 subtable" j.flyingdot
EndChar
StartChar: k
Encoding: 107 107 11
GlifName: k
Width: 1024
VWidth: 0
Flags: W
HStem: 0 21G<256 384 833.964 1002> 1004 20G<774.569 955> 1388 20G<256 384>
VStem: 256 128<0 435 602 1408>
LayerCount: 3
Back
Fore
SplineSet
384 0 m 5
 256 0 l 5
 256 1408 l 5
 384 1408 l 5
 384 602 l 5
 794 1024 l 5
 955 1024 l 5
 592 645 l 5
 1002 0 l 5
 846 0 l 5
 509 560 l 5
 384 435 l 5
 384 0 l 5
EndSplineSet
Validated: 1
Layer: 2
EndChar
StartChar: l
Encoding: 108 108 12
GlifName: l
Width: 1024
VWidth: 0
Flags: W
HStem: -16 240<668.946 896> 1388 20G<384 640>
VStem: 384 256<245.847 1408>
LayerCount: 3
Back
SplineSet
896 -11 m 1
 858 -13 813 -16 758 -16 c 0
 686 -16 499 9 457 52 c 0
 384 128 384 218 384 279 c 2
 384 1408 l 1
 640 1408 l 1
 640 279 l 2
 640 232 640 306 668 268 c 4
 688 241 719 224 768 224 c 4
 810 224 860 226 896 229 c 5
 896 -11 l 1
EndSplineSet
Fore
SplineSet
896 -11 m 1
 845 -13 785 -16 712 -16 c 0
 616 -16 537 11 481 58 c 0
 384 142 384 241 384 308 c 2
 384 1408 l 1
 640 1408 l 1
 640 308 l 2
 640 285 640 263 668 245 c 0
 688 232 719 224 768 224 c 0
 810 224 860 226 896 229 c 1
 896 -11 l 1
EndSplineSet
Validated: 1
Layer: 2
Substitution2: "'ss10' Style Set 10 lookup 10 subtable" l.base
Substitution2: "'ss06' Style Set 6 lookup 6 subtable" l.zstyle
EndChar
StartChar: m
Encoding: 109 109 13
GlifName: m
Width: 1024
VWidth: 0
Flags: MW
HStem: 800 240<399.472 538.039 666.329 836>
VStem: 128 256<0 784.388 989 1024> 512 128<0 784.388> 768 256<0 784.388>
CounterMasks: 1 70
AnchorPoint: "top" 576 1024 basechar 0
LayerCount: 4
Back
SplineSet
414 1040 m 4xdc
 498 1040 562 992 597 929 c 5
 652 1001 716 1040 798 1040 c 4
 874 1040 935 1004 972 954 c 4
 1024 884 1024 814 1024 730 c 6
 1024 0 l 5
 768 0 l 5
 768 730 l 6
 768 755 768 772 753 785 c 4
 743 794 726 800 704 800 c 4
 682 800 665 794 655 785 c 4
 640 772 640 755 640 730 c 6
 640 0 l 5
 512 0 l 5
 512 730 l 6
 512 755 512 772 497 785 c 4
 487 794 470 800 448 800 c 4xdc
 426 800 409 794 399 785 c 4
 384 772 384 755 384 730 c 6
 384 0 l 5
 128 0 l 5
 128 1024 l 5
 256 1024 l 5xbc
 256 949 l 5
 266 949 l 5
 306 1008 354 1040 414 1040 c 4xdc
EndSplineSet
Fore
SplineSet
512 1040 m 0
 564.07826087 1040 603.382608696 1006.27027027 625 962 c 1
 672.338308458 1012.59459459 727.422885572 1040 798 1040 c 0
 874 1040 935 1004 972 954 c 0
 1024 884 1024 814 1024 730 c 2
 1024 0 l 1
 768 0 l 1
 768 730 l 2
 768 755 768 772 753 785 c 0
 743 794 726 800 704 800 c 0
 682 800 665 794 655 785 c 0
 640 772 640 755 640 730 c 2
 640 0 l 1
 512 0 l 1
 512 730 l 2
 512 755 512 772 497 785 c 0
 487 794 470 800 448 800 c 0
 426 800 409 794 399 785 c 0
 384 772 384 755 384 730 c 2
 384 0 l 1
 128 0 l 1
 128 1024 l 1
 384 1024 l 1
 384 989 l 1
 390 989 l 1
 423.152173913 1022.06593407 461.608695652 1040 512 1040 c 0
EndSplineSet
Layer: 2
Layer: 3
Substitution2: "Single Substitution lookup 34 subtable" larsenwork
Substitution2: "Single Substitution lookup 33 subtable" mm
EndChar
StartChar: n
Encoding: 110 110 14
GlifName: n
Width: 1024
VWidth: 0
Flags: W
HStem: 0 21G<256 512 640 896> 800 240<556.386 708.5> 1004 20G<256 512>
VStem: 256 256<0 764.683 962 1024> 640 256<0 764.683>
AnchorPoint: "bottom" 576 0 basechar 0
AnchorPoint: "top" 576 1024 basechar 0
LayerCount: 4
Back
SplineSet
596 1040 m 4xd8
 696 1040 777 995 827 933 c 4
 896 847 896 751 896 657 c 6
 896 0 l 5
 768 0 l 5
 768 657 l 6
 768 744 768 806 723 858 c 4
 691 895 640 920 576 920 c 4xd8
 512 920 461 895 429 858 c 4
 384 806 384 744 384 657 c 6
 384 0 l 5
 256 0 l 5
 256 1024 l 5
 384 1024 l 5xb8
 384 912 l 5
 394 912 l 5
 443 989 520 1040 596 1040 c 4xd8
EndSplineSet
Fore
SplineSet
671 1040 m 0xd8
 746 1040 806 995 844 933 c 0
 896 847 896 751 896 657 c 2
 896 0 l 1
 640 0 l 1
 640 657 l 2
 640 704 640 738 625 766 c 0
 614 786 597 800 576 800 c 0xd8
 555 800 538 786 527 766 c 0
 512 738 512 704 512 657 c 2
 512 0 l 1
 256 0 l 1
 256 1024 l 1
 512 1024 l 1xb8
 512 962 l 1
 519 962 l 1
 556 1009 614 1040 671 1040 c 0xd8
EndSplineSet
Validated: 1
Layer: 2
SplineSet
687 1040 m 4x7c
 787 1040 871 953 907 803 c 4
 928 713 928 624 928 512 c 4
 928 400 928 311 907 221 c 4
 871 71 787 -16 687 -16 c 4xbc
 624 -16 557 6 520 65 c 5
 512 65 l 5
 512 0 l 5
 256 0 l 5
 256 1408 l 5
 512 1408 l 5
 512 959 l 5
 520 959 l 5
 557 1018 624 1040 687 1040 c 4x7c
592 800 m 4
 555 800 532 749 522 693 c 4
 512 639 512 577 512 512 c 4
 512 447 512 385 522 331 c 4
 532 275 555 224 592 224 c 4
 629 224 652 275 662 331 c 4
 672 385 672 447 672 512 c 4
 672 577 672 639 662 693 c 4
 652 749 629 800 592 800 c 4
EndSplineSet
Layer: 3
EndChar
StartChar: o
Encoding: 111 111 15
GlifName: o
Width: 1024
VWidth: 0
Flags: W
HStem: -16 240.085<513.265 638.735> 799.915 240.085<513.265 638.735>
VStem: 224 255.782<254.48 769.52> 672.218 255.782<254.48 769.52>
AnchorPoint: "top" 576 1024 basechar 0
LayerCount: 4
Back
SplineSet
576 1040 m 0
 703 1040 802 978 863 880 c 0
 919 788 928 662 928 512 c 0
 928 362 919 236 863 144 c 0
 802 46 703 -16 576 -16 c 0
 449 -16 350 46 289 144 c 0
 233 236 224 362 224 512 c 0
 224 662 233 788 289 880 c 0
 350 978 449 1040 576 1040 c 0
576 800 m 4
 492 800 435 808.755102041 400 822 c 0
 476.666666667 744 480 629 480 512 c 0
 480 395 476.666666667 280 400 202 c 0
 435 215.244897959 492 224 576 224 c 0
 660 224 717 215.244897959 752 202 c 0
 675.333333333 280 672 395 672 512 c 0
 672 629 675.333333333 744 752 822 c 0
 717 808.755102041 660 800 576 800 c 4
EndSplineSet
Fore
SplineSet
576 1040 m 4
 703 1040 802 978 863 880 c 4
 919 788 928 662 928 512 c 4
 928 362 919 236 863 144 c 4
 802 46 703 -16 576 -16 c 4
 449 -16 350 46 289 144 c 4
 233 236 224 362 224 512 c 4
 224 662 233 788 289 880 c 4
 350 978 449 1040 576 1040 c 4
576 799.915039062 m 4
 539.91796875 799.915039062 515.43359375 772.392578125 500.401367188 730.7578125 c 4
 480.641601562 675.716796875 479.782226562 594.5625 479.782226562 512 c 4
 479.782226562 429.4375 480.641601562 348.283203125 500.401367188 293.2421875 c 4
 515.43359375 251.607421875 539.91796875 224.084960938 576 224.084960938 c 4
 612.08203125 224.084960938 636.56640625 251.607421875 651.598632812 293.2421875 c 4
 671.358398438 348.283203125 672.217773438 429.4375 672.217773438 512 c 4
 672.217773438 594.5625 671.358398438 675.716796875 651.598632812 730.7578125 c 4
 636.56640625 772.392578125 612.08203125 799.915039062 576 799.915039062 c 4
EndSplineSet
Layer: 2
Layer: 3
EndChar
StartChar: p
Encoding: 112 112 16
GlifName: p
Width: 1024
VWidth: 0
Flags: MW
HStem: -16 240<555.093 737> 800 240<555.143 737>
VStem: 256 256<-384 65 246.167 777.814 959 1024> 672 256<246.23 777.764>
AnchorPoint: "top" 576 1024 basechar 0
LayerCount: 4
Back
Fore
SplineSet
687 -16 m 0
 624 -16 557 6 520 65 c 1
 512 65 l 1
 512 -384 l 1
 256 -384 l 1
 256 1024 l 1
 512 1024 l 1
 512 959 l 1
 520 959 l 1
 557 1018 624 1040 687 1040 c 0
 787 1040 871.947668206 953.224279116 907 803 c 0
 928 713 928 624 928 512 c 0
 928 400 928.567752024 310.865633435 907 221 c 0
 871 71 787 -16 687 -16 c 0
592 224 m 0
 629 224 651.641697547 275.065166754 662 331 c 0
 672 385 672 447 672 512 c 0
 672 577 671.654091532 638.937087419 662 693 c 0
 652 749 629 800 592 800 c 0
 555 800 532.358302453 748.934833246 522 693 c 0
 512 639 512 577 512 512 c 0
 512 447 512.345908468 385.062912581 522 331 c 0
 532 275 555 224 592 224 c 0
EndSplineSet
Layer: 2
Layer: 3
EndChar
StartChar: q
Encoding: 113 113 17
GlifName: q
Width: 1024
VWidth: 0
Flags: W
HStem: -32 240<415 596.907> 784 240<415 596.907>
VStem: 224 256<230.236 761.764> 640 256<-400 49 230.167 761.833 943 1008>
LayerCount: 3
Back
Fore
SplineSet
465 -32 m 4
 365 -32 281 55 245 205 c 4
 224 295 224 384 224 496 c 4
 224 608 224 697 245 787 c 4
 281 937 365 1024 465 1024 c 4
 528 1024 595 1002 632 943 c 5
 640 943 l 5
 640 1008 l 5
 896 1008 l 5
 896 -400 l 5
 640 -400 l 5
 640 49 l 5
 632 49 l 5
 595 -10 528 -32 465 -32 c 4
560 208 m 4
 597 208 620 259 630 315 c 4
 640 369 640 431 640 496 c 4
 640 561 640 623 630 677 c 4
 620 733 597 784 560 784 c 4
 523 784 500 733 490 677 c 4
 480 623 480 561 480 496 c 4
 480 431 480 369 490 315 c 4
 500 259 523 208 560 208 c 4
EndSplineSet
Layer: 2
EndChar
StartChar: r
Encoding: 114 114 18
GlifName: r
Width: 1024
VWidth: 0
Flags: W
HStem: 0 21G<256 512> 800 240<595.751 896> 1004 20G<256 512>
VStem: 256 256<0 704.166 915 1024>
LayerCount: 4
Back
SplineSet
716 800 m 0xd0
 624 800 552 816.739726027 501 847 c 0
 512 740 512 589 512 475 c 6
 512 0 l 5
 256 0 l 1
 256 1024 l 1
 384 1024 l 1xb0
 384 865 l 1
 394 865 l 1
 469 967 561 1040 716 1040 c 0
 782 1040 839 1034 896 1027 c 1
 896 787 l 1
 839 794 781 800 716 800 c 0xd0
EndSplineSet
Fore
SplineSet
716 800 m 0xd0
 659 800 615 781 583 747 c 0
 512 669 512 558 512 475 c 2
 512 0 l 1
 256 0 l 1
 256 1024 l 1
 512 1024 l 1xb0
 512 915 l 1
 522 915 l 1
 569.51552795 987.857142857 627.801242236 1040 726 1040 c 4
 788.333333333 1040 842.166666667 1034 896 1027 c 1
 896 787 l 1
 839 794 781 800 716 800 c 0xd0
EndSplineSet
Validated: 524289
Layer: 2
Layer: 3
Substitution2: "'ss10' Style Set 10 lookup 10 subtable" r.base
EndChar
StartChar: s
Encoding: 115 115 19
GlifName: s
Width: 1024
VWidth: 0
Flags: W
HStem: -16 120<260.105 715.757> 920 120<420.944 881.877>
VStem: 234 128<683.955 865.373> 800 128<188.193 426.634>
LayerCount: 3
Back
SplineSet
575 1040 m 7
 693 1040 792 1023.18867925 886 1007 c 5
 886 882 l 5
 791 900.344827586 692 920 575 920 c 7
 458 920 362 875 362 760 c 7
 362 692 404 643 454 620 c 4
 546 578 657 602 759 555 c 4
 850 513 928 417 928 291 c 7
 928 104 774 -16 576 -16 c 7
 460 -16 358 -3.42857142857 256 6 c 5
 256 128 l 5
 356 118.181818182 466 104 576 104 c 7
 704 104 800 170 800 291 c 7
 800 367 757 422 703 447 c 4
 613 489 500 466 398 512 c 4
 311 551 234 640 234 760 c 7
 234 946 388 1040 575 1040 c 7
EndSplineSet
Fore
SplineSet
567 -16 m 4
 464 -16 345 -4 256 6 c 5
 256 126 l 5
 341 116 470 104 567 104 c 4
 755 104 800 228 800 308 c 4
 800 390 757 449 700 478 c 4
 614 522 507 499 402 540 c 4
 317.686492711 572.922417132 234 655.445887446 234 776 c 4
 234 913.397769517 343 1040 572 1040 c 4
 689 1040 799 1028.48387097 886 1019 c 5
 886 899 l 5
 798 907.806451613 675 920 572 920 c 4
 410 920 362 841.718120805 362 776 c 4
 362 713.478991597 403.672865688 669.93308425 450 652 c 4
 543 616 654 640 762 584 c 4
 855 536 928 438 928 308 c 4
 928 145 810 -16 567 -16 c 4
EndSplineSet
Validated: 1
Layer: 2
Substitution2: "'ss12' Style Set 12 lookup 12 subtable" s.retina
Substitution2: "'ss01' Style Set 1 lookup 1 subtable" s.retina
Substitution2: "'ss01' Style Set 1 lookup 0 subtable" s.retina
EndChar
StartChar: t
Encoding: 116 116 20
GlifName: t
Width: 1024
VWidth: 0
Flags: W
HStem: -16 120<580.546 893.438> 898 126<128 384 512 896>
VStem: 384 128<172.568 898 1024 1280>
LayerCount: 3
Back
Fore
SplineSet
896 -1 m 5
 839 -9 775 -16 704 -16 c 4
 594 -16 505 28 452 92 c 4
 384 174 384 271 384 360 c 6
 384 898 l 5
 128 898 l 5
 128 1024 l 5
 384 1024 l 5
 384 1280 l 5
 512 1280 l 5
 512 1024 l 5
 896 1024 l 5
 896 898 l 5
 512 898 l 5
 512 370 l 6
 512 284 512 218 555 166 c 4
 588 127 643 104 714 104 c 4
 778 104 844 112 896 119 c 5
 896 -1 l 5
EndSplineSet
Validated: 1
Layer: 2
EndChar
StartChar: u
Encoding: 117 117 21
GlifName: u
Width: 1024
VWidth: 0
Flags: W
HStem: -16 240<443.5 595.614> 0 21G<640 896> 1004 20G<256 512 640 896>
VStem: 256 256<259.317 1024> 640 256<0 62 259.317 1024>
LayerCount: 4
Back
Fore
SplineSet
481 -16 m 4xb8
 406 -16 346 29 308 91 c 4
 256 177 256 273 256 367 c 6
 256 1024 l 5
 512 1024 l 5
 512 367 l 6
 512 320 512 286 527 258 c 4
 538 238 555 224 576 224 c 4xb8
 597 224 614 238 625 258 c 4
 640 286 640 320 640 367 c 6
 640 1024 l 5
 896 1024 l 5
 896 0 l 5
 640 0 l 5x78
 640 62 l 5
 633 62 l 5
 596 15.078125 538 -16 481 -16 c 4xb8
EndSplineSet
Validated: 1
Layer: 2
Layer: 3
EndChar
StartChar: v
Encoding: 118 118 1
GlifName: v
Width: 1024
VWidth: 0
Flags: W
HStem: 0 21G<330.54 821.46> 1004 20G<174.498 448.956 702.994 977.502>
LayerCount: 4
Back
Fore
SplineSet
431.856445312 1024 m 5
 466.056006588 746.079423146 509.653972165 473.697445213 571 217 c 5
 581 217 l 5
 642.314875625 474.884095772 685.898931478 746.647319162 720.08984375 1024 c 5
 977.501953125 1024 l 5
 931.132540072 672.756875868 868.920724367 326.424018838 774 0 c 5
 378 0 l 5
 283.079275633 326.424018838 220.867459928 672.756875868 174.498046875 1024 c 5
 431.856445312 1024 l 5
EndSplineSet
Validated: 524289
Layer: 2
Layer: 3
EndChar
StartChar: w
Encoding: 119 119 22
GlifName: w
Width: 1024
VWidth: 0
Flags: W
HStem: 0 21G<182 496.514 655.486 970> 1004 20G<109 357 795 1043>
VStem: 109 248<462.153 1024> 795 248<462.153 1024>
AnchorPoint: "top" 576 1024 basechar 0
LayerCount: 4
Back
SplineSet
514 767 m 5
 638 767 l 5
 802 140 l 5
 812 140 l 5
 883 413 915 717 915 1024 c 5
 1043 1024 l 5
 1043 680 993 339 894 0 c 5
 740 0 l 5
 581 587 l 5
 571 587 l 5
 412 0 l 5
 258 0 l 5
 159 339 109 680 109 1024 c 5
 237 1024 l 5
 237 717 269 413 340 140 c 5
 350 140 l 5
 514 767 l 5
EndSplineSet
Fore
SplineSet
668 640 m 1
 752 250 l 1
 762 250 l 1
 785 489 795 755 795 1024 c 1
 1043 1024 l 1
 1043 680 1006 339 934 0 c 1
 660 0 l 1
 581 350 l 1
 571 350 l 1
 492 0 l 1
 218 0 l 1
 146 339 109 680 109 1024 c 1
 357 1024 l 1
 357 755 367 489 390 250 c 1
 400 250 l 1
 484 640 l 1
 668 640 l 1
EndSplineSet
Validated: 1
Layer: 2
Layer: 3
Substitution2: "'ss10' Style Set 10 lookup 9 subtable" w.straight
EndChar
StartChar: x
Encoding: 120 120 23
GlifName: x
Width: 1024
VWidth: 0
Flags: W
HStem: 0 21G<159 455.611 696.389 993> 1004 20G<181 476.583 675.417 971>
LayerCount: 4
Back
SplineSet
265.830078125 -339.06640625 m 29
 39.54296875 -229.3828125 l 29
 886.169921875 1407.06738281 l 29
 1112.45703125 1297.38378906 l 29
 265.830078125 -339.06640625 l 29
EndSplineSet
Fore
SplineSet
571 784 m 5
 581 784 l 5
 684 1024 l 5
 971 1024 l 5
 740 541 l 5
 740 531 l 5
 993 0 l 5
 705 0 l 5
 581 288 l 5
 571 288 l 5
 447 0 l 5
 159 0 l 5
 412 531 l 5
 412 541 l 5
 181 1024 l 5
 468 1024 l 5
 571 784 l 5
EndSplineSet
Validated: 1
Layer: 2
Layer: 3
EndChar
StartChar: y
Encoding: 121 121 24
GlifName: y
Width: 1024
VWidth: 0
Flags: W
HStem: -272 240<256 443.797> 1004 20G<175 447.97 703.713 977>
VStem: 721 256<779.635 1024>
AnchorPoint: "top" 576 1024 basechar 0
LayerCount: 4
Back
SplineSet
431.856445312 1024 m 1
 466.056006588 790.161001631 509.653972165 560.982113135 571 345 c 5
 581 345 l 5
 642.314875625 561.980546505 685.898931478 790.638822442 720.08984375 1024 c 1
 977.501953125 1024 l 1
 931.132540072 716.662266384 868.920724367 413.621016483 774 128 c 5
 378 128 l 5
 283.079275633 413.621016483 220.867459928 716.662266384 174.498046875 1024 c 1
 431.856445312 1024 l 1
EndSplineSet
Fore
SplineSet
582 343 m 1
 640.526315789 567.00330033 686.425837321 794.00330033 721 1024 c 1
 977 1024 l 1
 928.95851504 722.610756609 886.226541442 478.390181997 774 128 c 0
 729.802873336 -9.99088037778 685.066202632 -145.042638443 596 -203 c 0
 531.738831615 -243.17721519 477.099656358 -272 256 -272 c 1
 256 -32 l 1
 449.494680871 -32 451.576325534 -8.89795890828 504 128 c 1
 405 128 l 1
 291.921145073 413.25 229.085228341 719.5 175 1024 c 1
 432 1024 l 1
 463.939163498 789.508250825 510.971234915 556.514851485 572 343 c 1
 582 343 l 1
EndSplineSet
Layer: 2
Layer: 3
Substitution2: "'ss11' Style Set 11 lookup 62 subtable" y.long
EndChar
StartChar: z
Encoding: 122 122 25
GlifName: z
Width: 1024
VWidth: 0
Flags: W
HStem: 0 240<541 896> 784 240<276 591>
AnchorPoint: "top" 576 1024 basechar 0
LayerCount: 4
Back
Fore
SplineSet
276 784 m 1
 276 1024 l 1
 876 1024 l 1
 876 814 l 1
 541 250 l 1
 541 240 l 1
 896 240 l 1
 896 0 l 1
 256 0 l 1
 256 212 l 1
 591 774 l 1
 591 784 l 1
 276 784 l 1
EndSplineSet
Validated: 1
Layer: 2
Layer: 3
EndChar
StartChar: braceleft
Encoding: 123 123 91
GlifName: braceleft
Width: 1024
VWidth: 0
Flags: W
HStem: -144 240<785.665 896> 583 240<256 459.346> 1310 240<785.597 896>
VStem: 512 256<112.027 532.595 873.418 1293.99>
CounterMasks: 1 e0
LayerCount: 4
Back
SplineSet
481 698 m 5
 598.041016714 653.766683911 640 582.672888867 640 436 c 6
 640 183 l 6
 640 23.2098445763 736.387607114 -24 896 -24 c 5
 896 -144 l 5
 669.189221639 -144 512 -47.886620557 512 183 c 6
 512 436 l 6
 512 595.790155424 415.612392886 643 256 643 c 5
 256 763 l 5
 415.353796429 763 512 810.446159126 512 970 c 6
 512 1223 l 6
 512 1453.94128632 668.996601886 1550 896 1550 c 5
 896 1430 l 5
 736.646203571 1430 640 1382.55384087 640 1223 c 6
 640 970 l 6
 640 823.343238377 598.156618151 752.277005345 481 708 c 5
 481 698 l 5
EndSplineSet
Fore
SplineSet
609 698 m 1
 726.041016714 653.766683911 768 582.672888867 768 436 c 2
 768 183 l 2
 768 115.841818735 816.193803557 96 896 96 c 1
 896 -144 l 1
 669.189221639 -144 512 -47.886620557 512 183 c 2
 512 436 l 2
 512 549.474168345 415.612392886 583 256 583 c 5
 256 823 l 1
 415.353796429 823 512 856.693649234 512 970 c 2
 512 1223 l 2
 512 1453.94128632 668.996601886 1550 896 1550 c 1
 896 1310 l 1
 816.323101786 1310 768 1290.05886066 768 1223 c 2
 768 970 l 2
 768 823.343238377 726.156618151 752.277005345 609 708 c 1
 609 698 l 1
EndSplineSet
Validated: 1
Layer: 2
Layer: 3
EndChar
StartChar: bar
Encoding: 124 124 92
GlifName: bar
Width: 1024
VWidth: 0
Flags: W
VStem: 512 128<-128 1536>
LayerCount: 3
Back
Fore
SplineSet
640 1536 m 5
 640 -128 l 5
 512 -128 l 5
 512 1536 l 5
 640 1536 l 5
EndSplineSet
Validated: 1
Layer: 2
EndChar
StartChar: braceright
Encoding: 125 125 93
GlifName: braceright
Width: 1024
VWidth: 0
Flags: W
HStem: -144 240<256 366.403> 583 240<692.654 896> 1310 240<256 366.335>
VStem: 384 256<112.012 532.582 873.405 1293.97>
CounterMasks: 1 e0
LayerCount: 4
Back
Fore
SplineSet
543 708 m 5
 425.958983286 752.233316089 384 823.327111133 384 970 c 6
 384 1223 l 6
 384 1290.15818127 335.806196443 1310 256 1310 c 5
 256 1550 l 5
 482.810778361 1550 640 1453.88662056 640 1223 c 6
 640 970 l 6
 640 856.525831655 736.387607114 823 896 823 c 5
 896 583 l 5
 736.646203571 583 640 549.306350766 640 436 c 6
 640 183 l 6
 640 -47.94128632 483.003398114 -144 256 -144 c 5
 256 96 l 5
 335.676898214 96 384 115.941139344 384 183 c 6
 384 436 l 6
 384 582.656761623 425.843381849 653.722994655 543 698 c 5
 543 708 l 5
EndSplineSet
Validated: 1
Layer: 2
Layer: 3
EndChar
StartChar: tilde
Encoding: 126 126 94
GlifName: tilde
Width: 1024
VWidth: 0
Flags: W
HStem: 508 240<627.881 755.01> 660 240<396.99 524.119>
VStem: 128 256<512 656.213> 768 256<751.787 896>
LayerCount: 4
Back
Fore
SplineSet
384 512 m 1x70
 128 512 l 1
 128 731 172.489878543 900 425 900 c 0x70
 584.23880597 900 618.089552239 748 707 748 c 4
 764.924369748 748 768 801.014925373 768 896 c 1
 1024 896 l 1
 1024 677 979.510121457 508 727 508 c 0xb0
 567.76119403 508 533.910447761 660 445 660 c 4
 387.075630252 660 384 606.985074627 384 512 c 1x70
EndSplineSet
Validated: 1
Layer: 2
Layer: 3
EndChar
StartChar: exclamdown
Encoding: 161 161 100
GlifName: exclamdown
Width: 1024
VWidth: 0
Flags: WO
HStem: 822 346<460.16 691.84>
VStem: 403 346<879.16 1110.84> 434 284<-256 413.013> 452 248<-29.0133 640>
LayerCount: 4
Back
Fore
SplineSet
576 822 m 4xc0
 474 822 403 893 403 995 c 4
 403 1097 474 1168 576 1168 c 4
 678 1168 749 1097 749 995 c 4
 749 893 678 822 576 822 c 4xc0
452 640 m 5x90
 700 640 l 5x90
 718 -256 l 5
 434 -256 l 5xa0
 452 640 l 5x90
EndSplineSet
Layer: 2
Layer: 3
EndChar
StartChar: cent
Encoding: 162 162 525
GlifName: cent
Width: 1024
VWidth: 0
Flags: W
HStem: -256 480<521.709 699.692> 800 238<704 881.6>
VStem: 224 256<265.223 758.777> 448 256<-256 -9.6991 1038 1280>
LayerCount: 4
Back
Fore
SplineSet
448 1280 m 5xd0
 704 1280 l 5
 704 1038 l 5xd0
 767 1035 823 1028 886 1022 c 5
 886 782 l 5
 792 792 706 800 606 800 c 4
 546 800 517 766 497 707 c 4
 480 655 480 584 480 512 c 4xe0
 480 440 480 369 497 317 c 4
 517 258 546 224 606 224 c 4
 701 224 796 235 896 250 c 5
 896 10 l 5
 830 0 768 -9 704 -13 c 5
 704 -256 l 5
 448 -256 l 5
 448 12 l 5xd0
 357 48 301 116 267 193 c 4
 226 286 224 391 224 512 c 4xe0
 224 633 226 738 267 831 c 4
 301 908 357 976 448 1012 c 5
 448 1280 l 5xd0
EndSplineSet
Validated: 1
Layer: 2
Layer: 3
EndChar
StartChar: sterling
Encoding: 163 163 431
GlifName: sterling
Width: 1024
VWidth: 0
Flags: W
HStem: 0 240<128 256 512 896> 584 240<128 256 512 768> 1184 240<547.318 861.765>
VStem: 256 256<240 584 824 1156.23>
LayerCount: 4
Back
SplineSet
128 240 m 1
 128 528 l 1
 50.521484375 528 0 596.497070312 0 648 c 0
 0 768 l 0
 0 840.63671875 73.0625 888 128 888 c 0
 128 896 l 0
 128 1017.04589844 127.34765625 1137.70507812 176.473632812 1257.93457031 c 0
 238.37890625 1409.40625 390.6875 1544 618 1544 c 0
 702.182617188 1544 785.689453125 1537.5078125 879.284179688 1528.35253906 c 0
 945.979492188 1521.828125 994 1465.21679688 994 1409 c 0
 994 1289 l 0
 994 1238.34960938 960.314453125 1159.23535156 852.857421875 1169.63476562 c 0
 761.961914062 1178.43066406 681.41015625 1184 618 1184 c 0
 569.033203125 1184 555.069335938 1175.05664062 534.482421875 1127.59277344 c 1
 517.310546875 1088.41894531 512 999.055664062 512 896 c 0
 512 888 l 1
 768 888 l 0
 845.478515625 888 896 819.50390625 896 768 c 0
 896 648 l 0
 896 575.364257812 822.9375 528 768 528 c 0
 512 528 l 1
 512 240 l 1
 896 240 l 0
 973.478515625 240 1024 171.50390625 1024 120 c 0
 1024 0 l 0
 1024 -72.6357421875 950.9375 -120 896 -120 c 0
 128 -120 l 0
 50.521484375 -120 0 -51.50390625 0 0 c 0
 0 120 l 0
 0 192.635742188 73.0625 240 128 240 c 1
EndSplineSet
Fore
SplineSet
256 240 m 1
 256 584 l 1
 128 584 l 1
 128 824 l 1
 256 824 l 1
 256 896 l 2
 256 1017 258 1122 296 1215 c 0
 343 1330 449 1424 618 1424 c 0
 695 1424 774 1418 866 1409 c 1
 866 1169 l 1
 777 1178 696 1184 628 1184 c 0
 591 1184 562 1180 540 1135 c 0
 514 1083 512 984 512 896 c 2
 512 824 l 1
 768 824 l 1
 768 584 l 1
 512 584 l 1
 512 240 l 1
 896 240 l 1
 896 0 l 1
 128 0 l 1
 128 240 l 1
 256 240 l 1
EndSplineSet
Validated: 1
Layer: 2
Layer: 3
EndChar
StartChar: currency
Encoding: 164 164 528
GlifName: currency
Width: 1024
VWidth: 0
Flags: W
HStem: 184 240<467.882 684.122> 728 240<467.486 684.517> 1008.55 20G<284.471 324.471 827.529 867.529>
VStem: 176 256<459.791 692.212> 720 256<460.806 691.194>
LayerCount: 4
Back
Fore
SplineSet
576 728 m 4
 489.860351562 728 432 679.790039062 432 576 c 4
 432 472.22265625 489.831054688 424 576 424 c 4
 662.138671875 424 720 472.209960938 720 576 c 4
 720 679.776367188 662.168945312 728 576 728 c 4
123.451171875 847.529296875 m 5
 304.470703125 1028.54882812 l 5
 401.41249345 931.6070378 l 5
 453.177020851 954.970789381 512.031275634 968 576 968 c 4
 639.964910673 968 698.81905032 954.970030812 750.584984627 931.604515877 c 5
 847.529296875 1028.54882812 l 5
 1028.54882812 847.529296875 l 5
 935.078620178 754.059088928 l 5
 961.523353406 700.689430739 976 640.197025236 976 576 c 4
 976 511.803730993 961.524646895 451.310209295 935.080506674 397.939024576 c 5
 1028.54882812 304.470703125 l 5
 847.529296875 123.451171875 l 5
 750.587638011 220.392830739 l 5
 698.823146026 197.029161744 639.968870999 184 576 184 c 4
 512.035089327 184 453.18094968 197.029969188 401.415015373 220.395484123 c 5
 304.470703125 123.451171875 l 5
 123.451171875 304.470703125 l 5
 216.921379822 397.940911072 l 5
 190.476646594 451.310569261 176 511.802974764 176 576 c 4
 176 640.196220668 190.475416622 700.689699605 216.919613888 754.060854862 c 5
 123.451171875 847.529296875 l 5
EndSplineSet
Layer: 2
SplineSet
576 361 m 29
 576 64 l 1053
576 1088 m 29
 576 845 l 1053
EndSplineSet
Layer: 3
EndChar
StartChar: yen
Encoding: 165 165 428
GlifName: yen
Width: 1024
VWidth: 0
Flags: W
HStem: 0 21G<448 704> 256 230<192 448 704 960> 640 230<192 333.609 818.391 960> 1388 20G<100 391.624 759.534 1052>
VStem: 448 256<0 256 486 640>
LayerCount: 4
Back
Fore
SplineSet
581 921 m 1
 647.568080357 1055.912716 738.06864564 1251.15600548 781 1408 c 1
 1052 1408 l 1
 986.621967233 1224.27635488 913.137265417 1041.03878101 818.391408489 870 c 1
 960 870 l 1
 960 640 l 1
 704 640 l 1
 704 486 l 1
 960 486 l 1
 960 256 l 1
 704 256 l 1
 704 0 l 1
 448 0 l 1
 448 256 l 1
 192 256 l 5
 192 486 l 5
 448 486 l 1
 448 640 l 1
 192 640 l 5
 192 870 l 5
 333.608591511 870 l 1
 238.862734583 1041.03878101 165.378032767 1224.27635488 100 1408 c 1
 371 1408 l 1
 412.247771836 1251.15600548 507.50658701 1055.24757875 571 921 c 1
 581 921 l 1
EndSplineSet
Validated: 524289
Layer: 2
Layer: 3
EndChar
StartChar: brokenbar
Encoding: 166 166 312
GlifName: brokenbar
Width: 1024
VWidth: 0
Flags: W
VStem: 448 256<-256 384 896 1536>
LayerCount: 4
Back
Fore
SplineSet
704 384 m 5
 704 -256 l 5
 448 -256 l 5
 448 384 l 5
 704 384 l 5
704 1536 m 5
 704 896 l 5
 448 896 l 5
 448 1536 l 5
 704 1536 l 5
EndSplineSet
Layer: 2
Layer: 3
EndChar
StartChar: section
Encoding: 167 167 430
GlifName: section
Width: 1024
VWidth: 0
Flags: W
HStem: -272 240<259.964 644.887> 1182 240<508.456 852.624>
VStem: 215 256<454.674 697.85> 233 256<985.791 1162.42> 663 256<-14.2067 164.718> 681 256<450.61 693.331>
LayerCount: 4
Back
SplineSet
584 368 m 4xe4
 765 368 809 497 809 578 c 4
 809 721 704 780 565 780 c 4
 386 780 343 653 343 571 c 4
 343 423 461 368 584 368 c 4xe4
383 289 m 4
 282 342 215 444 215 571 c 4xe8
 215 677 271 781 382 843 c 5
 291 900 233 991 233 1101 c 4
 233 1263 351 1422 594 1422 c 4
 682 1422 783 1407 856 1394 c 5
 856 1271 l 5
 786 1285 677 1302 594 1302 c 4
 406 1302 361 1180 361 1101 c 4
 361 1022 398 971 445 936 c 4
 531 873 656 920 771 859 c 4
 864 810 937 710 937 578 c 4xd4
 937 472 882 367 770 306 c 5
 857 252 919 161 919 47 c 4
 919 -114 801 -272 558 -272 c 4
 458 -272 342 -251 256 -233 c 5
 256 -110 l 5
 338 -129 464 -152 558 -152 c 4
 746 -152 791 -31 791 47 c 4xc8
 791 132 748 194 691 223 c 4
 602 268 489 234 383 289 c 4
EndSplineSet
Fore
SplineSet
584 428 m 0xe4
 662 428 681 520 681 578 c 0
 681 679 631 720 565 720 c 0
 489 720 471 629 471 571 c 0
 471 467 526 428 584 428 c 0xe4
383 289 m 0
 282 342 215 444 215 571 c 0xe8
 215 677 271 781 382 843 c 1
 291 900 233 991 233 1101 c 0
 233 1263 351 1422 594 1422 c 0
 682 1422 783 1407 856 1394 c 1
 856 1151 l 1
 786 1165 677 1182 594 1182 c 0
 509 1182 489 1115 489 1071 c 0
 489 1016 523 984 573 956 c 0
 656 910 685 904 771 859 c 0
 864 810 937 710 937 578 c 0xd4
 937 472 882 367 770 306 c 1
 857 252 919 161 919 47 c 0
 919 -114 801 -272 558 -272 c 0
 458 -272 342 -251 256 -233 c 1
 256 10 l 1
 338 -9 464 -32 558 -32 c 0
 643 -32 663 28 663 67 c 0xc8
 663 133 625 174 563 203 c 0
 492 236 459 244 383 289 c 0
EndSplineSet
Validated: 1
Layer: 2
SplineSet
584 368 m 4xe4
 765 368 809 497 809 578 c 4
 809 721 704 780 565 780 c 4
 386 780 343 653 343 571 c 4
 343 423 461 368 584 368 c 4xe4
383 289 m 4
 282 342 215 444 215 571 c 4xe8
 215 677 271 781 382 843 c 5
 291 900 233 991 233 1101 c 4
 233 1263 351 1422 594 1422 c 4
 682 1422 783 1407 856 1394 c 5
 856 1271 l 5
 786 1285 677 1302 594 1302 c 4
 406 1302 361 1180 361 1101 c 4
 361 1022 398 971 445 936 c 4
 531 873 656 920 771 859 c 4
 864 810 937 710 937 578 c 4xd4
 937 472 882 367 770 306 c 5
 857 252 919 161 919 47 c 4
 919 -114 801 -272 558 -272 c 4
 458 -272 342 -251 256 -233 c 5
 256 -110 l 5
 338 -129 464 -152 558 -152 c 4
 746 -152 791 -31 791 47 c 4xc8
 791 132 748 194 691 223 c 4
 602 268 489 234 383 289 c 4
EndSplineSet
Layer: 3
EndChar
StartChar: dieresis
Encoding: 168 168 313
GlifName: dieresis
Width: 1024
VWidth: 0
Flags: MW
HStem: 1100 324<228.338 435.662 716.338 923.662>
LayerCount: 4
Back
Fore
SplineSet
820 1424 m 4
 903.678710938 1424 982 1345.67871094 982 1262 c 4
 982 1178.32128906 903.678710938 1100 820 1100 c 4
 736.321289062 1100 658 1178.32128906 658 1262 c 4
 658 1345.67871094 736.321289062 1424 820 1424 c 4
332 1424 m 4
 415.678710938 1424 494 1345.67871094 494 1262 c 4
 494 1178.32128906 415.678710938 1100 332 1100 c 4
 248.321289062 1100 170 1178.32128906 170 1262 c 4
 170 1345.67871094 248.321289062 1424 332 1424 c 4
EndSplineSet
Layer: 2
Layer: 3
EndChar
StartChar: copyright
Encoding: 169 169 513
GlifName: copyright
Width: 1024
VWidth: 0
Flags: W
HStem: 113 82<403.46 744.254> 374 120<494.749 745.532> 914 120<497.757 745.668> 1213 82<407.746 748.54>
VStem: 112 88<430.852 977.148> 352 128<506.38 901.392> 952 88<430.852 977.148>
LayerCount: 4
Back
SplineSet
576 1254 m 4
 642.182508122 1254 708.91182233 1240.81126701 768 1211 c 4
 811.681986195 1188.96149068 850.660607343 1157.75452256 881.989650702 1120.17390451 c 4
 913.31869406 1082.59328646 937.004265576 1038.95797087 953.878053846 993.033172773 c 4
 987.625630386 901.183576576 996 801.853192302 996 704 c 4
 996 606.146807698 987.625630386 506.816423424 953.878053846 414.966827227 c 4
 937.004265576 369.042029129 913.31869406 325.406713543 881.989650702 287.826095491 c 4
 850.660607343 250.245477439 811.681986195 219.038509318 768 197 c 4
 708.91182233 167.188732986 642.182508122 154 576 154 c 4
 509.817491878 154 443.08817767 167.188732986 384 197 c 4
 340.318013805 219.038509318 301.339392657 250.245477439 270.010349298 287.826095491 c 4
 238.68130594 325.406713543 214.995734424 369.042029129 198.121946154 414.966827227 c 4
 164.374369614 506.816423424 156 606.146807698 156 704 c 4
 156 801.853192302 164.374369614 901.183576576 198.121946154 993.033172773 c 4
 214.995734424 1038.95797087 238.68130594 1082.59328646 270.010349298 1120.17390451 c 4
 301.339392657 1157.75452256 340.318013805 1188.96149068 384 1211 c 4
 443.08817767 1240.81126701 509.817491878 1254 576 1254 c 4
  Spiro
    576 1254 o
    768 1211 o
    996 704 o
    768 197 o
    576 154 o
    384 197 o
    156 704 o
    384 1211 o
    0 0 z
  EndSpiro
EndSplineSet
Fore
SplineSet
748 400 m 5
 695 386 639 374 575 374 c 4
 500 374 448 395 410 436 c 4
 352 498 352 597 352 708 c 4
 352 763 352 853 375 912 c 4
 403 985 467 1034 576 1034 c 4
 629 1034 698 1021 748 1005 c 5
 748 875 l 5
 699 896 638 913 574 914 c 4
 530 914 509 904 495 871 c 4
 480 837 480 758 480 708 c 4
 480 603 481 541 506 515 c 4
 524 497 544 494 575 494 c 4
 627 494 696 508 748 526 c 5
 748 400 l 5
576 1213 m 0
 399 1213 289 1114 240 980 c 0
 209 895 200 800 200 704 c 0
 200 608 209 513 240 428 c 0
 289 294 398 195 576 195 c 0
 753 195 863 294 912 428 c 0
 943 513 952 608 952 704 c 0
 952 800 943 895 912 980 c 0
 863 1114 754 1213 576 1213 c 0
576 1295 m 0
 793 1295 936 1170 996 1006 c 0
 1032 908 1040 804 1040 704 c 0
 1040 604 1032 500 996 402 c 0
 936 238 793 113 576 113 c 0
 359 113 216 238 156 402 c 0
 120 500 112 604 112 704 c 0
 112 804 120 908 156 1006 c 0
 216 1170 359 1295 576 1295 c 0
EndSplineSet
Validated: 1
Layer: 2
Layer: 3
EndChar
StartChar: ordfeminine
Encoding: 170 170 526
GlifName: ordfeminine
Width: 1024
VWidth: 0
Flags: W
HStem: 752 120<408.496 584.937> 1152 120<407.314 640> 1419 21G<281 317.5> 1432 120<284.445 617.091>
VStem: 244 128<905.632 1116.74> 640 128<768 835 925.013 1152 1272 1410.11>
LayerCount: 4
Back
SplineSet
670 1212 m 1
 524 1212 l 2
 490.377285181 1212 456.09221627 1210.59631746 424.615276293 1198.77729883 c 0
 393.138336317 1186.95828019 365.499733587 1165.39064333 346 1138 c 0
 320.063595151 1101.56797332 307.999446692 1056.25057104 307.999446692 1011.52465575 c 0
 307.999446692 965.729092755 320.759545085 919.605930944 348 883 c 0
 364.088370904 861.380324552 385.141925693 843.445000217 409.171198478 831.244996356 c 0
 433.200471264 819.044992495 460.058157628 812.619010848 487 812 c 0
 498.029772171 811.74658197 509.078370262 812.438558769 520 814 c 0
 552.61150239 818.662394319 584.134090259 831.010158519 611.100534677 849.932602451 c 0
 638.066979095 868.855046382 660.181746196 894.577774334 675 924 c 0
 690.824071732 955.419316716 698.232061556 990.490554624 701.354343141 1025.53090375 c 0
 703.746336284 1052.37546358 704.026074818 1079.34281672 704.026074818 1106.30724196 c 0
 704.026074818 1114.53962681 704 1122.77173874 704 1131 c 2
 704 1290 l 2
 704 1319.15701392 703.478214136 1348.70305666 695.508959537 1376.74984688 c 0
 687.539704937 1404.7966371 671.978197134 1430.84039898 650 1450 c 0
 631.837301915 1465.83342103 609.746690834 1476.85680072 586.540372448 1483.34121359 c 0
 563.334054063 1489.82562647 539.095227975 1491.97150065 515 1492 c 0
 514.482600246 1492.0003057 l 0
 488.258283453 1492.0003057 462.090975704 1489.64877801 436 1487 c 0
 392.968629804 1482.63141876 349.995178874 1477.7114665 307 1473 c 0
 264.296449113 1468.32049046 221.619052042 1463.395134 179 1458 c 1024
  Spiro
    670 1212 {
    524 1212 ]
    346 1138 o
    308 1011 o
    348 883 o
    487 812 o
    520 814 o
    675 924 o
    704 1131 [
    704 1290 ]
    650 1450 o
    515 1492 o
    436 1487 o
    307 1473 o
    179 1458 o
    0 0 z
  EndSpiro
EndSplineSet
Fore
SplineSet
640 1106 m 6xcc
 640 1152 l 5
 524 1152 l 6
 492 1152 466 1150 448 1143 c 4
 402 1126 372 1074 372 1012 c 4
 372 937 416 872 489 872 c 4
 551 872 595 907 617 950 c 4
 637 990 640 1045 640 1106 c 6xcc
630 835 m 5
 585 783 541 752 467 752 c 4
 340 752 244 872 244 1012 c 4
 244 1125 310 1220 401 1254 c 4
 446 1271 489 1272 524 1272 c 6
 640 1272 l 5
 640 1305 640 1339 634 1361 c 4
 620 1411 584 1432 505 1432 c 4xdc
 429 1432 354 1424 281 1419 c 5xec
 281 1540 l 5
 355 1545 425 1552 505 1552 c 4xdc
 646 1552 728 1491 757 1392 c 4
 768 1354 768 1320 768 1290 c 6
 768 768 l 5
 640 768 l 5
 640 835 l 5
 630 835 l 5
EndSplineSet
Validated: 1
Layer: 2
Layer: 3
EndChar
StartChar: guillemotleft
Encoding: 171 171 311
GlifName: guillemotleft
Width: 1024
VWidth: 0
Flags: W
LayerCount: 4
Back
Fore
SplineSet
771 585 m 5
 771 575 l 5
 1041 220 l 5
 833 83 l 5
 512 512 l 5
 512 648 l 5
 833 1077 l 5
 1041 940 l 5
 771 585 l 5
323 585 m 5
 323 575 l 5
 593 220 l 5
 385 83 l 5
 64 512 l 5
 64 648 l 5
 385 1077 l 5
 593 940 l 5
 323 585 l 5
EndSplineSet
Layer: 2
Layer: 3
EndChar
StartChar: logicalnot
Encoding: 172 172 315
GlifName: logicalnot
Width: 1024
VWidth: 0
Flags: W
HStem: 524 240<128 768>
VStem: 768 256<264 524>
LayerCount: 4
Back
SplineSet
128 760 m 5
 1024 760 l 5
 1024 520 l 5
 128 520 l 5
 128 760 l 5
EndSplineSet
Fore
SplineSet
1024 764 m 1
 1024 264 l 1
 768 264 l 1
 768 524 l 1
 128 524 l 1
 128 764 l 1
 1024 764 l 1
EndSplineSet
Validated: 1
Layer: 2
Layer: 3
EndChar
StartChar: uni00AD
Encoding: 173 173 96
GlifName: uni00A_D_
Width: 1024
VWidth: 0
Flags: W
HStem: 520 240<128 1024>
LayerCount: 4
Back
Fore
SplineSet
128 760 m 5
 1024 760 l 5
 1024 520 l 5
 128 520 l 5
 128 760 l 5
EndSplineSet
Layer: 2
Layer: 3
EndChar
StartChar: registered
Encoding: 174 174 514
GlifName: registered
Width: 1024
VWidth: 0
Flags: W
HStem: 113 82<403.46 744.254> 640 120<512 598> 904 120<512 652.264> 1213 82<407.746 748.54>
VStem: 112 88<430.852 977.148> 384 128<384 640 760 904> 656 128<762.88 900.271> 952 88<430.852 977.148>
LayerCount: 3
Back
Fore
SplineSet
656 832 m 0
 656 881 646 904 595 904 c 2
 512 904 l 1
 512 760 l 1
 595 760 l 2
 645 760 656 783 656 832 c 0
784 832 m 0
 784 760 758 704 712 671 c 1
 809 384 l 1
 674 384 l 1
 598 640 l 1
 512 640 l 1
 512 384 l 1
 384 384 l 1
 384 1024 l 1
 595 1024 l 2
 715 1024 784 951 784 832 c 0
576 1213 m 0
 399 1213 289 1114 240 980 c 0
 209 895 200 800 200 704 c 0
 200 608 209 513 240 428 c 0
 289 294 398 195 576 195 c 0
 753 195 863 294 912 428 c 0
 943 513 952 608 952 704 c 0
 952 800 943 895 912 980 c 0
 863 1114 754 1213 576 1213 c 0
576 1295 m 0
 793 1295 936 1170 996 1006 c 0
 1032 908 1040 804 1040 704 c 0
 1040 604 1032 500 996 402 c 0
 936 238 793 113 576 113 c 0
 359 113 216 238 156 402 c 0
 120 500 112 604 112 704 c 0
 112 804 120 908 156 1006 c 0
 216 1170 359 1295 576 1295 c 0
EndSplineSet
Validated: 1
Layer: 2
EndChar
StartChar: macron
Encoding: 175 175 316
GlifName: macron
Width: 1024
VWidth: 0
Flags: W
HStem: 1152 240<256 896>
LayerCount: 4
Back
Fore
SplineSet
256 1392 m 5
 896 1392 l 5
 896 1152 l 5
 256 1152 l 5
 256 1392 l 5
EndSplineSet
Validated: 1
Layer: 2
Layer: 3
EndChar
StartChar: degree
Encoding: 176 176 314
GlifName: degree
Width: 1024
VWidth: 0
Flags: W
HStem: 1022 160<500.611 651.389> 1378 160<500.611 651.389>
VStem: 318 168<1195.39 1364.61> 666 168<1195.39 1364.61>
AnchorPoint: "top" 576 1152 mark 0
LayerCount: 4
Back
Fore
SplineSet
576 1538 m 4
 728.763157895 1538 834 1423.71052632 834 1280 c 4
 834 1136.28947368 728.763157895 1022 576 1022 c 4
 423.236842105 1022 318 1136.28947368 318 1280 c 4
 318 1423.71052632 423.236842105 1538 576 1538 c 4
576 1378 m 4
 523.5 1378 486 1343.546875 486 1280 c 4
 486 1216.453125 523.5 1182 576 1182 c 4
 628.5 1182 666 1216.453125 666 1280 c 4
 666 1343.546875 628.5 1378 576 1378 c 4
EndSplineSet
Layer: 2
Layer: 3
EndChar
StartChar: plusminus
Encoding: 177 177 289
GlifName: plusminus
Width: 1024
VWidth: 0
Flags: W
HStem: 144 240<128 1024> 712 240<128 448 704 1024>
VStem: 448 256<512 712 952 1152>
LayerCount: 4
Back
Fore
SplineSet
704 952 m 1
 1024 952 l 1
 1024 712 l 1
 704 712 l 1
 704 512 l 1
 448 512 l 1
 448 712 l 1
 128 712 l 1
 128 952 l 1
 448 952 l 1
 448 1152 l 1
 704 1152 l 1
 704 952 l 1
128 384 m 1
 1024 384 l 1
 1024 144 l 1
 128 144 l 1
 128 384 l 1
EndSplineSet
Validated: 1
Layer: 2
Layer: 3
EndChar
StartChar: uni00B2
Encoding: 178 178 509
GlifName: uni00B_2
Width: 1024
VWidth: 0
Flags: W
HStem: 768 120<388 768> 1432 120<259.361 624.34>
VStem: 250 138<888 955.739> 652 128<1217.08 1402.22>
LayerCount: 4
Back
Fore
SplineSet
256 1525 m 5
 329 1540 409 1552 499 1552 c 4
 689 1552 780 1441 780 1317 c 4
 780 1167 661 1089 562 1039 c 4
 486 1001 413 967 388 898 c 5
 388 888 l 5
 768 888 l 5
 768 768 l 5
 250 768 l 5
 250 828 l 6
 250 991 372 1085 490 1141 c 4
 564 1176 652 1221 652 1317 c 4
 652 1355 638 1432 499 1432 c 4
 416 1432 326 1419 256 1405 c 5
 256 1525 l 5
EndSplineSet
Validated: 1
Layer: 2
Layer: 3
EndChar
StartChar: uni00B3
Encoding: 179 179 508
GlifName: uni00B_3
Width: 1024
VWidth: 0
Flags: W
HStem: 752 192<259.455 645.032> 1056 192<384 638.146> 1360 192<269.221 637.739>
VStem: 652 256<959.94 1040.59 1267.53 1342.59>
CounterMasks: 1 e0
LayerCount: 4
Back
Fore
SplineSet
754 1150 m 5
 862.962264151 1111 908 1048 908 983 c 4
 908 836 729.170212766 752 498 752 c 4
 409 752 330 759 256 767 c 5
 256 959 l 5
 329 952 424 944 498 944 c 4
 591 944 652 961.027027027 652 998 c 4
 652 1047.97272591 561.584052128 1056 462 1056 c 6
 384 1056 l 5
 384 1248 l 5
 462 1248 l 6
 559.253921732 1248 643 1257.67468283 643 1307 c 4
 643 1342.17272727 589 1360 496 1360 c 4
 423 1360 333 1350 266 1343 c 5
 266 1535 l 5
 336 1544 411 1552 496 1552 c 4
 742.196363636 1552 899 1460 899 1322 c 4
 899 1261 861.628865979 1201 754 1160 c 5
 754 1150 l 5
EndSplineSet
Validated: 1
Layer: 2
Layer: 3
EndChar
StartChar: acute
Encoding: 180 180 308
GlifName: acute
Width: 1024
VWidth: 0
Flags: W
HStem: 1024 384
LayerCount: 4
Back
Fore
SplineSet
435 1024 m 5
 691 1024 l 5
 857 1408 l 5
 591 1408 l 5
 435 1024 l 5
EndSplineSet
Layer: 2
Layer: 3
EndChar
StartChar: mu
Encoding: 181 181 288
GlifName: mu
Width: 1024
VWidth: 0
Flags: W
HStem: -16 240<525.39 626.6> 0 21G<640 896> 1004 20G<256 512 640 896>
VStem: 256 256<-384 32 229.09 1024> 640 256<0 32 229.093 1024>
LayerCount: 4
Back
Fore
SplineSet
576 -16 m 0xb8
 555.824175824 -16 535.054945055 3.125 522 32 c 5
 512 32 l 5
 512 -384 l 1
 256 -384 l 1
 256 1024 l 1
 512 1024 l 1
 512 367 l 2
 512 283.468117874 524.446479345 224 576 224 c 0xb8
 627.500940064 224 640 283.501823976 640 367 c 2
 640 1024 l 1
 896 1024 l 1
 896 0 l 1
 640 0 l 1x78
 640 32 l 5
 630 32 l 5
 616.945054945 3.125 596.175824176 -16 576 -16 c 0xb8
EndSplineSet
Layer: 2
Layer: 3
EndChar
StartChar: periodcentered
Encoding: 183 183 95
GlifName: periodcentered
Width: 1024
VWidth: 0
Flags: W
HStem: 560 288<408.125 615.875>
VStem: 368 288<600.125 807.875>
LayerCount: 4
Back
Fore
SplineSet
512 848 m 4
 597 848 656 789 656 704 c 4
 656 619 597 560 512 560 c 4
 427 560 368 619 368 704 c 4
 368 789 427 848 512 848 c 4
EndSplineSet
Validated: 1
Layer: 2
Layer: 3
EndChar
StartChar: cedilla
Encoding: 184 184 307
GlifName: cedilla
Width: 1024
VWidth: 0
Flags: W
HStem: -272 180<256 438.661>
VStem: 452 188<-59.0159 23>
AnchorPoint: "bottom" 576 0 mark 0
LayerCount: 4
Back
Fore
SplineSet
640 23 m 1
 640 -37 640 -107 588 -177 c 0
 546.422397749 -232.969849185 479.588235294 -272 394 -272 c 0
 356.265625 -272 306.671875 -267.882352941 256 -262 c 1
 256 -82 l 1
 300.25 -87.5 342.65625 -92 374 -92 c 0
 405.581612854 -92 427.022508996 -80.6914320799 437.707987025 -60.0000014834 c 0
 448.481333603 -39.1384216436 452 -9.76124016549 452 23 c 1
 640 23 l 1
EndSplineSet
Layer: 2
Layer: 3
EndChar
StartChar: uni00B9
Encoding: 185 185 508
GlifName: uni00B_9
Width: 1024
VWidth: 0
Flags: W
VStem: 512 128<768 1378>
LayerCount: 3
Back
Fore
SplineSet
532 1536 m 5
 640 1536 l 5
 640 768 l 5
 512 768 l 5
 512 1378 l 5
 502 1378 l 5
 256 1246 l 5
 256 1380 l 5
 532 1536 l 5
EndSplineSet
Validated: 1
Layer: 2
EndChar
StartChar: ordmasculine
Encoding: 186 186 523
GlifName: ordmasculine
Width: 1024
VWidth: 0
Flags: W
HStem: 752 220<450.066 573.934> 1332 220<450.066 573.934>
VStem: 172 256<986.525 1317.48> 596 256<986.525 1317.48>
LayerCount: 4
Back
SplineSet
512 1492 m 0
 501.970148181 1492 491.937713604 1491.35638337 482 1490 c 0
 446.931650295 1485.21357444 413.13177304 1470.72520213 386.105184671 1447.87213797 c 0
 359.078596301 1425.0190738 339.127239472 1394.47464433 326.239250671 1361.51104675 c 0
 300.46327307 1295.58385159 300 1222.78697678 300 1152 c 0
 300 1081.21302321 300.463273071 1008.4161484 326.239250672 942.488953248 c 0
 339.127239472 909.52535567 359.078596302 878.980926195 386.105184671 856.12786203 c 0
 413.13177304 833.274797866 446.931650296 818.786425557 482 814 c 0
 491.937713604 812.64361663 501.970148181 812 512 812 c 0
 522.029851819 812 532.062286396 812.64361663 542 814 c 0
 577.068349705 818.786425557 610.86822696 833.274797866 637.894815329 856.127862031 c 0
 664.921403699 878.980926196 684.872760528 909.525355672 697.760749329 942.48895325 c 0
 723.53672693 1008.41614841 722.906841187 1143.27151724 724 1152 c 1
 724 1222.78697679 723.536726929 1295.5838516 697.760749328 1361.51104675 c 0
 684.872760528 1394.47464433 664.921403698 1425.01907381 637.894815329 1447.87213797 c 0
 610.86822696 1470.72520213 577.068349704 1485.21357444 542 1490 c 0
 532.062286396 1491.35638337 522.029851819 1492 512 1492 c 0
  Spiro
    512 1492 o
    482 1490 o
    300 1152 o
    482 814 o
    512 812 o
    542 814 o
    724 1152 o
    542 1490 o
    0 0 z
  EndSpiro
EndSplineSet
Fore
SplineSet
512 1552 m 0
 850.768115942 1552 852 1256 852 1152 c 0
 852 1048 850.768115942 752 512 752 c 0
 173.231884058 752 172 1048 172 1152 c 0
 172 1256 173.231884058 1552 512 1552 c 0
428 1152 m 0
 428 1070.35714286 433.108108108 972 512 972 c 4
 590.891891892 972 596 1070.35714286 596 1152 c 0
 596 1233.64285714 590.891891892 1332 512 1332 c 0
 433.108108108 1332 428 1233.64285714 428 1152 c 0
EndSplineSet
Validated: 1
Layer: 2
Layer: 3
EndChar
StartChar: guillemotright
Encoding: 187 187 310
GlifName: guillemotright
Width: 1024
VWidth: 0
Flags: W
LayerCount: 4
Back
Fore
SplineSet
381 585 m 5
 111 940 l 5
 319 1077 l 5
 640 648 l 5
 640 512 l 5
 319 83 l 5
 111 220 l 5
 381 575 l 5
 381 585 l 5
829 585 m 5
 559 940 l 5
 767 1077 l 5
 1088 648 l 5
 1088 512 l 5
 767 83 l 5
 559 220 l 5
 829 575 l 5
 829 585 l 5
EndSplineSet
Validated: 1
Layer: 2
Layer: 3
EndChar
StartChar: onequarter
Encoding: 188 188 500
GlifName: onequarter
Width: 1024
VWidth: 0
Flags: W
HStem: 128 120<643 896>
VStem: 384 128<768 1378> 896 128<-128 128 248 640>
LayerCount: 3
Back
Fore
SplineSet
404 1536 m 1
 512 1536 l 1
 512 768 l 1
 384 768 l 1
 384 1378 l 1
 374 1378 l 1
 128 1246 l 1
 128 1380 l 1
 404 1536 l 1
1024 -128 m 5
 896 -128 l 5
 896 128 l 5
 512 128 l 5
 512 200 l 5
 590 640 l 5
 711 640 l 5
 643 248 l 5
 896 248 l 5
 896 640 l 5
 1024 640 l 5
 1024 -128 l 5
EndSplineSet
Validated: 1
Layer: 2
EndChar
StartChar: onehalf
Encoding: 189 189 497
GlifName: onehalf
Width: 1024
VWidth: 0
Flags: W
HStem: -128 210<764 1152> 446 210<515.361 904.328>
VStem: 384 256<768 1258>
LayerCount: 4
Back
SplineSet
404 1536 m 5xe8
 640 1536 l 5
 640 768 l 5
 384 768 l 5
 384 1258 l 5
 374 1258 l 5
 128 1126 l 5
 128 1380 l 5
 404 1536 l 5xe8
512 629 m 5
 585 644 665 656 755 656 c 4
 945 656 1036 545 1036 421 c 4
 1036 271 917 193 818 143 c 4
 742 105 669 71 644 2 c 5
 644 -8 l 5
 1024 -8 l 5
 1024 -128 l 5
 506 -128 l 5
 506 -68 l 6xd8
 506 95 628 189 746 245 c 4
 820 280 908 325 908 421 c 4
 908 459 894 536 755 536 c 4
 672 536 582 523 512 509 c 5
 512 629 l 5
EndSplineSet
Fore
SplineSet
404 1536 m 1
 640 1536 l 1
 640 768 l 1
 384 768 l 1
 384 1258 l 1
 374 1258 l 1
 128 1126 l 1
 128 1380 l 1
 404 1536 l 1
512 629 m 5
 585 644 665 656 755 656 c 4
 1051.5480427 656 1164 540.829787234 1164 391 c 4
 1164 237.18705036 1005.12844037 187.604316547 818 143 c 4
 791.445138426 136.670329057 771.75862069 116.957446809 764 92 c 5
 764 82 l 5
 1152 82 l 5
 1152 -128 l 5
 506 -128 l 5
 506 62 l 6
 506 238.961661342 600.378695468 306.095073949 746 325 c 4
 820.210517064 336.698667803 908 349.727272727 908 393 c 4
 908 410.513043478 894 446 755 446 c 4
 672 446 582 433 512 419 c 5
 512 629 l 5
EndSplineSet
Layer: 2
Layer: 3
EndChar
StartChar: threequarters
Encoding: 190 190 505
GlifName: threequarters
Width: 1024
VWidth: 0
Flags: W
HStem: 68 240<635 768> 752 192<131.455 516.998> 1056 192<256 510.198> 1360 192<141.221 509.701>
VStem: 524 256<959.935 1040.6 1267.6 1342.56> 768 256<-128 68 308 640>
LayerCount: 4
Back
SplineSet
546 1150 m 5xee
 621 1111 652 1048 652 983 c 4
 652 836 529 752 370 752 c 4
 281 752 202 759 128 767 c 5
 128 887 l 5
 201 880 296 872 370 872 c 4
 463 872 524 907 524 983 c 4
 524 1041 479 1077 426 1087 c 4
 400 1092 369 1092 334 1092 c 6
 256 1092 l 5
 256 1212 l 5
 334 1212 l 6
 368 1212 397 1213 422 1218 c 4
 474 1229 515 1264 515 1322 c 4
 515 1395 461 1432 368 1432 c 4xee
 295 1432 205 1422 138 1415 c 5xf6
 138 1535 l 5
 208 1544 283 1552 368 1552 c 4
 536 1552 643 1460 643 1322 c 4
 643 1261 618 1201 546 1160 c 5
 546 1150 l 5xee
EndSplineSet
Fore
SplineSet
626 1150 m 1xf8
 735 1111 780 1048 780 983 c 0
 780 836 601 752 370 752 c 0
 281 752 202 759 128 767 c 1
 128 959 l 1
 201 952 296 944 370 944 c 0
 463 944 524 961 524 998 c 0
 524 1048 434 1056 334 1056 c 2
 256 1056 l 1
 256 1248 l 1
 334 1248 l 2
 431 1248 515 1258 515 1307 c 0
 515 1342 461 1360 368 1360 c 0
 295 1360 205 1350 138 1343 c 1
 138 1535 l 1
 208 1544 283 1552 368 1552 c 0
 614 1552 771 1460 771 1322 c 0
 771 1261 734 1201 626 1160 c 1
 626 1150 l 1xf8
1024 -128 m 1xf4
 768 -128 l 1
 768 68 l 1
 384 68 l 1
 384 260 l 1
 462 640 l 1
 693 640 l 1
 635 308 l 1
 768 308 l 1
 768 640 l 1
 1024 640 l 1
 1024 -128 l 1xf4
EndSplineSet
Validated: 1
Layer: 2
Layer: 3
EndChar
StartChar: questiondown
Encoding: 191 191 101
GlifName: questiondown
Width: 1024
VWidth: 0
Flags: MW
HStem: -272 240<522.373 870.635> 822 346<460.16 691.84>
VStem: 244 256<-6.38404 250.359>
LayerCount: 4
Back
Fore
SplineSet
576 822 m 4
 474 822 403 893 403 995 c 4
 403 1097 474 1168 576 1168 c 4
 678 1168 749 1097 749 995 c 4
 749 893 678 822 576 822 c 4
704 640 m 1
 704 544 704.223955385 452.801639871 605 341 c 0
 534 261 500 183 500 80 c 0
 500 8 543 -32 648 -32 c 0
 722 -32 808 -12 874 5 c 1
 874 -235 l 1
 797 -253 702 -272 618 -272 c 0
 375 -272 244 -146 244 60 c 0
 244 220 288.046284683 312.963536105 381 431 c 0
 444 511 448 587 448 640 c 1
 704 640 l 1
EndSplineSet
Layer: 2
Layer: 3
EndChar
StartChar: Atilde
Encoding: 195 195 99
GlifName: A_tilde
Width: 1024
VWidth: 0
Flags: W
HStem: 0 21G<105 246 906 1047> 384 120<348 804> 1005 147<549.152 602.848> 1284 120<627.68 755.914> 1412 120<396.111 524.32>
VStem: 105 130<0 215.138> 253 128<1305 1405.1> 771 128<1411.78 1511> 917 130<0 215.077>
LayerCount: 4
Back
Refer: 94 126 N 1 0 0 1 0 1036 2
Refer: 29 65 N 1 0 0 1 0 0 3
Fore
SplineSet
522 1152 m 1
 630 1152 l 1
 851 828 969 478 1047 0 c 1
 917 0 l 1
 895 139 869 266 838 384 c 1
 314 384 l 1
 283 266 257 139 235 0 c 1
 105 0 l 1
 183 478 301 829 522 1152 c 1
348 504 m 1
 804 504 l 1
 748 686 676 848 581 1005 c 1
 571 1005 l 1
 476 849 404 686 348 504 c 1
448 1412 m 0
 397 1412 384 1353 381 1299 c 1
 253 1305 l 1
 257 1423 319 1532 448 1532 c 0
 594 1532 627 1404 704 1404 c 0
 755 1404 768 1463 771 1517 c 1
 899 1511 l 1
 896 1395 833 1284 704 1284 c 0
 558 1284 525 1412 448 1412 c 0
EndSplineSet
Validated: 1
Layer: 2
Layer: 3
EndChar
StartChar: Aring
Encoding: 197 197 104
GlifName: A_ring
Width: 1024
VWidth: 0
Flags: W
HStem: 0 21G<105 368 784 1047> 272 240<431 721> 1604 160<500.631 651.369>
VStem: 318 168<1421.29 1590.17> 666 168<1421.29 1590.17>
LayerCount: 4
Back
Fore
SplineSet
576 1604 m 4
 524 1604 486 1570 486 1506 c 4
 486 1442 524 1408 576 1408 c 4
 628 1408 666 1442 666 1506 c 4
 666 1570 628 1604 576 1604 c 4
576 1764 m 4
 729 1764 834 1650 834 1506 c 4
 834 1450 818 1399 790 1357 c 5
 922 926 994 463 1047 0 c 5
 788 0 l 5
 780 91 769 182 755 272 c 5
 397 272 l 5
 383 182 372 91 364 0 c 5
 105 0 l 5
 158 463 230 926 362 1357 c 5
 334 1399 318 1450 318 1506 c 4
 318 1650 423 1764 576 1764 c 4
721 512 m 5
 685 745 640 973 581 1191 c 5
 571 1191 l 5
 512 974 467 745 431 512 c 5
 721 512 l 5
EndSplineSet
Validated: 1
Layer: 2
Layer: 3
EndChar
StartChar: AE
Encoding: 198 198 105
GlifName: A_E_
Width: 1024
VWidth: 0
Flags: MW
HStem: 0 240<832 1024> 268 240<387 576> 584 240<832 1024> 1168 240<500.061 576 832 1024>
VStem: 103 256<0 253.803> 576 256<240 268 508 584 824 1168>
LayerCount: 4
Back
SplineSet
359 0 m 1
 359 496 433 971 603 1408 c 1029
EndSplineSet
Fore
SplineSet
576 268 m 1
 367 268 l 1
 362.764705882 190.639175258 359 107.06185567 359 0 c 1
 103 0 l 1
 103 496 187 971 357 1408 c 1
 1024 1408 l 1
 1024 1168 l 1
 832 1168 l 1
 832 824 l 1
 1024 824 l 1
 1024 584 l 1
 832 584 l 1
 832 240 l 1
 1024 240 l 1
 1024 0 l 1
 576 0 l 1
 576 268 l 1
576 508 m 1
 576 1168 l 1
 510 1168 l 1
 456.134274415 969.153846154 416.05459389 783.923076923 387 508 c 1
 576 508 l 1
EndSplineSet
Validated: 524289
Layer: 2
Layer: 3
EndChar
StartChar: Ccedilla
Encoding: 199 199 106
GlifName: C_cedilla
Width: 1024
VWidth: 0
Flags: W
HStem: -273 180<384 566.661> -16 240<495.606 955.34> 1184 240<495.561 925.607>
VStem: 112 248<386.421 1021.54> 580 188<-60.0159 22>
LayerCount: 4
Back
SplineSet
1024 141 m 5
 1024 21 l 5
 907 1 777 -16 643 -16 c 4
 358 -16 199 142 143 364 c 4
 114 478 112 594 112 704 c 4
 112 814 114 930 143 1044 c 4
 201 1266 355 1424 643 1424 c 4
 766 1424 885 1412 994 1395 c 5
 994 1275 l 5
 881 1292 755 1304 643 1304 c 4
 420 1304 312 1188 268 1016 c 4
 243 919 240 813 240 704 c 4
 240 595 243 489 268 392 c 4
 312 220 420 104 643 104 c 4
 765 104 903 121 1024 141 c 5
EndSplineSet
Fore
Refer: 305 807 N 1 0 0 1 128 -1 2
Refer: 31 67 N 1 0 0 1 0 0 3
Layer: 2
Layer: 3
EndChar
StartChar: Ecircumflex
Encoding: 202 202 109
GlifName: E_circumflex
Width: 1024
VWidth: 0
Flags: W
HStem: 0 120<384 1024> 516 120<384 896> 1032 120<384 1024>
VStem: 256 128<120 516 636 1032>
CounterMasks: 1 e0
LayerCount: 4
Back
Fore
SplineSet
497 1536 m 1
 655 1536 l 1
 952 1280 l 1
 794 1280 l 1
 576 1444 l 1
 358 1280 l 1
 200 1280 l 1
 497 1536 l 1
256 1152 m 1
 1024 1152 l 1
 1024 1032 l 1
 384 1032 l 1
 384 636 l 1
 896 636 l 1
 896 516 l 1
 384 516 l 1
 384 120 l 1
 1024 120 l 1
 1024 0 l 1
 256 0 l 1
 256 1152 l 1
EndSplineSet
Validated: 1
Layer: 2
Layer: 3
EndChar
StartChar: Igrave
Encoding: 204 204 111
GlifName: I_grave
Width: 1024
VWidth: 0
Flags: W
HStem: 0 120<256 512 640 896> 1032 120<256 512 640 896>
VStem: 512 128<120 1032>
LayerCount: 3
Back
Fore
SplineSet
664 1280 m 1
 526 1280 l 1
 360 1536 l 1
 498 1536 l 1
 664 1280 l 1
896 1152 m 1
 896 1032 l 1
 640 1032 l 1
 640 120 l 1
 896 120 l 1
 896 0 l 1
 256 0 l 1
 256 120 l 1
 512 120 l 1
 512 1032 l 1
 256 1032 l 1
 256 1152 l 1
 896 1152 l 1
EndSplineSet
Validated: 1
Layer: 2
EndChar
StartChar: multiply
Encoding: 215 215 122
GlifName: multiply
Width: 1024
VWidth: 0
Flags: W
LayerCount: 4
Back
Fore
SplineSet
815 574 m 5
 1046 345 l 5
 859 181 l 5
 642 401 l 5
 581 486 l 5
 571 486 l 5
 512 403 l 5
 293 181 l 5
 105 345 l 5
 339 576 l 5
 422 635 l 5
 422 645 l 5
 339 704 l 5
 106 935 l 5
 293 1099 l 5
 510 879 l 5
 571 794 l 5
 581 794 l 5
 642 879 l 5
 859 1099 l 5
 1046 935 l 5
 815 706 l 5
 730 645 l 5
 730 635 l 5
 815 574 l 5
EndSplineSet
Validated: 1
Layer: 2
Layer: 3
EndChar
StartChar: Oslash
Encoding: 216 216 123
GlifName: O_slash
Width: 1024
VWidth: 0
Flags: W
HStem: -16 240<468.92 681.823> 1184 240<470.177 683.08>
VStem: 112 256<560.444 1051.38> 784 256<356.619 850.984>
LayerCount: 4
Back
SplineSet
46.2043576848 66.3161626247 m 29
 882.204357685 1474.31616262 l 29
 1105.79564232 1341.68383738 l 29
 269.795642315 -66.3161626247 l 29
 46.2043576848 66.3161626247 l 29
EndSplineSet
Fore
SplineSet
371 554 m 5
 706 1118 l 5
 674 1158 631 1184 576 1184 c 4
 465 1184 404 1080 383 962 c 4
 369 885 368 797 368 704 c 4
 368 652 368 602 371 554 c 5
446 290 m 5
 478 250 521 224 576 224 c 4
 687 224 748 328 769 446 c 4
 783 523 784 611 784 704 c 4
 784 756 784 806 781 854 c 5
 446 290 l 5
339.625532134 51.2920728604 m 5
 269.795642315 -66.3161626247 l 5
 46.2043576848 66.3161626247 l 5
 167.306272328 270.277282023 l 5
 117.050246874 394.846330284 112 534.272424519 112 704 c 4
 112 831 115 950 140 1053 c 4
 189 1253 331 1424 576 1424 c 4
 669.60909147 1424 748.400580758 1399.04403843 812.374467866 1356.70792714 c 5
 882.204357685 1474.31616262 l 5
 1105.79564232 1341.68383738 l 5
 984.729953439 1137.78372979 l 5
 1034.95218025 1014.30141354 1040 881.024592344 1040 704 c 4
 1040 577 1037 458 1012 355 c 4
 963 155 821 -16 576 -16 c 4
 482.39090853 -16 403.599419242 8.95596156876 339.625532134 51.2920728604 c 5
373.986625908 393.044707681 m 5
 367.76094061 383.579641416 l 5
 369 384 l 5
 373.986625908 393.044707681 l 5
EndSplineSet
Validated: 1
Layer: 2
Layer: 3
EndChar
StartChar: Thorn
Encoding: 222 222 129
GlifName: T_horn
Width: 1024
VWidth: 0
Flags: W
HStem: 0 21G<128 384> 264 240<384 708.995> 912 240<384 708.995> 1388 20G<128 384>
VStem: 128 256<0 264 504 912 1152 1408> 784 256<578.496 837.643>
LayerCount: 4
Back
Fore
SplineSet
384 1152 m 5
 508 1152 l 6
 597 1152 656 1152 719 1137 c 4
 902 1093 1040 935 1040 708 c 4
 1040 481 902 322 719 279 c 4
 656 264 597 264 508 264 c 6
 384 264 l 5
 384 0 l 5
 128 0 l 5
 128 1408 l 5
 384 1408 l 5
 384 1152 l 5
384 912 m 5
 384 504 l 5
 510 504 l 6
 572 504 606 506 635 512 c 4
 724 531 784 605 784 708 c 4
 784 811 724 886 635 904 c 4
 606 910 572 912 510 912 c 6
 384 912 l 5
EndSplineSet
Layer: 2
Layer: 3
EndChar
StartChar: germandbls
Encoding: 223 223 130
GlifName: germandbls
Width: 1024
VWidth: 0
Flags: W
HStem: -16 120<519.48 712.26> 0 21G<256 384> 772 120<562 672.167> 1304 120<440.355 665.038>
VStem: 256 128<0 1246.87> 724 128<947.875 1242.02> 800 128<203.964 657.073>
LayerCount: 3
Back
Fore
SplineSet
730 833 m 5x7c
 888 779 928 646 928 438 c 4
 928 178 841 -16 612 -16 c 4
 571 -16 533 -10 504 -5 c 5
 520 113 l 5
 546 108 574 104 592 104 c 4
 772 104 800 264 800 438 c 4xba
 800 631 749 772 562 772 c 5
 562 892 l 5
 676 892 724 969 724 1098 c 4
 724 1227 666 1304 562 1304 c 4
 420 1304 384 1218 384 1078 c 6
 384 0 l 5
 256 0 l 5
 256 1078 l 6
 256 1278 353 1424 562 1424 c 4
 740 1424 852 1283 852 1098 c 4
 852 991 832 893 730 843 c 5
 730 833 l 5x7c
EndSplineSet
Validated: 1
Layer: 2
EndChar
StartChar: aacute
Encoding: 225 225 132
GlifName: aacute
Width: 1024
VWidth: 0
Flags: W
HStem: -16 120<422.068 653.377> 0 21G<768 896> 512 110<427.031 768> 920 120<324.118 734.871> 1388 20G<641.031 792>
VStem: 224 128<173.279 436.002> 768 128<0 123 224.795 512 622 886.778>
LayerCount: 3
Back
Fore
SplineSet
768 512 m 1xbe
 572 512 l 2
 517 512 459 512 408 458 c 0
 372 420 352 362 352 303 c 0
 352 194 417 104 532 104 c 0
 762 104 768 341 768 471 c 2
 768 512 l 1xbe
608 1040 m 0
 704 1040 805 1021 866 913 c 0
 896 860 896 785 896 749 c 2
 896 0 l 1
 768 0 l 1x7e
 768 123 l 1
 758 123 l 1
 694 35 617 -16 508 -16 c 0
 350 -16 224 116 224 301 c 0
 224 383 249 470 312 533 c 0
 402 622 512 622 574 622 c 2
 768 622 l 1
 768 744 l 2
 768 788 768 831 750 862 c 0
 729 898 696 920 608 920 c 0
 520 920 408 910 320 899 c 1
 320 1021 l 1
 407 1031 516 1040 608 1040 c 0
488 1152 m 1
 654 1408 l 1
 792 1408 l 1
 626 1152 l 1
 488 1152 l 1
EndSplineSet
Validated: 1
Layer: 2
EndChar
StartChar: ae
Encoding: 230 230 137
GlifName: ae
Width: 1024
VWidth: 0
Flags: MW
HStem: -16 240<293.692 445.663 694.003 1024> 392 220<671 837> 804 240<131.557 472.054 695.443 817.454>
VStem: 96 188<230.559 400.408> 482 188<258.096 392 632 782.65> 837 217<612 791.179>
AnchorPoint: "top" 576 1024 basechar 0
LayerCount: 4
Back
SplineSet
704 1040 m 4
 866 1040 975 950 1019 839 c 4
 1055 747 1056 637 1056 512 c 6
 1056 392 l 5
 609 392 l 5
 609 350 610 308 624 277 c 4
 641 242 674 224 724 224 c 4
 817 224 919 233 1024 244 c 5
 1024 5 l 5
 920 -7 824 -16 724 -16 c 4
 550 -16 439 77 392 193 c 4
 354 286 352 391 352 512 c 4
 352 637 354 746 389 839 c 4
 431 951 542 1040 704 1040 c 4
704 800 m 4
 610.261631228 800 609.573322809 706.919402498 608 612 c 5
 800 612 l 5
 798.426120423 706.952992627 798.690093106 800 704 800 c 4
EndSplineSet
Fore
SplineSet
284 309 m 0
 284 270.024390244 302.580645161 224 348 224 c 0
 464.338166262 224 482 317.910913154 482 401 c 2
 482 412 l 1
 377 412 l 2
 304.901492021 412 284 364.173864836 284 309 c 0
568 90 m 5
 522.247787611 26.012195122 446.318584071 -16 348 -16 c 0
 177 -16 96 144 96 309 c 0
 96 443 151.053578085 564.881380562 253 611 c 0
 295 630 337 632 370 632 c 2
 482 632 l 1
 482 708 l 2
 482 770.181818182 465.75 804 352 804 c 0
 306 804 204 795 128 786 c 1
 128 1026 l 1
 203 1035 303 1044 352 1044 c 0
 440 1044 533 1036.91970803 593 947 c 1
 603 947 l 1
 644 1005.03759398 705 1040 790 1040 c 0
 928 1040 1006.64485674 916.912949012 1035 802 c 0
 1054 725 1054 649 1054 577 c 2
 1054 392 l 1
 670 392 l 1
 670 349 l 2
 670 287.356164384 681.8125 224 832 224 c 0
 888 224 962 231.2 1024 236 c 1
 1024 -4 l 1
 961 -9.21739130435 891 -16 829 -16 c 0
 721.428571429 -16 631.273469388 16.3170731707 578 90 c 5
 568 90 l 5
837 612 m 1
 835.559556978 713.139630602 835.294169664 800 760 800 c 0
 681.126605419 800 672.446685544 711.050708968 671 612 c 1
 837 612 l 1
EndSplineSet
Layer: 2
Layer: 3
EndChar
StartChar: edieresis
Encoding: 235 235 142
GlifName: edieresis
Width: 1024
VWidth: 0
Flags: W
HStem: -16 120<457.677 891.106> 512 120<354 798> 920 120<444.73 707.27> 1200 224<264.237 439.763 712.237 887.763>
VStem: 224 128<219.686 512 632 819.315> 240 224<1224.24 1399.76> 688 224<1224.24 1399.76>
LayerCount: 4
Back
Fore
SplineSet
576 920 m 0xf2
 478.995117188 920 409.706054688 874 381 799 c 0
 360.48046875 751 357.240234375 693 354 632 c 1
 798 632 l 1
 794.759765625 693 791.51953125 751 771 799 c 0
 742.293945312 874 673.004882812 920 576 920 c 0xf2
576 1040 m 0
 737.971679688 1040 849.264648438 951 891 839 c 0
 926.942382812 747 928 637 928 512 c 1
 352 512 l 1
 352 410 352 308 384 235 c 0
 421 151 490 104 596 104 c 0
 689 104 791 113 896 125 c 1
 896 5 l 1
 792 -7 696 -16 596 -16 c 0
 422 -16 311 77 264 193 c 0
 226 286 224 391 224 512 c 0xfa
 224 637 225.057617188 747 261 839 c 0
 302.735351562 951 414.028320312 1040 576 1040 c 0
800 1424 m 0
 866 1424 912 1378 912 1312 c 0
 912 1246 866 1200 800 1200 c 0
 734 1200 688 1246 688 1312 c 0
 688 1378 734 1424 800 1424 c 0
352 1424 m 0
 418 1424 464 1378 464 1312 c 0xf6
 464 1246 418 1200 352 1200 c 0xfa
 286 1200 240 1246 240 1312 c 0xf6
 240 1378 286 1424 352 1424 c 0
EndSplineSet
Validated: 1
Layer: 2
Layer: 3
EndChar
StartChar: eth
Encoding: 240 240 147
GlifName: eth
Width: 1024
VWidth: 0
Flags: W
HStem: -16 260<517.775 636.041> 652 244<433.096 620.397> 652 198<539.692 635.127>
VStem: 224 266<264.148 633.108> 662 266<264.148 630.243>
LayerCount: 4
Back
SplineSet
406 1035 m 1
 362 1101 l 1
 540 1222 l 1
 489 1274 432 1317 371 1350 c 1
 413 1428 l 1
 497 1390 570 1342 632 1284 c 1
 828 1417 l 1
 872 1351 l 1
 688 1226 l 1
 866 1043 928 778 928 448 c 0
 928 351 925.517920464 273.794801159 894 195 c 0
 848 80 736 -16 596 -16 c 0
 406 -16 305.337292598 78.1360588996 258 195 c 0
 226 274 224 351 224 448 c 0
 224 545 228.402392739 624.863527121 254 701 c 0
 293 817 399 912 556 912 c 0
 643 912 698 873 754 810 c 1
 764 810 l 1
 738 944 679 1063 594 1162 c 1
 406 1035 l 1
576 652 m 4
 475 652 313.165896646 657.753510734 378 661 c 0
 464.153846154 603 490 526 490 448 c 0
 490 370 333.123017752 345.790049926 378 235 c 0
 410 156 480 104 576 104 c 0
 672 104 742.344527084 155.861317711 774 235 c 0
 798 295 800 370 800 448 c 0
 800 526 801.232530547 604.491155344 778 661 c 0
 748 655.572519084 677 652 576 652 c 4
EndSplineSet
Fore
SplineSet
576 652 m 4xd8
 537 652 511 621 500 574 c 4
 492 539 490 494 490 448 c 4
 490 402 491 358 500 322 c 4
 512 275 539 244 576 244 c 4
 613 244 640 275 652 322 c 4
 661 358 662 402 662 448 c 4
 662 494 661 540 653 574 c 4
 642 621 615 652 576 652 c 4xd8
339 1283 m 5
 432 1465 l 5
 498.916505631 1431.1353797 557.990514229 1393.44577808 609.844339536 1351.15769852 c 5
 731.968522822 1478.01537728 l 5
 840.031477178 1373.98462272 l 5
 716.483406757 1245.6478674 l 5
 867.794340664 1062.68546581 928 809.604932161 928 448 c 4
 928 351 925 274 894 195 c 4
 848 80 736 -16 596 -16 c 4
 406 -16 305 78 258 195 c 4
 226 274 224 351 224 448 c 4
 224 545 228 625 254 701 c 4
 289.087384418 806.930224999 370.19205298 896 496 896 c 4xd8
 553.121212121 896 589.232323232 878.411764706 626 850 c 5
 636 850 l 5xb8
 634.125771853 939.014835299 606.125237077 1017.63112839 561.829661107 1084.99979052 c 5
 453.031477178 971.984622717 l 5
 344.968522822 1076.01537728 l 5
 462.217059655 1197.80843105 l 5
 424.299730322 1230.85357575 382.432861104 1259.3193847 339 1283 c 5
EndSplineSet
Validated: 524289
Layer: 2
Layer: 3
EndChar
StartChar: divide
Encoding: 247 247 154
GlifName: divide
Width: 1024
VWidth: 0
Flags: W
HStem: 92 314<465.635 686.365> 520 240<128 1024> 874 314<465.635 686.365>
VStem: 419 314<138.635 359.365 920.635 1141.36>
CounterMasks: 1 e0
LayerCount: 4
Back
Fore
SplineSet
1024 760 m 5
 1024 520 l 5
 128 520 l 5
 128 760 l 5
 1024 760 l 5
576 406 m 4
 668 406 733 341 733 249 c 4
 733 157 668 92 576 92 c 4
 484 92 419 157 419 249 c 4
 419 341 484 406 576 406 c 4
576 1188 m 4
 668 1188 733 1123 733 1031 c 4
 733 939 668 874 576 874 c 4
 484 874 419 939 419 1031 c 4
 419 1123 484 1188 576 1188 c 4
EndSplineSet
Layer: 2
Layer: 3
EndChar
StartChar: oslash
Encoding: 248 248 155
GlifName: oslash
Width: 1024
VWidth: 0
Flags: W
HStem: -16 240.085<513.968 638.735> 799.915 240.085<513.265 638.032>
VStem: 224 255.782<463.034 768.103> 672.218 255.782<255.897 560.966>
LayerCount: 4
Back
Fore
SplineSet
496.203327426 306.27615989 m 1
 509.407186528 260.497821363 535.638690185 224.084960938 576 224.084960938 c 0
 612.08203125 224.084960938 636.56640625 251.607421875 651.598632812 293.2421875 c 0
 671.358398438 348.283203125 672.217773438 429.4375 672.217773438 512 c 0
 672.217773438 529.747208345 672.178065518 547.429349849 671.919464277 564.80105089 c 1
 496.203327426 306.27615989 l 1
655.796672574 717.72384011 m 1
 642.592813472 763.502178637 616.361309815 799.915039062 576 799.915039062 c 0
 539.91796875 799.915039062 515.43359375 772.392578125 500.401367188 730.7578125 c 0
 480.641601562 675.716796875 479.782226562 594.5625 479.782226562 512 c 0
 479.782226562 494.252791655 479.821934482 476.570650151 480.080535723 459.19894911 c 1
 655.796672574 717.72384011 l 1
389.310894398 38.7150033097 m 1
 320.276892956 -62.8522631808 l 1
 135.723107044 62.8522631808 l 1
 251.132154121 232.649481868 l 1
 228.526336433 311.318346052 224 405.624057782 224 512 c 0
 224 662 233 788 289 880 c 0
 350 978 449 1040 576 1040 c 0
 647.774579932 1040 710.605981175 1020.19724719 762.689105602 985.28499669 c 1
 831.723107044 1086.85226318 l 5
 1016.27689296 961.147736819 l 5
 900.867845879 791.350518132 l 1
 923.473663567 712.681653948 928 618.375942218 928 512 c 0
 928 362 919 236 863 144 c 0
 802 46 703 -16 576 -16 c 0
 504.225420068 -16 441.394018825 3.80275281269 389.310894398 38.7150033097 c 1
EndSplineSet
Validated: 524289
Layer: 2
Layer: 3
EndChar
StartChar: thorn
Encoding: 254 254 161
GlifName: thorn
Width: 1024
VWidth: 0
Flags: W
HStem: -16 240<555.093 737> 800 240<555.093 737> 1388 20G<256 512>
VStem: 256 256<-384 65 246.167 777.833 959 1408> 672 256<246.236 777.764>
AnchorPoint: "top" 576 1024 basechar 0
LayerCount: 4
Back
Fore
SplineSet
687 1040 m 0
 787 1040 871 953 907 803 c 0
 928 713 928 624 928 512 c 0
 928 400 928 311 907 221 c 0
 871 71 787 -16 687 -16 c 0
 624 -16 557 6 520 65 c 1
 512 65 l 1
 512 -384 l 1
 256 -384 l 1
 256 1408 l 1
 512 1408 l 1
 512 959 l 1
 520 959 l 1
 557 1018 624 1040 687 1040 c 0
592 800 m 0
 555 800 532 749 522 693 c 0
 512 639 512 577 512 512 c 0
 512 447 512 385 522 331 c 0
 532 275 555 224 592 224 c 0
 629 224 652 275 662 331 c 0
 672 385 672 447 672 512 c 0
 672 577 672 639 662 693 c 0
 652 749 629 800 592 800 c 0
EndSplineSet
Validated: 1
Layer: 2
Layer: 3
EndChar
StartChar: abreve
Encoding: 259 259 170
GlifName: abreve
Width: 1024
VWidth: 0
Flags: W
HStem: -16 120<422.036 653.339> 0 21G<768 896> 512 110<427.031 768> 920 120<324.118 734.871> 1136 120<425.835 726.165> 1388 20G<236 364 788 916>
VStem: 224 128<173.31 436.002 1327.25 1408> 768 128<0 123 224.913 512 622 886.778> 788 128<1313.88 1408>
LayerCount: 3
Back
Fore
SplineSet
768 512 m 5xbf
 572 512 l 6
 517 512 459 512 408 458 c 4
 372 420 352 362 352 303 c 4
 352 194 417 104 532 104 c 4
 761.812250967 104 768 341.336732538 768 471 c 6
 768 512 l 5xbf
608 1040 m 4
 704 1040 805 1021 866 913 c 4
 896 860 896 785 896 749 c 6
 896 0 l 5
 768 0 l 5x7f
 768 123 l 5
 758 123 l 5
 694 35 617 -16 508 -16 c 4
 349.825464819 -16 224 116.146627619 224 301 c 4
 224 383 249 470 312 533 c 4
 402 622 512 622 574 622 c 6
 768 622 l 5
 768 744 l 6
 768 788 768 831 750 862 c 4
 729 898 696 920 608 920 c 4
 520 920 408 910 320 899 c 5
 320 1021 l 5
 407 1031 516 1040 608 1040 c 4
788 1408 m 1x3e80
 916 1408 l 1
 916 1240 764 1136 576 1136 c 0
 388 1136 236 1240 236 1408 c 1
 364 1408 l 1
 364 1322 433 1256 576 1256 c 0
 719 1256 788 1322 788 1408 c 1x3e80
EndSplineSet
Validated: 1
Layer: 2
EndChar
StartChar: Aogonek
Encoding: 260 260 165
GlifName: A_ogonek
Width: 1024
VWidth: 0
Flags: W
HStem: -350 160<893.688 1024> 0 21G<105 368.06> 272 240<430.731 721.178> 1388 20G<306.941 845.059>
VStem: 721 171<-237.282 -84.8319>
LayerCount: 4
Back
Fore
SplineSet
378 1408 m 1
 774 1408 l 1
 916.118164062 963 991.474609375 481 1047 0 c 1
 940.627855705 -42 892 -79 892 -138 c 0
 892 -176 925.041992188 -190 953 -190 c 0
 977.981445312 -190 1001.6484375 -187.666992188 1024 -183 c 1
 1024 -341 l 1
 991.809570312 -348.200195312 957.142578125 -350 920 -350 c 0
 831.060546875 -350 721 -287 721 -185 c 0
 721 -97 804.096296296 -39 879 0 c 1
 788 0 l 1
 779.872070312 90.9482421875 769.07421875 181.708984375 755.284179688 272 c 1
 396.6875 272 l 1
 382.908203125 181.65625 372.120117188 90.875 364 0 c 1
 105 0 l 1
 160.525390625 481 235.881835938 963 378 1408 c 1
721.177734375 512 m 1
 685.110351562 744.916992188 640.306640625 972.920898438 581 1191 c 1
 571 1191 l 1
 511.643554688 973.84375 466.815429688 745.462890625 430.731445312 512 c 1
 721.177734375 512 l 1
EndSplineSet
Validated: 1
Layer: 2
Layer: 3
EndChar
StartChar: aogonek
Encoding: 261 261 166
GlifName: aogonek
Width: 1024
VWidth: 0
Flags: MW
HStem: -350 160<765.688 896> -16 240.009<418.671 602.805> 421 219<495.809 640> 798.8 241.2<323.914 636.549>
VStem: 224 256<230.927 409.617> 640 256<0 53 244.748 421 640 794.879>
LayerCount: 4
Back
Fore
SplineSet
608 1040 m 0
 704 1040 805 1021 866 913 c 0
 896 860 896 785 896 749 c 2
 896 0 l 1
 805.412109375 -42 764 -79 764 -138 c 0
 764 -176 797.041992188 -190 825 -190 c 0
 849.981445312 -190 873.6484375 -187.666992188 896 -183 c 1
 896 -341 l 1
 863.809570312 -348.200195312 829.142578125 -350 792 -350 c 0
 703.060546875 -350 593 -287 593 -185 c 0
 593 -97 664 -39 728 0 c 1
 640 0 l 1
 640 53 l 1
 630 53 l 1
 593.6484375 9.31640625 549.912109375 -16 488 -16 c 0
 351.126953125 -16 224 116 224 301 c 0
 224 387 250 476 312 543 c 0
 402 639 512 640 574 640 c 2
 640 640 l 1
 640 744 l 2
 640 767.986328125 617.009765625 798.799804688 579 798.799804688 c 0
 510.698242188 798.799804688 399.138671875 788.609375 320 779.5 c 1
 320 1021 l 1
 407 1031 516 1040 608 1040 c 0
640 421 m 1
 572 421 l 2
 505.998046875 421 480 382.603515625 480 303 c 0
 480 259.733398438 501.461914062 224.008789062 542 224.008789062 c 0
 637.508789062 224.008789062 640 336.452148438 640 398 c 2
 640 421 l 1
EndSplineSet
Layer: 2
Layer: 3
EndChar
StartChar: ccaron
Encoding: 269 269 178
GlifName: ccaron
Width: 1024
VWidth: 0
Flags: W
HStem: -16 120<460.362 891.341> 920 120<460.362 871.765> 1388 20G<200 384.585 767.415 952>
VStem: 224 128<227.883 796.117>
LayerCount: 3
Back
Fore
SplineSet
224 512 m 0
 224 633 226 738 267 831 c 0
 317 946 418 1040 606 1040 c 0
 709 1040 786 1031.81835938 876 1023 c 1
 876 903 l 1
 785 911.818359375 702 920 606 920 c 0
 486 920 427 872 387 789 c 0
 352 716 352 614 352 512 c 0
 352 410 352 308 387 235 c 0
 427 152 486 104 606 104 c 0
 701 104 796 115 896 130 c 1
 896 10 l 1
 797 -5 708 -16 606 -16 c 0
 418 -16 317 78 267 193 c 0
 226 286 224 391 224 512 c 0
497 1152 m 5
 200 1408 l 5
 358 1408 l 5
 576 1244 l 5
 794 1408 l 5
 952 1408 l 5
 655 1152 l 5
 497 1152 l 5
EndSplineSet
Validated: 1
Layer: 2
EndChar
StartChar: dcaron
Encoding: 271 271 180
GlifName: dcaron
Width: 1024
VWidth: 0
Flags: W
HStem: -16 240<287 468.907> 0 21G<512 768> 800 240<287 468.907> 1024 384<896 1152>
VStem: 96 256<246.236 777.764> 512 256<0 65 246.167 777.833 959 1408> 896 256<1024 1408>
LayerCount: 4
Back
Fore
SplineSet
337 1040 m 0xae
 400 1040 467 1018 504 959 c 1
 512 959 l 1
 512 1408 l 1
 768 1408 l 1
 768 0 l 1
 512 0 l 1x5e
 512 65 l 1
 504 65 l 1
 467 6 400 -16 337 -16 c 0
 237 -16 153 71 117 221 c 0
 96 311 96 400 96 512 c 0
 96 624 96 713 117 803 c 0
 153 953 237 1040 337 1040 c 0xae
432 800 m 0xae
 395 800 372 749 362 693 c 0
 352 639 352 577 352 512 c 0
 352 447 352 385 362 331 c 0
 372 275 395 224 432 224 c 0
 469 224 492 275 502 331 c 0
 512 385 512 447 512 512 c 0
 512 577 512 639 502 693 c 0
 492 749 469 800 432 800 c 0xae
896 1408 m 1x1e
 1152 1408 l 1
 1152 1024 l 1
 896 1024 l 1
 896 1408 l 1x1e
EndSplineSet
Validated: 1
Layer: 2
Layer: 3
EndChar
StartChar: Dcroat
Encoding: 272 272 181
GlifName: D_croat
Width: 1024
VWidth: 0
Flags: W
HStem: 0 240<384 647.068> 584 240<384 576> 1168 240<384 647.012>
VStem: 128 256<240 584 824 1168> 784 256<401.109 1006.89>
CounterMasks: 1 e0
LayerCount: 4
Back
Fore
SplineSet
784 704 m 4
 784 850 771.432680108 963.666934174 727 1040 c 4
 688 1107 624 1168 495 1168 c 6
 384 1168 l 5
 384 824 l 5
 576 824 l 5
 576 584 l 5
 384 584 l 5
 384 240 l 5
 495 240 l 6
 624 240 687.502044987 301.292342645 727 368 c 4
 772 444 784 558 784 704 c 4
474 1408 m 6
 717 1408 858.637711201 1305.7739004 943 1171 c 4
 1025 1040 1040 877 1040 704 c 4
 1040 531 1024.64785591 368.219768425 943 237 c 4
 859 102 717 -2.97589172193e-14 474 0 c 6
 128 0 l 5
 128 1408 l 5
 474 1408 l 6
EndSplineSet
Validated: 524289
Layer: 2
Layer: 3
EndChar
StartChar: dcroat
Encoding: 273 273 182
GlifName: dcroat
Width: 1024
VWidth: 0
Flags: W
HStem: -16 240<455.5 594.29> 0 21G<640 896> 672 240<455.5 594.29> 1040 240<384 640 896 1024> 1388 20G<640 896>
VStem: 224 256<242.161 653.839> 640 256<0 65 241.998 654.002 831 1040 1280 1408>
LayerCount: 4
Back
Fore
SplineSet
480 448 m 4xbe
 480 361 487 294 513 254 c 4
 525 235 541 224 560 224 c 4
 579 224 595 235 607 254 c 4
 633 294 640 361 640 448 c 4
 640 535 633 602 607 642 c 4
 595 661 579 672 560 672 c 4
 541 672 525 661 513 642 c 4
 487 602 480 535 480 448 c 4xbe
640 0 m 5x7e
 640 65 l 5
 630 65 l 5
 595 16 546 -16 490 -16 c 4xbe
 421 -16 361 8 319 65 c 4
 254 152 224 275 224 448 c 4
 224 621 254 744 319 831 c 4
 361 888 421 912 490 912 c 4
 546 912 595 880 630 831 c 5
 640 831 l 5
 640 1040 l 5
 384 1040 l 5
 384 1280 l 5
 640 1280 l 5
 640 1408 l 5
 896 1408 l 5
 896 1280 l 5
 1024 1280 l 5
 1024 1040 l 5
 896 1040 l 5
 896 0 l 5
 640 0 l 5x7e
EndSplineSet
Validated: 1
Layer: 2
Layer: 3
EndChar
StartChar: emacron
Encoding: 275 275 184
GlifName: emacron
Width: 1024
VWidth: 0
Flags: W
HStem: -16 120<457.677 891.106> 512 120<354 798> 920 120<444.73 707.27> 1288 120<256 896>
VStem: 224 128<219.686 512 632 819.315>
LayerCount: 4
Back
Fore
SplineSet
576 920 m 4
 478.995117188 920 409.706054688 874 381 799 c 4
 360.48046875 751 357.240234375 693 354 632 c 5
 798 632 l 5
 794.759765625 693 791.51953125 751 771 799 c 4
 742.293945312 874 673.004882812 920 576 920 c 4
576 1040 m 4
 737.971679688 1040 849.264648438 951 891 839 c 4
 926.942382812 747 928 637 928 512 c 5
 352 512 l 5
 352 410 352 308 384 235 c 4
 421 151 490 104 596 104 c 4
 689 104 791 113 896 125 c 5
 896 5 l 5
 792 -7 696 -16 596 -16 c 4
 422 -16 311 77 264 193 c 4
 226 286 224 391 224 512 c 4
 224 637 225.057617188 747 261 839 c 4
 302.735351562 951 414.028320312 1040 576 1040 c 4
256 1408 m 5
 896 1408 l 5
 896 1288 l 5
 256 1288 l 5
 256 1408 l 5
EndSplineSet
Validated: 1
Layer: 2
Layer: 3
EndChar
StartChar: Ebreve
Encoding: 276 276 185
GlifName: E_breve
Width: 1024
VWidth: 0
Flags: W
HStem: 0 120<384 1024> 516 120<384 896> 1032 120<384 1024> 1264 120<425.835 726.165>
VStem: 236 128<1441.88 1536> 256 128<120 516 636 1032> 788 128<1441.88 1536>
LayerCount: 4
Back
Fore
SplineSet
788 1536 m 1xfa
 916 1536 l 1
 916 1368 764 1264 576 1264 c 0
 388 1264 236 1368 236 1536 c 1
 364 1536 l 1
 364 1450 433 1384 576 1384 c 0
 719 1384 788 1450 788 1536 c 1xfa
256 1152 m 1xf6
 1024 1152 l 1
 1024 1032 l 1
 384 1032 l 1
 384 636 l 1
 896 636 l 1
 896 516 l 1
 384 516 l 1
 384 120 l 1
 1024 120 l 1
 1024 0 l 1
 256 0 l 1
 256 1152 l 1xf6
EndSplineSet
Validated: 1
Layer: 2
Layer: 3
EndChar
StartChar: ebreve
Encoding: 277 277 186
GlifName: ebreve
Width: 1024
VWidth: 0
Flags: W
HStem: -16 120<457.677 891.106> 512 120<354 798> 920 120<444.73 707.27> 1136 120<425.79 726.21> 1388 20G<236 364 788 916>
VStem: 224 128<219.686 512 632 819.315 1327.23 1408> 788 128<1313.86 1408>
LayerCount: 3
Back
Fore
SplineSet
576 920 m 4
 478.995117188 920 409.706054688 874 381 799 c 4
 360.48046875 751 357.240234375 693 354 632 c 5
 798 632 l 5
 794.759765625 693 791.51953125 751 771 799 c 4
 742.293945312 874 673.004882812 920 576 920 c 4
576 1040 m 4
 737.971679688 1040 849.264648438 951 891 839 c 4
 926.942382812 747 928 637 928 512 c 5
 352 512 l 5
 352 410 352 308 384 235 c 4
 421 151 490 104 596 104 c 4
 689 104 791 113 896 125 c 5
 896 5 l 5
 792 -7 696 -16 596 -16 c 4
 422 -16 311 77 264 193 c 4
 226 286 224 391 224 512 c 4
 224 637 225.057617188 747 261 839 c 4
 302.735351562 951 414.028320312 1040 576 1040 c 4
788 1408 m 5
 916 1408 l 5
 916 1239.94628906 764.259765625 1136 576 1136 c 4
 387.739257812 1136 236 1239.94433594 236 1408 c 5
 364 1408 l 5
 364 1321.65527344 433.061523438 1256 576 1256 c 4
 718.939453125 1256 788 1321.65332031 788 1408 c 5
EndSplineSet
Validated: 1
Layer: 2
EndChar
StartChar: Edotaccent
Encoding: 278 278 187
GlifName: E_dotaccent
Width: 1024
VWidth: 0
Flags: W
HStem: 0 240<512 1024> 456 240<512 896> 912 240<512 1024> 1328 224<486.609 665.391>
VStem: 256 256<240 456 696 912> 464 224<1350.61 1529.39>
LayerCount: 3
Back
Fore
SplineSet
576 1552 m 0xf4
 642 1552 688 1506 688 1440 c 0
 688 1374 642 1328 576 1328 c 0
 510 1328 464 1374 464 1440 c 0
 464 1506 510 1552 576 1552 c 0xf4
256 1152 m 1xf8
 1024 1152 l 1
 1024 912 l 1
 512 912 l 5
 512 696 l 5
 896 696 l 1
 896 456 l 1
 512 456 l 5
 512 240 l 5
 1024 240 l 1
 1024 0 l 1
 256 0 l 1
 256 1152 l 1xf8
EndSplineSet
Layer: 2
EndChar
StartChar: edotaccent
Encoding: 279 279 188
GlifName: edotaccent
Width: 1024
VWidth: 0
Flags: W
HStem: -16 120<457.677 891.106> 512 120<354 798> 920 120<444.73 707.27> 1200 224<488.237 663.763>
VStem: 224 128<219.686 512 632 819.315> 464 224<1224.24 1399.76>
LayerCount: 4
Back
Fore
SplineSet
576 920 m 4
 478.995117188 920 409.706054688 874 381 799 c 4
 360.48046875 751 357.240234375 693 354 632 c 5
 798 632 l 5
 794.759765625 693 791.51953125 751 771 799 c 4
 742.293945312 874 673.004882812 920 576 920 c 4
576 1040 m 4
 737.971679688 1040 849.264648438 951 891 839 c 4
 926.942382812 747 928 637 928 512 c 5
 352 512 l 5
 352 410 352 308 384 235 c 4
 421 151 490 104 596 104 c 4
 689 104 791 113 896 125 c 5
 896 5 l 5
 792 -7 696 -16 596 -16 c 4
 422 -16 311 77 264 193 c 4
 226 286 224 391 224 512 c 4
 224 637 225.057617188 747 261 839 c 4
 302.735351562 951 414.028320312 1040 576 1040 c 4
576 1424 m 4
 642 1424 688 1378 688 1312 c 4
 688 1246 642 1200 576 1200 c 4
 510 1200 464 1246 464 1312 c 4
 464 1378 510 1424 576 1424 c 4
EndSplineSet
Validated: 1
Layer: 2
Layer: 3
EndChar
StartChar: Eogonek
Encoding: 280 280 163
GlifName: E_ogonek
Width: 1024
VWidth: 0
Flags: W
HStem: -350 160<829.681 960> 0 240<448 792 886.254 960> 588 240<448 832> 1168 240<448 960>
VStem: 192 256<240 588 828 1168> 657 171<-237.282 -77.1557>
LayerCount: 4
Back
Fore
SplineSet
192 1408 m 1
 960 1408 l 1
 960 1168 l 1
 448 1168 l 1
 448 828 l 1
 832 828 l 1
 832 588 l 1
 448 588 l 1
 448 240 l 1
 960 240 l 1
 960 0 l 1
 869 -42 828 -79 828 -138 c 0
 828 -176 861 -190 889 -190 c 0
 914 -190 938 -188 960 -183 c 1
 960 -341 l 1
 928 -348 893 -350 856 -350 c 0
 767 -350 657 -287 657 -185 c 0
 657 -97 728 -39 792 0 c 1
 192 0 l 1
 192 1408 l 1
EndSplineSet
Validated: 1
Layer: 2
Layer: 3
EndChar
StartChar: eogonek
Encoding: 281 281 164
GlifName: eogonek
Width: 1024
VWidth: 0
Flags: W
HStem: -395 120<775.188 896> -16 120<456.094 745.913> 512 120<354 798> 920 120<440.321 711.679>
VStem: 224 128<215.995 512 632 825.732> 640 128<-268.363 -76.4579> 798 130<632 825.944>
LayerCount: 4
Back
Fore
SplineSet
837 -275 m 4
 858 -275 878 -272 896 -263 c 5
 896 -384 l 5
 872 -393 845 -395 817 -395 c 4
 738 -395 640 -320 640 -200 c 4
 640 -113 693 -53 748 -10 c 5
 697 -14 647 -16 596 -16 c 4
 422 -16 311 77 264 193 c 4
 226 286 224 391 224 512 c 4
 224 637 225 747 261 839 c 4
 303 951 414 1040 576 1040 c 4
 738 1040 849 951 891 839 c 4
 927 747 928 637 928 512 c 5
 352 512 l 5
 352 410 352 308 384 235 c 4
 421 151 490 104 596 104 c 4
 689 104 791 113 896 125 c 5
 896 5 l 5
 808 -55 768 -108 768 -193 c 4
 768 -253 806 -275 837 -275 c 4
576 920 m 4
 479 920 410 874 381 799 c 4
 360 751 357 693 354 632 c 5
 798 632 l 5
 795 693 792 751 771 799 c 4
 742 874 673 920 576 920 c 4
EndSplineSet
Validated: 1
Layer: 2
Layer: 3
EndChar
StartChar: Gcircumflex
Encoding: 284 284 191
GlifName: G_circumflex
Width: 1024
VWidth: 0
Flags: W
HStem: -16 120<454.463 894.218> 520 120<640 896> 1048 120<454.463 1006.1>
VStem: 112 128<340.161 811.839> 896 128<128 520>
LayerCount: 3
Back
Fore
SplineSet
896 128 m 5
 896 520 l 5
 640 520 l 5
 640 640 l 5
 1024 640 l 5
 1024 33 l 5
 907 8.384765625 787 -16 643 -16 c 4
 300 -16 112 213 112 576 c 4
 112 939 300 1168 643 1168 c 4
 791.12109375 1168 906.9921875 1155.70117188 1011 1141 c 5
 1011 1021 l 5
 906.12890625 1035.20703125 789.189453125 1048 643 1048 c 4
 370 1048 240 870 240 576 c 4
 240 282 370 104 643 104 c 4
 735.12109375 104 817.141601562 114.616210938 896.432617188 127.692382812 c 5
 896 128 l 5
497 1536 m 1
 655 1536 l 1
 952 1280 l 1
 794 1280 l 1
 576 1443.96289062 l 1
 358 1280 l 1
 200 1280 l 1
 497 1536 l 1
EndSplineSet
Validated: 1
Layer: 2
EndChar
StartChar: uni0123
Encoding: 291 291 272
GlifName: uni0123
Width: 1024
VWidth: 0
Flags: W
HStem: -400 120<302.991 670.834> -16 120<451.69 661.932> 920 120<451.69 661.932> 1004 20G<768 896> 1432 120<546.977 640>
VStem: 224 128<224.216 799.784> 384 128<1152 1385.26> 768 128<-171.858 125 223.214 800.786 899 1024>
LayerCount: 3
Back
Fore
SplineSet
560 920 m 4xef
 464 920 404 847 378 768 c 4
 353 692 352 604 352 512 c 4
 352 420 353 332 378 256 c 4
 404 177 464 104 560 104 c 4
 656 104 716 177 742 256 c 4
 767 332 768 420 768 512 c 4
 768 604 767 692 742 768 c 4
 716 847 656 920 560 920 c 4xef
540 1040 m 4
 623 1040 699 991 758 899 c 5
 768 899 l 5
 768 1024 l 5
 896 1024 l 5xdf
 896 32 l 6
 896 -28 896 -139 835 -241 c 4
 780 -333 684 -400 536 -400 c 4
 446 -400 364 -393 300 -385 c 5
 300 -265 l 5
 363 -272 447 -280 536 -280 c 4
 632 -280 687 -241 724 -182 c 4
 768 -111 768 -15 768 32 c 6
 768 125 l 5
 758 125 l 5
 699 33 623 -16 540 -16 c 4
 409 -16 299 71 252 221 c 4
 224 311 224 400 224 512 c 4
 224 624 224 713 252 803 c 4
 299 953 409 1040 540 1040 c 4
384 1257 m 2
 384 1317 384 1387 436 1457 c 0
 478 1514 550 1552 640 1552 c 1
 640 1432 l 1
 593 1432 561 1415 540 1387 c 0
 512 1350 512 1307 512 1257 c 2
 512 1152 l 1
 384 1152 l 1
 384 1257 l 2
EndSplineSet
Validated: 1
Layer: 2
EndChar
StartChar: Hbar
Encoding: 294 294 222
GlifName: H_bar
Width: 1024
VWidth: 0
Flags: W
HStem: 0 21G<128 384 768 1024> 581 240<384 768> 1036 240<0 128 384 768 1024 1152> 1388 20G<128 384 768 1024>
VStem: 128 256<0 581 821 1036 1276 1408> 768 256<0 581 821 1036 1276 1408>
LayerCount: 4
Back
SplineSet
128 1408 m 5
 384 1408 l 5
 384 820 l 5
 768 820 l 5
 768 1408 l 5
 1024 1408 l 5
 1024 0 l 5
 768 0 l 5
 768 580 l 5
 384 580 l 5
 384 0 l 5
 128 0 l 5
 128 1408 l 5
EndSplineSet
Fore
SplineSet
128 1408 m 1
 384 1408 l 1
 384 1276 l 1
 768 1276 l 1
 768 1408 l 1
 1024 1408 l 1
 1024 1276 l 1
 1152 1276 l 1
 1152 1036 l 1
 1024 1036 l 1
 1024 0 l 1
 768 0 l 1
 768 581 l 1
 384 581 l 1
 384 0 l 1
 128 0 l 1
 128 1036 l 1
 0 1036 l 1
 0 1276 l 1
 128 1276 l 1
 128 1408 l 1
384 1036 m 1
 384 821 l 1
 768 821 l 1
 768 1036 l 1
 384 1036 l 1
EndSplineSet
Validated: 1
Layer: 2
Layer: 3
EndChar
StartChar: hbar
Encoding: 295 295 223
GlifName: hbar
Width: 1024
VWidth: 0
Flags: W
HStem: 0 21G<256 512 640 896> 672 240<556.361 708.5> 1067 209<128 256 512 768> 1388 20G<256 512>
VStem: 256 256<0 636.683 834 1067 1276 1408> 640 256<0 636.691>
LayerCount: 4
Back
Fore
SplineSet
671 912 m 4
 746 912 806.373971512 867.2276625 844 805 c 4
 896 719 896 623 896 529 c 6
 896 0 l 5
 640 0 l 5
 640 529 l 6
 640 576 640.308033594 610.167211647 625 638 c 4
 614 658 597 672 576 672 c 4
 555 672 537.778654161 658.120154435 527 638 c 4
 512 610 512 576 512 529 c 6
 512 0 l 5
 256 0 l 5
 256 1067 l 5
 128 1067 l 5
 128 1276 l 5
 256 1276 l 5
 256 1408 l 5
 512 1408 l 5
 512 1276 l 5
 768 1276 l 5
 768 1067 l 5
 512 1067 l 5
 512 834 l 5
 519 834 l 5
 556 881 614 912 671 912 c 4
EndSplineSet
Layer: 2
Layer: 3
EndChar
StartChar: itilde
Encoding: 297 297 225
GlifName: itilde
Width: 1024
VWidth: 0
Flags: W
HStem: 0 120<256 512 640 896> 904 120<256 512> 1156 120<631.752 755.472> 1284 120<396.554 520.248>
VStem: 253 128<1177 1272.2> 512 128<120 904> 771 128<1283.8 1383>
CounterMasks: 1 0e
LayerCount: 3
Back
Fore
SplineSet
448 1284 m 0
 397 1284 384 1225 381 1171 c 1
 253 1177 l 1
 257 1295 319 1404 448 1404 c 0
 594 1404 627 1276 704 1276 c 0
 755 1276 768 1335 771 1389 c 1
 899 1383 l 1
 896 1267 833 1156 704 1156 c 0
 558 1156 525 1284 448 1284 c 0
256 0 m 1
 256 120 l 1
 512 120 l 1
 512 904 l 1
 256 904 l 1
 256 1024 l 1
 640 1024 l 1
 640 120 l 1
 896 120 l 1
 896 0 l 1
 256 0 l 1
EndSplineSet
Validated: 1
Layer: 2
EndChar
StartChar: imacron
Encoding: 299 299 227
GlifName: imacron
Width: 1024
VWidth: 0
Flags: W
HStem: 0 120<256 512 640 896> 904 120<256 512> 1288 120<256 896>
VStem: 512 128<120 904>
LayerCount: 3
Back
Fore
SplineSet
256 1408 m 1
 896 1408 l 1
 896 1288 l 1
 256 1288 l 1
 256 1408 l 1
256 0 m 1
 256 120 l 1
 512 120 l 1
 512 904 l 1
 256 904 l 1
 256 1024 l 1
 640 1024 l 1
 640 120 l 1
 896 120 l 1
 896 0 l 1
 256 0 l 1
EndSplineSet
Validated: 1
Layer: 2
EndChar
StartChar: Ibreve
Encoding: 300 300 228
GlifName: I_breve
Width: 1024
VWidth: 0
Flags: W
HStem: 0 120<256 512 640 896> 1032 120<256 512 640 896> 1264 120<425.835 726.165>
VStem: 236 128<1441.88 1536> 512 128<120 1032> 788 128<1441.88 1536>
CounterMasks: 1 1c
LayerCount: 3
Back
Fore
SplineSet
788 1536 m 1
 916 1536 l 1
 916 1368 764 1264 576 1264 c 0
 388 1264 236 1368 236 1536 c 1
 364 1536 l 1
 364 1450 433 1384 576 1384 c 0
 719 1384 788 1450 788 1536 c 1
896 1152 m 1
 896 1032 l 1
 640 1032 l 1
 640 120 l 1
 896 120 l 1
 896 0 l 1
 256 0 l 1
 256 120 l 1
 512 120 l 1
 512 1032 l 1
 256 1032 l 1
 256 1152 l 1
 896 1152 l 1
EndSplineSet
Validated: 1
Layer: 2
EndChar
StartChar: Iogonek
Encoding: 302 302 230
GlifName: I_ogonek
Width: 1024
VWidth: 0
Flags: W
HStem: -350 160<829.688 960> 0 240<192 448 704 792 886.437 960> 1168 240<192 448 704 960>
VStem: 448 256<240 1168> 657 171<-237.282 -77.1557>
LayerCount: 4
Back
Fore
SplineSet
960 1408 m 1xf0
 960 1168 l 1
 704 1168 l 1
 704 240 l 1xf0
 960 240 l 1
 960 0 l 1
 869.412109375 -42 828 -79 828 -138 c 0
 828 -176 861.041992188 -190 889 -190 c 0
 913.981445312 -190 937.6484375 -187.666992188 960 -183 c 1
 960 -341 l 1
 927.809570312 -348.200195312 893.142578125 -350 856 -350 c 0
 767.060546875 -350 657 -287 657 -185 c 0xe8
 657 -97 728 -39 792 0 c 1
 192 0 l 1
 192 240 l 1
 448 240 l 1
 448 1168 l 1
 192 1168 l 1
 192 1408 l 1
 960 1408 l 1xf0
EndSplineSet
Validated: 1
Layer: 2
Layer: 3
EndChar
StartChar: iogonek
Encoding: 303 303 231
GlifName: iogonek
Width: 1024
VWidth: 0
Flags: W
HStem: -350 160<637.688 768> 656 240<266 512> 1067 314<503.635 724.365>
VStem: 465 171<-237.282 -77.1557> 512 256<0 656>
LayerCount: 4
Back
Fore
SplineSet
614 1381 m 0xe0
 706 1381 771 1316 771 1224 c 0
 771 1132 706 1067 614 1067 c 0
 522 1067 457 1132 457 1224 c 0
 457 1316 522 1381 614 1381 c 0xe0
512 0 m 1xe8
 512 656 l 1
 266 656 l 1
 266 896 l 1
 768 896 l 1
 768 0 l 1xe8
 677.412109375 -42 636 -79 636 -138 c 0xf0
 636 -176 669.041992188 -190 697 -190 c 0
 721.981445312 -190 745.6484375 -187.666992188 768 -183 c 1
 768 -341 l 1xe8
 735.809570312 -348.200195312 701.142578125 -350 664 -350 c 0
 575.060546875 -350 465 -287 465 -185 c 0xf0
 465 -97 536 -39 600 0 c 1
 512 0 l 1xe8
EndSplineSet
Layer: 2
Layer: 3
EndChar
StartChar: Idotaccent
Encoding: 304 304 232
GlifName: I_dotaccent
Width: 1024
VWidth: 0
Flags: W
HStem: 0 120<256 512 640 896> 1032 120<256 512 640 896> 1328 224<488.237 663.763>
VStem: 464 224<1352.24 1527.76> 512 128<120 1032>
LayerCount: 3
Back
Fore
SplineSet
576 1552 m 0xf0
 642 1552 688 1506 688 1440 c 0
 688 1374 642 1328 576 1328 c 0
 510 1328 464 1374 464 1440 c 0
 464 1506 510 1552 576 1552 c 0xf0
896 1152 m 1
 896 1032 l 1
 640 1032 l 1
 640 120 l 1
 896 120 l 1
 896 0 l 1
 256 0 l 1
 256 120 l 1
 512 120 l 1
 512 1032 l 1xe8
 256 1032 l 1
 256 1152 l 1
 896 1152 l 1
EndSplineSet
Validated: 1
Layer: 2
EndChar
StartChar: dotlessi
Encoding: 305 305 233
GlifName: dotlessi
Width: 1024
VWidth: 0
Flags: W
HStem: 0 120<256 512 640 896> 904 120<256 512>
VStem: 512 128<120 904>
LayerCount: 3
Back
Fore
SplineSet
256 0 m 1
 256 120 l 1
 512 120 l 1
 512 904 l 1
 256 904 l 1
 256 1024 l 1
 640 1024 l 1
 640 120 l 1
 896 120 l 1
 896 0 l 1
 256 0 l 1
EndSplineSet
Validated: 1
Layer: 2
EndChar
StartChar: IJ
Encoding: 306 306 234
GlifName: I_J_
Width: 1024
VWidth: 0
Flags: W
HStem: -399 120<387.67 794.39> 0 120<128 256 384 512> 1160 120<128 256 384 512>
VStem: 128 384<0 120 1160 1280> 896 128<-162.984 1280>
LayerCount: 3
Back
Fore
SplineSet
896 129 m 6
 896 1280 l 1
 1024 1280 l 1
 1024 129 l 6
 1024 12 1023 -97 984 -190 c 4
 936 -304 834 -399 672 -399 c 4
 556 -399 463 -385 384 -375 c 5
 384 -254 l 5
 461 -265 561 -279 665 -279 c 4
 764 -279 828 -230 864 -148 c 4
 896 -75 896 27 896 129 c 6
512 1280 m 1
 512 1160 l 1
 384 1160 l 1
 384 120 l 1
 512 120 l 1
 512 0 l 1
 128 0 l 1
 128 120 l 1
 256 120 l 1
 256 1160 l 1
 128 1160 l 1
 128 1280 l 1
 512 1280 l 1
EndSplineSet
Validated: 1
Layer: 2
EndChar
StartChar: kgreenlandic
Encoding: 312 312 275
GlifName: kgreenlandic
Width: 1024
VWidth: 0
Flags: W
HStem: 0 21G<256 512 716.538 1002> 1004 20G<256 512 668.786 955>
VStem: 256 256<0 255 697 1024>
LayerCount: 4
Back
Fore
SplineSet
512 0 m 5
 256 0 l 5
 256 1024 l 5
 512 1024 l 5
 512 697 l 5
 679 1024 l 5
 955 1024 l 5
 728 581 l 5
 1002 0 l 5
 726 0 l 5
 559 353 l 5
 512 255 l 5
 512 0 l 5
EndSplineSet
Layer: 2
Layer: 3
EndChar
StartChar: lacute
Encoding: 314 314 279
GlifName: lacute
Width: 1024
VWidth: 0
Flags: W
HStem: -16 120<672.999 896>
VStem: 512 128<149.787 1152>
LayerCount: 3
Back
Fore
SplineSet
896 -11 m 1
 858 -13 813 -16 758 -16 c 0
 686 -16 627 9 585 52 c 0
 512 128 512 218 512 279 c 2
 512 1152 l 1
 640 1152 l 1
 640 279 l 2
 640 232 640 186 668 148 c 0
 688 121 719 104 768 104 c 0
 810 104 860 106 896 109 c 1
 896 -11 l 1
488 1280 m 1
 654 1536 l 1
 792 1536 l 1
 626 1280 l 1
 488 1280 l 1
EndSplineSet
Validated: 1
Layer: 2
EndChar
StartChar: Lcaron
Encoding: 317 317 274
GlifName: L_caron
Width: 1024
VWidth: 0
Flags: W
HStem: 0 240<448 1024> 1024 384<768 1024> 1388 20G<192 448>
VStem: 192 256<240 1408> 768 256<1024 1408>
LayerCount: 4
Back
Fore
SplineSet
768 1408 m 5xd8
 1024 1408 l 5
 1024 1024 l 5
 768 1024 l 5
 768 1408 l 5xd8
EndSplineSet
Refer: 40 76 N 1 0 0 1 0 0 2
Layer: 2
Layer: 3
EndChar
StartChar: lcaron
Encoding: 318 318 277
GlifName: lcaron
Width: 1024
VWidth: 0
Flags: W
HStem: -16 240<540.946 768> 1024 384<768 1024> 1388 20G<256 512>
VStem: 256 256<245.847 1408> 768 256<1024 1408>
LayerCount: 4
Back
Fore
SplineSet
768 1408 m 1xd8
 1024 1408 l 1
 1024 1024 l 1
 768 1024 l 1
 768 1408 l 1xd8
EndSplineSet
Refer: 12 108 S 1 0 0 1 -128 0 2
Layer: 2
Layer: 3
EndChar
StartChar: Ldot
Encoding: 319 319 282
GlifName: L_dot
Width: 1024
VWidth: 0
Flags: W
HStem: 0 120<384 1024> 720 224<616.237 791.763> 1388 20G<256 384>
VStem: 256 128<120 1408> 592 224<744.237 919.763>
LayerCount: 3
Back
Fore
SplineSet
704 944 m 0
 770 944 816 898 816 832 c 0
 816 766 770 720 704 720 c 0
 638 720 592 766 592 832 c 0
 592 898 638 944 704 944 c 0
256 0 m 1
 256 1408 l 1
 384 1408 l 1
 384 120 l 1
 1024 120 l 1
 1024 0 l 1
 256 0 l 1
EndSplineSet
Validated: 1
Layer: 2
EndChar
StartChar: Lslash
Encoding: 321 321 282
GlifName: L_slash
Width: 1024
VWidth: 0
Flags: W
HStem: 0 240<576 1024> 1388 20G<320 576>
VStem: 320 256<240 400.42 886.802 1408>
AnchorPoint: "bottom" 704 0 basechar 0
AnchorPoint: "top" 704 1408 basechar 0
LayerCount: 4
Back
Fore
SplineSet
320 400.419557993 m 5
 199.030273438 314.06640625 l 5
 55.958984375 515.926757812 l 5
 320 704.231529399 l 5
 320 1408 l 1
 576 1408 l 1
 576 886.801731274 l 5
 693.969726562 970.93359375 l 5
 842.138671875 773.143554688 l 5
 576 583.162856457 l 5
 576 240 l 1
 1024 240 l 1
 1024 0 l 1
 320 0 l 1
 320 400.419557993 l 5
EndSplineSet
Validated: 1
Layer: 2
Layer: 3
EndChar
StartChar: lslash
Encoding: 322 322 283
GlifName: lslash
Width: 1024
VWidth: 0
Flags: W
HStem: -16 240<732.9 960> 1388 20G<448 704>
VStem: 448 256<250.178 400 887 1408>
AnchorPoint: "bottom" 768 0 basechar 0
AnchorPoint: "top" 576 1408 basechar 0
LayerCount: 4
Back
Fore
SplineSet
822 971 m 5
 970 773 l 5
 704 583 l 5
 704 328 l 6
 704 308 704 274 732 249 c 4
 751 232 783 224 832 224 c 4
 874 224 924 226 960 229 c 5
 960 -11 l 5
 909 -13 849 -16 776 -16 c 4
 680 -16 600 10 545 58 c 4
 448 142 448 241 448 308 c 6
 448 400 l 5
 327 314 l 5
 184 516 l 5
 448 704 l 5
 448 1408 l 5
 704 1408 l 5
 704 887 l 5
 822 971 l 5
EndSplineSet
Layer: 2
Layer: 3
EndChar
StartChar: napostrophe
Encoding: 329 329 242
GlifName: napostrophe
Width: 1024
VWidth: 0
Flags: MW
HStem: 800 240<684.386 836.5>
VStem: 0 256<1024 1408> 384 256<0 764.683 962 1024> 768 256<0 764.683>
CounterMasks: 1 70
AnchorPoint: "top" 704 1024 basechar 0
LayerCount: 4
Back
Fore
SplineSet
799 1040 m 0
 874 1040 934 995 972 933 c 0
 1024 847 1024 751 1024 657 c 2
 1024 0 l 1
 768 0 l 1
 768 657 l 2
 768 704 768 738 753 766 c 0
 742 786 725 800 704 800 c 0
 683 800 666 786 655 766 c 0
 640 738 640 704 640 657 c 2
 640 0 l 1
 384 0 l 1
 384 1024 l 1
 640 1024 l 1
 640 962 l 1
 647 962 l 1
 684 1008.921875 742 1040 799 1040 c 0
0 1408 m 1
 256 1408 l 1
 256 1024 l 1
 0 1024 l 1
 0 1408 l 1
EndSplineSet
Validated: 524289
Layer: 2
Layer: 3
EndChar
StartChar: Eng
Encoding: 330 330 243
GlifName: E_ng
Width: 1024
VWidth: 0
Flags: W
HStem: -336 240<450.562 690.428> 0 21G<192 448> 1388 20G<192 453.19 704 960>
VStem: 192 256<0 798 1367.65 1408> 704 256<610 1408>
LayerCount: 4
Back
Fore
SplineSet
448 0 m 1
 192 0 l 1
 192 1408 l 1
 447 1408 l 1
 694 610 l 1
 704 610 l 1
 704 1408 l 1
 960 1408 l 1
 960 0 l 1
 959 -77 950 -158 892 -228 c 0
 839 -292 750 -336 640 -336 c 0
 569 -336 505 -329 448 -321 c 1
 448 -81 l 1
 500 -88 566 -96 630 -96 c 0
 680 -96 698 -58 703 5 c 1
 458 798 l 1
 448 798 l 1
 448 0 l 1
EndSplineSet
Validated: 1
Layer: 2
Layer: 3
EndChar
StartChar: eng
Encoding: 331 331 244
GlifName: eng
Width: 1024
VWidth: 0
Flags: W
HStem: -336 240<386.562 626.42> 0 21G<256 512> 800 240<556.386 708.5> 1004 20G<256 512>
VStem: 256 256<0 764.683 962 1024> 640 256<-88.0608 764.683>
LayerCount: 4
Back
Fore
SplineSet
896 40 m 2xec
 896 -49 896 -146 828 -228 c 0
 775 -292 686 -336 576 -336 c 0
 505 -336 441 -329 384 -321 c 1
 384 -81 l 1
 436 -88 502 -96 566 -96 c 0
 627 -96 640 -40 640 50 c 2
 640 657 l 2
 640 704 640 738 625 766 c 0
 614 786 597 800 576 800 c 0xec
 555 800 538 786 527 766 c 0
 512 738 512 704 512 657 c 2
 512 0 l 1
 256 0 l 1
 256 1024 l 1
 512 1024 l 1xdc
 512 962 l 1
 519 962 l 1
 556 1009 614 1040 671 1040 c 0
 746 1040 806 995 844 933 c 0
 896 847 896 751 896 657 c 2
 896 40 l 2xec
EndSplineSet
Validated: 1
Layer: 2
Layer: 3
EndChar
StartChar: OE
Encoding: 338 338 251
GlifName: O_E_
Width: 1024
VWidth: 0
Flags: W
HStem: 0 120<368.374 640 768 1024> 644 120<768 1024> 1288 120<368.374 640 768 1024>
VStem: 112 128<296.058 1111.94> 640 128<120 644 764 1288>
CounterMasks: 1 e0
LayerCount: 4
Back
Fore
SplineSet
640 1288 m 1
 640 1288 592 1288 512 1288 c 0
 372 1288 308 1214 278 1101 c 0
 244 976 240 841 240 704 c 0
 240 567 244 432 278 307 c 0
 308 194 372 120 512 120 c 2
 640 120 l 1
 640 1288 l 1
112 704 m 0
 112 904 123 1151 225 1282 c 0
 285 1360 383 1408 512 1408 c 2
 1024 1408 l 1
 1024 1288 l 1
 768 1288 l 1
 768 764 l 1
 1024 764 l 1
 1024 644 l 1
 768 644 l 1
 768 120 l 1
 1024 120 l 1
 1024 0 l 1
 512 0 l 2
 383 0 285 48 225 126 c 0
 123 257 112 504 112 704 c 0
EndSplineSet
Validated: 1
Layer: 2
Layer: 3
EndChar
StartChar: oe
Encoding: 339 339 252
GlifName: oe
Width: 1024
VWidth: 0
Flags: W
HStem: -16 240<344 482.975 689.347 1024> 420 212<641 798> 800 240<344 482.488 666.347 859>
VStem: 96 256<247.054 762.14> 512 128<272.39 420 632 779.657> 798 256<632 787.575>
LayerCount: 4
Back
SplineSet
368 104 m 4
 402 104 428 129 445 151 c 4
 506 231 512 377 512 512 c 4
 512 647 507 793 445 873 c 4
 428 895 402 920 368 920 c 4
 334 920 308 895 291 873 c 4
 230 793 224 647 224 512 c 4
 224 377 229 231 291 151 c 4
 308 129 334 104 368 104 c 4
368 1040 m 4
 488 1040 543 954 572 863 c 5
 582 863 l 5
 627 973 695 1040 790 1040 c 4
 928 1040 1007 917 1035 802 c 4
 1054 725 1054 649 1054 577 c 6
 1054 512 l 5
 640 512 l 5
 640 469 l 6
 640 289 654 104 832 104 c 4
 888 104 962 111.8 1024 117 c 5
 1024 -3 l 5
 961 -8.65217391304 891 -16 829 -16 c 4
 724 -16 636 34 584 148 c 5
 574 148 l 5
 545 61 482 -16 368 -16 c 4
 320 -16 283 -1 252 20 c 4
 108 117 96 309 96 512 c 4
 96 715 108 907 252 1004 c 4
 283 1025 320 1040 368 1040 c 4
927 632 m 5
 925 729 916 820 875 873 c 4
 852 902 824 920 790 920 c 4
 717 920 677 842 658 773 c 4
 646 729 642 682 641 632 c 5
 927 632 l 5
EndSplineSet
Fore
SplineSet
432 224 m 0
 455.023147091 224 471.487711476 240.533068359 483.127861328 265.999998481 c 0
 511.98282006 329.130390018 512 462.113878407 512 512 c 0
 512 561.944424069 511.600653588 702.798692824 481 764 c 0
 470 786 453.461791705 800 432 800 c 0
 407.432242918 800 390.780890481 782.092892686 379 754 c 0
 353 692 352 560.723103283 352 512 c 0
 352 462.853535057 353 317 383 260 c 0
 395 238 410.612541188 224 432 224 c 0
368 1040 m 0
 488 1040 543 973.435028249 572 903 c 1
 582 903 l 1
 627 988.141242938 695 1040 790 1040 c 0
 928 1040 1006.64485674 916.912949012 1035 802 c 0
 1054 725 1054 649 1054 577 c 2
 1054 419 l 1
 640 420 l 1
 640 323 653.558166359 224.000012142 832 224 c 0
 888 223.999995217 962 232 1024 237 c 1
 1024 -3 l 1
 961 -9 891 -16 829 -16 c 0
 724 -16 636 21.8048780488 584 108 c 5
 574 108 l 5
 545 42.2195121951 482 -16 368 -16 c 0
 320 -16 283.05480845 -0.918864025518 252 20 c 0
 108 117 96 309 96 512 c 0
 96 715 108.25414476 906.623775482 252 1004 c 0
 283 1025 320 1040 368 1040 c 0
798 632 m 1
 796.49515774 705.831720211 787.383566008 800 719 800 c 0
 659.022880416 800 642.267870212 702.640418313 641 632 c 1
 798 632 l 1
EndSplineSet
Layer: 2
Layer: 3
EndChar
StartChar: rcaron
Encoding: 345 345 260
GlifName: rcaron
Width: 1024
VWidth: 0
Flags: W
HStem: 0 21G<256 384> 920 120<549.502 893.328> 1004 20G<256 384> 1388 20G<200 384.585 767.415 952>
VStem: 256 128<0 736.269 865 1024>
LayerCount: 4
Back
Fore
SplineSet
716 920 m 4xd8
 624 920 552 894 501 847 c 4
 384 740 384 589 384 475 c 6
 384 0 l 5
 256 0 l 5
 256 1024 l 5
 384 1024 l 5xb8
 384 865 l 5
 394 865 l 5
 469 967 561 1040 716 1040 c 4
 782 1040 839 1034 896 1027 c 5
 896 907 l 5
 839 914 781 920 716 920 c 4xd8
497 1152 m 1
 200 1408 l 1
 358 1408 l 1
 576 1244 l 1
 794 1408 l 1
 952 1408 l 1
 655 1152 l 1
 497 1152 l 1
EndSplineSet
Validated: 1
Layer: 2
Layer: 3
EndChar
StartChar: sacute
Encoding: 347 347 262
GlifName: sacute
Width: 1024
VWidth: 0
Flags: W
HStem: -16 120<260.105 715.757> 920 120<420.944 881.877> 1388 20G<656.031 807>
VStem: 234 128<683.812 865.349> 800 128<188.193 426.634>
LayerCount: 4
Back
Fore
SplineSet
567 -16 m 0
 464 -16 345 -4 256 6 c 1
 256 126 l 1
 341 116 470 104 567 104 c 0
 755 104 800 228 800 308 c 0
 800 390 757 449 700 478 c 0
 614 522 507 499 402 540 c 0
 318 573 234 655 234 776 c 0
 234 913 343 1040 572 1040 c 0
 689 1040 799 1028 886 1019 c 1
 886 899 l 1
 798 908 675 920 572 920 c 0
 410 920 362 842 362 776 c 0
 362 713 404 670 450 652 c 0
 543 616 654 640 762 584 c 0
 855 536 928 438 928 308 c 0
 928 145 810 -16 567 -16 c 0
503 1152 m 1
 669 1408 l 1
 807 1408 l 1
 641 1152 l 1
 503 1152 l 1
EndSplineSet
Validated: 1
Layer: 2
Layer: 3
EndChar
StartChar: Scircumflex
Encoding: 348 348 263
GlifName: S_circumflex
Width: 1024
VWidth: 0
Flags: W
HStem: -16 120<255.397 804.994> 1047 120<456.186 984.716>
VStem: 226 128<744.643 957.833> 926 128<205.795 424.647>
LayerCount: 3
Back
Fore
SplineSet
620 -16 m 0
 486 -16 366 -2 250 16 c 1
 250 139 l 1
 364 121 492 104 620 104 c 0
 799 104 926 184 926 320 c 0
 926 412 856 475 768 505 c 0
 654 544 542 515 411 578 c 0
 304 629 226 733 226 866 c 0
 226 1041 385 1167 620 1167 c 0
 756 1167 877 1154 990 1142 c 1
 990 1022 l 1
 878 1034 745 1047 620 1047 c 0
 455 1047 354 964 354 844 c 0
 354 770 406 717 477 686 c 0
 575 643 701 659 816 618 c 0
 945 572 1054 460 1054 298 c 0
 1054 109 869 -16 620 -16 c 0
497 1536 m 1
 655 1536 l 1
 952 1280 l 1
 794 1280 l 1
 576 1443.96289062 l 1
 358 1280 l 1
 200 1280 l 1
 497 1536 l 1
EndSplineSet
Validated: 1
Layer: 2
EndChar
StartChar: Scedilla
Encoding: 350 350 263
GlifName: S_cedilla
Width: 1024
VWidth: 0
Flags: W
HStem: -273 180<384 566.661> -16 240<191.397 680.977> 1184 240<461.941 920.716>
VStem: 162 256<886.347 1139.25> 580 188<-60.0159 22> 734 256<276.993 537.183>
LayerCount: 4
Back
SplineSet
576 -16 m 4
 452 -16 322 -2 206 16 c 5
 206 139 l 5
 320 121 458 104 576 104 c 4
 755 104 882 209 882 385 c 4
 882 508 813 597 724 632 c 4
 610 678 500 650 367 721 c 4
 260 778 182 895 182 1045 c 4
 182 1266 341 1424 576 1424 c 4
 702 1424 833 1407 946 1389 c 5
 946 1265 l 5
 834 1285 691 1304 576 1304 c 4
 411 1304 310 1198 310 1045 c 4
 310 942 361 863 433 825 c 4
 531 773 656 788 772 742 c 4
 901 691 1010 566 1010 385 c 4
 1010 143 825 -16 576 -16 c 4
EndSplineSet
Fore
Refer: 305 807 N 1 0 0 1 128 -1 2
Refer: 46 83 N 1 0 0 1 0 0 3
Layer: 2
Layer: 3
EndChar
StartChar: scedilla
Encoding: 351 351 264
GlifName: scedilla
Width: 1024
VWidth: 0
Flags: W
HStem: -272 180<384 568.92> -16 240<260.194 574.78> 800 240<500.67 881.877>
VStem: 234 256<637.517 788.954> 672 256<240.369 391.425>
LayerCount: 4
Back
Fore
SplineSet
567 -16 m 4
 464 -16 345 -4 256 6 c 5
 256 246 l 5
 341 236 470 224 567 224 c 4
 652 224 672 286 672 316 c 4
 672 360 650 390 617 397 c 4
 554 411 477 408 395 450 c 4
 312 493 234 586 234 719 c 4
 234 862 343 1040 572 1040 c 4
 689 1040 799 1028 886 1019 c 5
 886 779 l 5
 798 788 675 800 572 800 c 4
 509 800 490 746 490 721 c 4
 490 664 521 634 556 629 c 4
 640 616 741 619 833 533 c 4
 881 488 928 415 928 318 c 4
 928 206 875 95 768 33 c 5
 768 -36 768 -109 716 -177 c 4
 674 -233 608 -272 522 -272 c 4
 484 -272 435 -268 384 -262 c 5
 384 -82 l 5
 428 -88 471 -92 502 -92 c 4
 554 -92 572 -63 578 -16 c 5
 574 -16 571 -16 567 -16 c 4
EndSplineSet
Validated: 1
Layer: 2
Layer: 3
EndChar
StartChar: uni0162
Encoding: 354 354 267
GlifName: uni0162
Width: 1024
VWidth: 0
Flags: MW
HStem: -295 180<286 468.661> 1168 240<128 448 704 1024>
VStem: 448 256<0 1168>
LayerCount: 4
Back
Fore
SplineSet
1024 1408 m 1
 1024 1168 l 1
 704 1168 l 1
 704 0 l 1
 670 0 l 1
 670 -60 670 -130 618 -200 c 0
 576.422851562 -255.969726562 509.587890625 -295 424 -295 c 0
 386.265625 -295 336.671875 -290.8828125 286 -285 c 1
 286 -105 l 1
 330.25 -110.5 372.65625 -115 404 -115 c 0
 435.58203125 -115 457.022460938 -103.69140625 467.708007812 -83 c 0
 478.481445312 -62.138671875 482 -32.76171875 482 0 c 1
 448 0 l 1
 448 1168 l 1
 128 1168 l 1
 128 1408 l 1
 1024 1408 l 1
EndSplineSet
Validated: 524289
Layer: 2
Layer: 3
EndChar
StartChar: Tcaron
Encoding: 356 356 286
GlifName: T_caron
Width: 1024
VWidth: 0
Flags: W
HStem: 0 21G<512 640> 1032 120<128 512 640 1024>
VStem: 512 128<0 1032>
LayerCount: 4
Back
Fore
SplineSet
497 1280 m 1
 200 1536 l 1
 358 1536 l 1
 576 1372 l 1
 794 1536 l 1
 952 1536 l 1
 655 1280 l 1
 497 1280 l 1
1024 1152 m 1
 1024 1032 l 1
 640 1032 l 1
 640 0 l 1
 512 0 l 1
 512 1032 l 1
 128 1032 l 1
 128 1152 l 1
 1024 1152 l 1
EndSplineSet
Validated: 1
Layer: 2
Layer: 3
EndChar
StartChar: tcaron
Encoding: 357 357 287
GlifName: tcaron
Width: 1024
VWidth: 0
Flags: W
HStem: -16 120<580.546 893.438> 770 126<128 384 512 896>
VStem: 384 128<172.568 770 896 1280> 768 128<1152 1536>
LayerCount: 4
Back
Fore
SplineSet
896 -1 m 5
 839 -9 775 -16 704 -16 c 4
 594 -16 505 28 452 92 c 4
 384 174 384 271 384 360 c 6
 384 770 l 5
 128 770 l 5
 128 896 l 5
 384 896 l 5
 384 1280 l 5
 512 1280 l 5
 512 896 l 5
 896 896 l 5
 896 770 l 5
 512 770 l 5
 512 370 l 6
 512 284 512 218 555 166 c 4
 588 127 643 104 714 104 c 4
 778 104 844 112 896 119 c 5
 896 -1 l 5
768 1536 m 1
 896 1536 l 1
 896 1152 l 1
 768 1152 l 1
 768 1536 l 1
EndSplineSet
Validated: 1
Layer: 2
Layer: 3
EndChar
StartChar: Tbar
Encoding: 358 358 286
GlifName: T_bar
Width: 1024
VWidth: 0
Flags: W
HStem: 0 21G<448 704> 524 240<256 448 704 896> 1168 240<128 448 704 1024>
VStem: 448 256<0 524 764 1168>
AnchorPoint: "top" 576 1408 basechar 0
AnchorPoint: "bottom" 576 0 basechar 0
LayerCount: 4
Back
SplineSet
1024 1408 m 5
 1024 1168 l 5
 704 1168 l 5
 704 0 l 5
 448 0 l 5
 448 1168 l 5
 128 1168 l 5
 128 1408 l 5
 1024 1408 l 5
EndSplineSet
Fore
SplineSet
1024 1408 m 1
 1024 1168 l 1
 704 1168 l 1
 704 764 l 1
 896 764 l 1
 896 524 l 1
 704 524 l 1
 704 0 l 1
 448 0 l 1
 448 524 l 1
 256 524 l 1
 256 764 l 1
 448 764 l 1
 448 1168 l 1
 128 1168 l 1
 128 1408 l 1
 1024 1408 l 1
EndSplineSet
Validated: 1
Layer: 2
Layer: 3
EndChar
StartChar: tbar
Encoding: 359 359 287
GlifName: tbar
Width: 1024
VWidth: 0
Flags: W
HStem: -16 240<717.599 957.438> 400 240<192 448 704 960> 778 246<192 448 704 960>
VStem: 448 256<231.939 400 640 778 1024 1280>
AnchorPoint: "bottom" 768 0 basechar 0
LayerCount: 4
Back
Fore
SplineSet
960 -1 m 5
 903 -9 839 -16 768 -16 c 4
 658 -16 569 28 516 92 c 4
 448 174 448 271 448 360 c 6
 448 400 l 5
 192 400 l 5
 192 640 l 5
 448 640 l 5
 448 778 l 5
 192 778 l 5
 192 1024 l 5
 448 1024 l 5
 448 1280 l 5
 704 1280 l 5
 704 1024 l 5
 960 1024 l 5
 960 778 l 5
 704 778 l 5
 704 640 l 5
 960 640 l 5
 960 400 l 5
 704 400 l 5
 704 370 l 6
 704 280.424858203 717.102732597 224 778 224 c 4
 842 224 908 232 960 239 c 5
 960 -1 l 5
EndSplineSet
Layer: 2
Layer: 3
EndChar
StartChar: Uring
Encoding: 366 366 203
GlifName: U_ring
Width: 1024
VWidth: 0
Flags: MW
HStem: -16 240<457.921 694.079> 1248 160<500.611 651.389> 1604 160<500.611 651.389>
VStem: 128 256<303.02 1216> 768 256<303.02 1216>
LayerCount: 4
Back
Fore
SplineSet
128 1216 m 1
 384 1216 l 1
 384 512 l 2
 384 459 384 418 391 384 c 0
 411 289 480 224 576 224 c 0
 672 224 741 289 761 384 c 0
 768 418 768 459 768 512 c 2
 768 1216 l 1
 1024 1216 l 1
 1024 512 l 2
 1024 426 1024 371 1008 303 c 0
 964 118 797 -16 576 -16 c 0
 355 -16 188 118 144 303 c 0
 128 371 128 426 128 512 c 2
 128 1216 l 1
576 1764 m 0
 728.762695312 1764 834 1649.7109375 834 1506 c 0
 834 1362.2890625 728.762695312 1248 576 1248 c 0
 423.237304688 1248 318 1362.2890625 318 1506 c 0
 318 1649.7109375 423.237304688 1764 576 1764 c 0
576 1604 m 0
 523.5 1604 486 1569.546875 486 1506 c 0
 486 1442.453125 523.5 1408 576 1408 c 0
 628.5 1408 666 1442.453125 666 1506 c 0
 666 1569.546875 628.5 1604 576 1604 c 0
EndSplineSet
Validated: 1
Layer: 2
Layer: 3
EndChar
StartChar: Uogonek
Encoding: 370 370 207
GlifName: U_ogonek
Width: 1024
VWidth: 0
Flags: W
HStem: -400 120<521.947 640> 1388 20G<128 256 896 1024>
VStem: 128 128<265.556 1408> 384 128<-272.685 -86.9928> 896 128<264.208 1408>
LayerCount: 4
Back
Fore
SplineSet
500 -10 m 5
 317 17 182 140 144 303 c 0
 128 371 128 426 128 512 c 2
 128 1408 l 1
 256 1408 l 1
 256 512 l 2
 256 437 256 378 268 330 c 0
 301 196 416 104 576 104 c 0
 736 104 851 196 884 330 c 0
 896 378 896 437 896 512 c 2
 896 1408 l 1
 1024 1408 l 1
 1024 512 l 2
 1024 426 1024 371 1008 303 c 0
 968 134 826 8 633 -13 c 5
 550 -69 512 -119 512 -198 c 4
 512 -258 550 -280 581 -280 c 4
 602 -280 622 -277 640 -268 c 5
 640 -389 l 5
 616 -398 589 -400 561 -400 c 4
 482 -400 384 -325 384 -205 c 4
 384 -112 445 -51 500 -10 c 5
EndSplineSet
Validated: 1
Layer: 2
Layer: 3
EndChar
StartChar: uogonek
Encoding: 371 371 208
GlifName: uogonek
Width: 1024
VWidth: 0
Flags: W
HStem: -350 160<765.688 896> -16 240<443.5 595.614> 1004 20G<256 512 640 896>
VStem: 256 256<259.317 1024> 593 171<-237.282 -77.1557> 640 256<0 62 259.317 1024>
LayerCount: 4
Back
Fore
SplineSet
825 -190 m 4xf8
 849.981330423 -190 873.647997089 -187.666666667 896 -183 c 5
 896 -341 l 5xf4
 863.80952381 -348.2 829.142857143 -350 792 -350 c 4
 703.060975736 -350 593 -287 593 -185 c 4xf8
 593 -97 664 -39 728 0 c 5
 640 0 l 1
 640 62 l 1
 633 62 l 1
 596 15.078125 538 -16 481 -16 c 0
 406 -16 346 29 308 91 c 0
 256 177 256 273 256 367 c 2
 256 1024 l 1
 512 1024 l 1
 512 367 l 2
 512 320 512 286 527 258 c 0
 538 238 555 224 576 224 c 0
 597 224 614 238 625 258 c 0
 640 286 640 320 640 367 c 2
 640 1024 l 1
 896 1024 l 1
 896 0 l 5xf4
 805.412109375 -42 764 -79 764 -138 c 4
 764 -176 797.041666667 -190 825 -190 c 4xf8
EndSplineSet
Validated: 1
Layer: 2
Layer: 3
EndChar
StartChar: Zacute
Encoding: 377 377 214
GlifName: Z_acute
Width: 1024
VWidth: 0
Flags: W
HStem: 0 120<283 1024> 1032 120<148 849>
LayerCount: 3
Back
Fore
SplineSet
488 1280 m 1
 654 1536 l 1
 792 1536 l 1
 626 1280 l 1
 488 1280 l 1
148 1032 m 1
 148 1152 l 1
 1004 1152 l 1
 1004 1062 l 1
 283 130 l 1
 283 120 l 1
 1024 120 l 1
 1024 0 l 1
 128 0 l 1
 128 92 l 1
 849 1022 l 1
 849 1032 l 1
 148 1032 l 1
EndSplineSet
Validated: 1
Layer: 2
EndChar
StartChar: longs
Encoding: 383 383 495
GlifName: longs
Width: 1024
VWidth: 0
Flags: W
HStem: 0 21G<448 704> 656 240<192 448> 1183 241<712.898 960>
VStem: 448 256<0 656 896 1175.14>
LayerCount: 4
Back
Fore
SplineSet
704 0 m 5
 448 0 l 5
 448 656 l 5
 192 656 l 5
 192 896 l 5
 448 896 l 5
 448 1129 l 6
 448 1181 449.16380636 1257.93706746 513 1329 c 4
 566 1388 663 1424 783 1424 c 4
 843.354098361 1424 913.573770492 1420.625 960 1418 c 5
 960 1178 l 5
 918.692810458 1180.17391304 853.633986928 1183 802 1183 c 4
 751.743589744 1183 704 1177.87272727 704 1089 c 5
 704 0 l 5
EndSplineSet
Layer: 2
Layer: 3
EndChar
StartChar: uni0189
Encoding: 393 393 632
GlifName: uni0189
Width: 1024
VWidth: 0
Flags: W
HStem: 0 240<384 647.068> 584 240<384 576> 1168 240<384 647.068>
VStem: 128 256<240 584 824 1168> 784 256<401.061 1006.94>
CounterMasks: 1 e0
AnchorPoint: "top" 512 1408 basechar 0
LayerCount: 4
Back
Fore
SplineSet
784 704 m 0
 784 850 771 964 727 1040 c 0
 688 1107 624 1168 495 1168 c 2
 384 1168 l 1
 384 824 l 1
 576 824 l 1
 576 584 l 1
 384 584 l 1
 384 240 l 1
 495 240 l 2
 624 240 688 301 727 368 c 0
 772 444 784 558 784 704 c 0
474 1408 m 2
 717 1408 859 1306 943 1171 c 0
 1025 1040 1040 877 1040 704 c 0
 1040 531 1025 368 943 237 c 0
 859 102 717 0 474 0 c 2
 128 0 l 1
 128 1408 l 1
 474 1408 l 2
EndSplineSet
Validated: 1
Layer: 2
Layer: 3
EndChar
StartChar: uni018F
Encoding: 399 399 598
GlifName: uni018F_
Width: 1024
VWidth: 0
Flags: W
HStem: -16 240<466.382 685.649> 588 240<369 781> 1184 240<153.188 650.061>
VStem: 112 257<345.647 588> 783 257<345.647 588 828 1032.01>
LayerCount: 4
Back
Fore
SplineSet
369 588 m 1
 371 543 374 462 397 382 c 0
 421 299 470 224 576 224 c 0
 682 224 731 299 755 382 c 0
 778 462 781 543 783 588 c 1
 369 588 l 1
781 828 m 1
 779 863 777 895 766 954 c 0
 739 1092 657 1184 496 1184 c 0
 385 1184 260 1173 148 1163 c 1
 148 1403 l 1
 257 1415 377 1424 499 1424 c 0
 793 1424 950 1266 1009 1044 c 0
 1038 930 1040 814 1040 704 c 0
 1040 577 1038 458 1012 355 c 0
 963 155 821 -16 576 -16 c 0
 331 -16 190 155 140 355 c 0
 113 464 112 591 112 828 c 1
 781 828 l 1
EndSplineSet
Validated: 1
Layer: 2
SplineSet
368 648 m 5
 369 553 374 462 397 382 c 4
 420.815111451 299.164829734 470.083601286 224 576 224 c 4
 681.916398714 224 731.184888549 299.164829734 755 382 c 4
 778 462 783 553 784 648 c 5
 368 648 l 5
783.315902501 768 m 5
 781.787079471 832.546355468 777.296493449 895.258234067 766 954 c 4
 739 1092 657.018554688 1184 496 1184 c 4
 384.8046875 1184 260.224609375 1173.5 148 1163 c 5
 148 1403 l 5
 257.108398438 1415.31054688 376.510742188 1424 499 1424 c 4
 793 1424 950 1266 1009 1044 c 4
 1038 930 1040 814 1040 704 c 4
 1040 577 1038 458 1012 355 c 4
 963 155 821 -16 576 -16 c 4
 331 -16 189 155 140 355 c 4
 114 458 112 591 112 768 c 5
 783.315902501 768 l 5
EndSplineSet
Layer: 3
EndChar
StartChar: uni01EA
Encoding: 490 490 434
GlifName: uni01E_A_
Width: 1024
VWidth: 0
Flags: W
HStem: -354.333 160<529.688 660> 1184 240<470.192 681.808>
VStem: 112 256.045<355.825 1052.18> 357 171<-191.897 -81.977> 783.955 256.045<355.825 1052.18>
LayerCount: 4
Back
Fore
SplineSet
112 704 m 0xe8
 112 831 114 950 140 1053 c 0
 189 1253 331 1424 576 1424 c 0
 821 1424 963 1253 1012 1053 c 0
 1038 950 1040 831 1040 704 c 0
 1040 577 1038 458 1012 355 c 0
 968.685915706 178.20781921 852.7028516 24.0758579318 657.143653404 -9.3142910361 c 0
 568.541199204 -25.087887798 527.999999751 -85.648764257 528 -142.333007812 c 0
 528 -180.333007812 561.041992188 -194.333007812 589 -194.333007812 c 0
 613.981445312 -194.333007812 637.6484375 -192 660 -187.333007812 c 1
 660 -345.333007812 l 1
 627.809570312 -352.533203125 593.142578125 -354.333007812 556 -354.333007812 c 0
 467.060546875 -354.333007812 357 -291.333007812 357 -189.333007812 c 0xd8
 357 -103.893352471 423.928636887 -46.7334028556 486.397937853 -7.78562434337 c 1
 295.948222204 28.5513845044 182.685898919 180.771841143 140 355 c 0
 114 458 112 577 112 704 c 0xe8
368.044921875 704 m 0xe8
 368.044921875 611 369.040039062 523 382.969726562 446 c 0
 404.859375 328 464.559570312 224 576 224 c 0
 687.440429688 224 747.140625 328 769.030273438 446 c 0
 782.959960938 523 783.955078125 611 783.955078125 704 c 0
 783.955078125 797 782.959960938 885 769.030273438 962 c 0
 747.140625 1080 687.440429688 1184 576 1184 c 0
 464.559570312 1184 404.859375 1080 382.969726562 962 c 0
 369.040039062 885 368.044921875 797 368.044921875 704 c 0xe8
EndSplineSet
Validated: 1
Layer: 2
Layer: 3
EndChar
StartChar: uni01EB
Encoding: 491 491 435
GlifName: uni01E_B_
Width: 1024
VWidth: 0
Flags: W
HStem: -350 160<573.688 704> 799.915 240.085<513.265 638.735>
VStem: 224 255.782<254.48 769.52> 401 171<-237.282 -76.9564> 672.218 255.782<254.48 769.52>
LayerCount: 4
Back
Fore
SplineSet
576 799.915039062 m 0xe8
 539.91796875 799.915039062 515.43359375 772.392578125 500.401367188 730.7578125 c 0
 480.641601562 675.716796875 479.782226562 594.5625 479.782226562 512 c 0
 479.782226562 429.4375 480.641601562 348.283203125 500.401367188 293.2421875 c 0
 515.43359375 251.607421875 539.91796875 224.084960938 576 224.084960938 c 0
 612.08203125 224.084960938 636.56640625 251.607421875 651.598632812 293.2421875 c 0
 671.358398438 348.283203125 672.217773438 429.4375 672.217773438 512 c 0
 672.217773438 594.5625 671.358398438 675.716796875 651.598632812 730.7578125 c 0
 636.56640625 772.392578125 612.08203125 799.915039062 576 799.915039062 c 0xe8
576 1040 m 0
 703 1040 802 978 863 880 c 0
 919 788 928 662 928 512 c 0
 928 362 919 236 863 144 c 0
 823.907884181 81.1962729472 769.209384668 33.1775409738 701.536453129 6.78688202797 c 0
 612.661012751 -27.1499419905 572.000000699 -76.1483650112 572 -138 c 0
 572 -176 605.041992188 -190 633 -190 c 0
 657.981445312 -190 681.6484375 -187.666992188 704 -183 c 1
 704 -341 l 1
 671.809570312 -348.200195312 637.142578125 -350 600 -350 c 0
 511.060546875 -350 401 -287 401 -185 c 0xd8
 401 -105.233974057 459.334961457 -50.1165233779 517.91500796 -11.4554859042 c 1
 418.652321526 4.49966457155 340.357962466 61.4904865305 289 144 c 0
 233 236 224 362 224 512 c 0
 224 662 233 788 289 880 c 0
 350 978 449 1040 576 1040 c 0
EndSplineSet
Validated: 524289
Layer: 2
Layer: 3
EndChar
StartChar: uni0207
Encoding: 519 519 445
GlifName: uni0207
Width: 1024
VWidth: 0
Flags: W
HStem: -16 120<457.677 891.106> 512 120<354 798> 920 120<444.73 707.27> 1304 120<425.835 726.165>
VStem: 224 128<219.686 512 632 819.315 1152 1232.75> 788 128<1152 1246.12>
LayerCount: 3
Back
Fore
SplineSet
576 920 m 4
 478.994923858 920 409.705583756 874 381 799 c 4
 360.48 751 357.24 693 354 632 c 5
 798 632 l 5
 794.759765625 693 791.51953125 751 771 799 c 4
 742.293945312 874 673.004882812 920 576 920 c 4
576 1040 m 4
 737.971679688 1040 849.264648438 951 891 839 c 4
 926.942382812 747 928 637 928 512 c 5
 352 512 l 5
 352 410 352 308 384 235 c 4
 421 151 490 104 596 104 c 4
 689 104 791 113 896 125 c 5
 896 5 l 5
 792 -7 696 -16 596 -16 c 4
 422 -16 311 77 264 193 c 4
 226 286 224 391 224 512 c 4
 224 637 225.057142857 747 261 839 c 4
 302.735015773 951 414.028391167 1040 576 1040 c 4
788 1152 m 1
 788 1238 719 1304 576 1304 c 0
 433 1304 364 1238 364 1152 c 1
 236 1152 l 1
 236 1320 388 1424 576 1424 c 0
 764 1424 916 1320 916 1152 c 1
 788 1152 l 1
EndSplineSet
Validated: 1
Layer: 2
EndChar
StartChar: uni020A
Encoding: 522 522 448
GlifName: uni020A_
Width: 1024
VWidth: 0
Flags: W
HStem: 0 120<256 512 640 896> 1032 120<256 512 640 896> 1432 120<425.835 726.165>
VStem: 236 128<1280 1374.12> 512 128<120 1032> 788 128<1280 1374.12>
CounterMasks: 1 1c
LayerCount: 4
Back
Fore
SplineSet
788 1280 m 1
 788 1366 719 1432 576 1432 c 0
 433 1432 364 1366 364 1280 c 1
 236 1280 l 1
 236 1448 388 1552 576 1552 c 0
 764 1552 916 1448 916 1280 c 1
 788 1280 l 1
896 1152 m 1
 896 1032 l 1
 640 1032 l 1
 640 120 l 1
 896 120 l 1
 896 0 l 1
 256 0 l 1
 256 120 l 1
 512 120 l 1
 512 1032 l 1
 256 1032 l 1
 256 1152 l 1
 896 1152 l 1
EndSplineSet
Validated: 1
Layer: 2
Layer: 3
EndChar
StartChar: uni0210
Encoding: 528 528 454
GlifName: uni0210
Width: 1024
VWidth: 0
Flags: W
HStem: 0 21G<128 256 789.654 938> 520 120<256 556> 1032 120<256 715.435>
VStem: 128 128<0 520 640 1032> 784 128<710.228 960.388>
LayerCount: 4
Back
Fore
SplineSet
553 1032 m 1026,0,-1
792 1280 m 1,1,-1
 654 1280 l 1,2,-1
 488 1536 l 1,3,-1
 626 1536 l 1,4,-1
 792 1280 l 1,1,-1
408 1280 m 1,5,-1
 270 1280 l 1,6,-1
 104 1536 l 1,7,-1
 242 1536 l 1,8,-1
 408 1280 l 1,5,-1
553 1032 m 2,9,-1
 256 1032 l 1,10,-1
 256 640 l 1,11,-1
 553 640 l 2,12,-1
 589 640 621 641 648 647 c 0,15,-1
 729 666 784 736 784 836 c 0,18,-1
 784 936 729 1007 648 1025 c 0,21,-1
 621 1031 589 1032 553 1032 c 2,9,-1
553 1152 m 2,24,-1
 591 1152 633 1152 679 1141 c 0,27,-1
 812 1109 912 997 912 836 c 0,30,-1
 912 679 817 569 689 534 c 1,33,-1
 938 0 l 1,34,-1
 799 0 l 1,35,-1
 556 520 l 1,36,-1
 256 520 l 1,37,-1
 256 0 l 1,38,-1
 128 0 l 1,39,-1
 128 1152 l 1,40,-1
 553 1152 l 2,24,-1
EndSplineSet
Validated: 1
Layer: 2
Layer: 3
EndChar
StartChar: uni021B
Encoding: 539 539 465
GlifName: uni021B_
Width: 1024
VWidth: 0
Flags: W
HStem: -400 120<512 611.098> -16 120<579.511 885.097> 898 126<128 384 512 896>
VStem: 384 128<172.568 898 1024 1280> 640 128<-243.403 -128>
LayerCount: 4
Back
Fore
SplineSet
716 -315 m 4
 675 -367 602 -400 512 -400 c 5
 512 -280 l 5
 559 -280 593 -268 612 -245 c 4
 640 -211 640 -173 640 -128 c 5
 683 -128 725 -128 768 -128 c 5
 768 -184 768 -249 716 -315 c 4
896 19 m 1
 836 -1 769 -16 694 -16 c 0
 588 -16 504 29 452 92 c 0
 384 174 384 271 384 360 c 2
 384 898 l 1
 128 898 l 1
 128 1024 l 1
 384 1024 l 1
 384 1280 l 1
 512 1280 l 1
 512 1024 l 1
 896 1024 l 1
 896 898 l 1
 512 898 l 1
 512 370 l 2
 512 284 512 218 555 166 c 0
 587 128 637 104 704 104 c 0
 772 104 841 125 896 147 c 1
 896 19 l 1
EndSplineSet
Validated: 1
Layer: 2
Layer: 3
EndChar
StartChar: uni0237
Encoding: 567 567 290
GlifName: uni0237
Width: 1024
VWidth: 0
Flags: MW
HStem: -272 240<174.991 480.058> 784 240<266 512>
VStem: 512 256<-2.32476 784>
AnchorPoint: "top" 576 1024 basechar 0
LayerCount: 4
Back
Fore
SplineSet
512 160 m 2
 512 784 l 1
 266 784 l 1
 266 1024 l 1
 768 1024 l 1
 768 160 l 2
 768 100 767.983985433 -10.9904243673 707 -113 c 0
 652 -205 556 -272 408 -272 c 0
 318 -272 236 -265 172 -257 c 1
 172 -17 l 1
 235 -24 319 -32 408 -32 c 0
 489.016944744 -32 512 66 512 160 c 2
EndSplineSet
Layer: 2
Layer: 3
EndChar
StartChar: uni0259
Encoding: 601 601 432
GlifName: uni0259
Width: 1024
VWidth: 0
Flags: W
HStem: -16 240<502.551 649.296> 412 220<480 671> 800 240<260.894 648.535>
VStem: 224 256<243.265 412> 672 256<243.652 412 632 777.396>
LayerCount: 4
Back
Fore
SplineSet
576 -16 m 4
 414 -16 305 74 261 185 c 4
 225 277 224 387 224 512 c 6
 224 632 l 5
 671 632 l 5
 671 674 670 716 656 747 c 4
 639 782 606 800 556 800 c 4
 463 800 361 791 256 780 c 5
 256 1019 l 5
 360 1031 456 1040 556 1040 c 4
 730 1040 841 947 888 831 c 4
 926 738 928 633 928 512 c 4
 928 387 926 278 891 185 c 4
 849 73 738 -16 576 -16 c 4
576 224 m 4
 670 224 670 317 672 412 c 5
 480 412 l 5
 482 317 481 224 576 224 c 4
EndSplineSet
Validated: 1
Layer: 2
Layer: 3
EndChar
StartChar: uni025B
Encoding: 603 603 520
GlifName: uni025B_
Width: 1024
VWidth: 0
Flags: W
HStem: -16 120<434.716 808.181> 512 120<436.941 770> 920 120<422.589 807.061>
VStem: 226 128<181.8 431.902 697.898 855.712>
LayerCount: 4
Back
Fore
SplineSet
379 563 m 5
 379 573 l 5
 285 612 236 680 236 777 c 4
 236 922 371 1040 577 1040 c 4
 674 1040 779 1012 878 984 c 5
 878 858 l 5
 778 887 669 920 577 920 c 4
 434 920 364 848 364 777 c 4
 364 703 430 654 498 641 c 4
 544 632 582 632 631 632 c 4
 677 632 724 632 770 632 c 5
 770 512 l 5
 632 512 l 6
 586 512 545 511 509 503 c 4
 420 483 354 410 354 308 c 4
 354 181 446 104 578 104 c 4
 669 104 788 140 898 170 c 5
 898 44 l 5
 791 15 681 -16 578 -16 c 4
 375 -16 226 116 226 308 c 4
 226 417 266 508 379 563 c 5
EndSplineSet
Validated: 1
Layer: 2
Layer: 3
EndChar
StartChar: uni025C
Encoding: 604 604 521
GlifName: uni025C_
Width: 1024
VWidth: 0
Flags: W
HStem: -16 240<256 659.497> 400 240<384 649.431> 800 240<280.521 652.38>
VStem: 672 256<238.913 377.719 663.591 779.697>
LayerCount: 4
Back
Fore
SplineSet
785 523 m 5
 890.614257812 472.313476562 928 388.451171875 928 288 c 4
 928 107.8515625 775 -16 566 -16 c 4
 456 -16 360 -12 256 -6 c 5
 256 234 l 5
 363 228 468 224 566 224 c 4
 628.512695312 224 672 255.706054688 672 308 c 4
 672 377.333984375 609.124023438 400 522 400 c 6
 384 400 l 5
 384 640 l 5
 430 640 477 640 523 640 c 4
 589.876953125 640 662 652.060546875 662 724 c 4
 662 761.734375 630.901367188 800 567 800 c 4
 468 800 373 792 276 784 c 5
 276 1024 l 5
 372 1033 463 1040 567 1040 c 4
 779 1040 918 908.540039062 918 747 c 4
 918 645.245117188 872.426757812 573.912109375 785 533 c 5
 785 523 l 5
EndSplineSet
Layer: 2
Layer: 3
EndChar
StartChar: uni02BB
Encoding: 699 699 519
GlifName: uni02B_B_
Width: 1024
VWidth: 0
Flags: W
HStem: 1280 272<550.165 646>
VStem: 448 198<1280 1358>
LayerCount: 4
Back
Fore
SplineSet
500 1467 m 4
 541 1519 614 1552 704 1552 c 5
 704 1362 l 5
 657.34375 1362 646 1330.05957031 646 1280 c 5
 448 1280 l 5
 448 1336 448 1401 500 1467 c 4
EndSplineSet
Validated: 1
Layer: 2
Layer: 3
EndChar
StartChar: uni02BC
Encoding: 700 700 518
GlifName: uni02B_C_
Width: 1024
VWidth: 0
Flags: W
HStem: 1008 528<512 605.478>
VStem: 512 256<1268.75 1536>
LayerCount: 4
Back
Fore
SplineSet
768 1303 m 6
 768 1243 768 1173 690 1103 c 4
 627 1046 519 1008 384 1008 c 5
 384 1248 l 5
 431 1248 463 1255 484 1268 c 4
 512 1284 512 1304 512 1327 c 6
 512 1536 l 5
 768 1536 l 5
 768 1303 l 6
EndSplineSet
Layer: 2
Layer: 3
EndChar
StartChar: gravecomb
Encoding: 768 768 293
GlifName: gravecomb
Width: 1024
VWidth: 0
Flags: W
HStem: 1280 256
VStem: 360 304
LayerCount: 4
Back
Fore
SplineSet
664 1280 m 1
 526 1280 l 1
 360 1536 l 1
 498 1536 l 1
 664 1280 l 1
EndSplineSet
Validated: 1
Layer: 2
Layer: 3
EndChar
StartChar: acutecomb
Encoding: 769 769 294
GlifName: acutecomb
Width: 1024
VWidth: 0
Flags: W
HStem: 1280 256<590 666>
VStem: 448 408
AnchorPoint: "top" 576 1152 mark 0
LayerCount: 4
Back
Fore
SplineSet
448 1280 m 5
 590 1536 l 5
 856 1536 l 5
 666 1280 l 5
 448 1280 l 5
EndSplineSet
Layer: 2
Layer: 3
EndChar
StartChar: uni0302
Encoding: 770 770 295
GlifName: uni0302
Width: 1024
VWidth: 0
Flags: W
HStem: 1280 256<427 448 704 725>
AnchorPoint: "top" 576 1152 mark 0
LayerCount: 4
Back
Fore
SplineSet
427 1536 m 5
 725 1536 l 5
 952 1280 l 5
 704 1280 l 5
 576 1394 l 5
 448 1280 l 5
 200 1280 l 5
 427 1536 l 5
EndSplineSet
Layer: 2
Layer: 3
EndChar
StartChar: tildecomb
Encoding: 771 771 294
GlifName: tildecomb
Width: 1024
VWidth: 0
Flags: MW
HStem: 1342 190<386.444 597.444>
AnchorPoint: "top" 576 1152 mark 0
LayerCount: 4
Back
SplineSet
448 1412 m 4
 397 1412 384 1353 381 1299 c 5
 253 1305 l 5
 257 1423 319 1532 448 1532 c 4
 594 1532 627 1404 704 1404 c 4
 755 1404 768 1463 771 1517 c 5
 899 1511 l 5
 896 1395 833 1284 704 1284 c 4
 558 1284 525 1412 448 1412 c 4
EndSplineSet
Fore
SplineSet
498 1342 m 0
 462.223880597 1342 453.104477612 1309.10619469 451 1279 c 1
 253 1285 l 1
 257 1413.39647577 319 1532 448 1532 c 0
 565.484375 1532 592.0390625 1474 654 1474 c 0
 689.776119403 1474 698.895522388 1506.89380531 701 1537 c 1
 899 1531 l 1
 896 1404.77973568 833 1284 704 1284 c 0
 586.515625 1284 559.9609375 1342 498 1342 c 0
EndSplineSet
Layer: 2
Layer: 3
EndChar
StartChar: uni0304
Encoding: 772 772 295
GlifName: uni0304
Width: 1024
VWidth: 0
Flags: W
HStem: 1284 200<256 896>
AnchorPoint: "top" 576 1152 mark 0
LayerCount: 4
Back
Fore
SplineSet
256 1484 m 5
 896 1484 l 5
 896 1284 l 1
 256 1284 l 1
 256 1484 l 5
EndSplineSet
Layer: 2
Layer: 3
EndChar
